{
.appVersion = "1342";
DisplayStrings = (
"/dcaron",
"/space/nbspace",
"/commaaccent",
S,
g
);
classes = (
{
automatic = 1;

glyphs = (
{
glyphname = .notdef;
lastChange = "2021-04-13 17:47:49 +0000";
layers = (
{
background = {
paths = (
{
closed = 1;
nodes = (
"477 0 LINE",
"477 700 LINE",
"50 700 LINE",
"50 0 LINE"
);
},
{
closed = 1;
nodes = (
"264 329 LINE",
"449 21 LINE",
"79 21 LINE"
);
},
{
closed = 1;
nodes = (
"71 650 LINE",
"251 350 LINE",
"71 49 LINE"
);
},
{
closed = 1;
nodes = (
"276 350 LINE",
"457 652 LINE",
"457 47 LINE"
);
},
{
closed = 1;
nodes = (
"78 680 LINE",
"449 680 LINE",
"263 371 LINE"
);
}
);
};
layerId = "04EC68FF-C98D-4D46-AE83-08D67BD50805";
paths = (
{
closed = 1;
nodes = (
"477 0 LINE",
"477 700 LINE",
"50 700 LINE",
"50 0 LINE"
);
},
{
closed = 1;
nodes = (
"264 329 LINE",
"449 21 LINE",
"79 21 LINE"
);
},
{
closed = 1;
nodes = (
"71 650 LINE",
"251 350 LINE",
"71 49 LINE"
);
},
{
closed = 1;
nodes = (
"276 350 LINE",
"457 652 LINE",
"457 47 LINE"
);
},
{
closed = 1;
nodes = (
"78 680 LINE",
"449 680 LINE",
"263 371 LINE"
);
}
);
width = 527;
},
{
background = {
paths = (
{
closed = 1;
nodes = (
"477 0 LINE",
"477 700 LINE",
"50 700 LINE",
"50 0 LINE"
);
},
{
closed = 1;
nodes = (
"264 329 LINE",
"449 21 LINE",
"79 21 LINE"
);
},
{
closed = 1;
nodes = (
"71 650 LINE",
"251 350 LINE",
"71 49 LINE"
);
},
{
closed = 1;
nodes = (
"276 350 LINE",
"457 652 LINE",
"457 47 LINE"
);
},
{
closed = 1;
nodes = (
"78 680 LINE",
"449 680 LINE",
"263 371 LINE"
);
}
);
};
layerId = "61B80AC7-60CB-49DF-8181-735FACBD9F63";
paths = (
{
closed = 1;
nodes = (
"477 0 LINE",
"477 700 LINE",
"50 700 LINE",
"50 0 LINE"
);
},
{
closed = 1;
nodes = (
"264 329 LINE",
"449 21 LINE",
"79 21 LINE"
);
},
{
closed = 1;
nodes = (
"71 650 LINE",
"251 350 LINE",
"71 49 LINE"
);
},
{
closed = 1;
nodes = (
"276 350 LINE",
"457 652 LINE",
"457 47 LINE"
);
},
{
closed = 1;
nodes = (
"78 680 LINE",
"449 680 LINE",
"263 371 LINE"
);
}
);
width = 527;
}
);
},
{
glyphname = zero;
lastChange = "2021-04-13 17:47:49 +0000";
layers = (
{
background = {
paths = (
{
closed = 1;
nodes = (
"496 -12 OFFCURVE",
"588 111 OFFCURVE",
"588 335 CURVE SMOOTH",
"588 557 OFFCURVE",
"496 680 OFFCURVE",
"324 680 CURVE SMOOTH",
"152 680 OFFCURVE",
"60 557 OFFCURVE",
"60 335 CURVE SMOOTH",
"60 111 OFFCURVE",
"152 -12 OFFCURVE",
"324 -12 CURVE SMOOTH"
);
},
{
closed = 1;
nodes = (
"206 62 OFFCURVE",
"151 160 OFFCURVE",
"151 335 CURVE SMOOTH",
"151 394 OFFCURVE",
"157 445 OFFCURVE",
"171 486 CURVE",
"435 107 LINE",
"408 78 OFFCURVE",
"371 62 OFFCURVE",
"324 62 CURVE SMOOTH"
);
},
{
closed = 1;
nodes = (
"217 566 LINE",
"244 592 OFFCURVE",
"280 606 OFFCURVE",
"324 606 CURVE SMOOTH",
"441 606 OFFCURVE",
"497 509 OFFCURVE",
"497 335 CURVE SMOOTH",
"497 278 OFFCURVE",
"491 229 OFFCURVE",
"480 190 CURVE"
);
}
);
};
layerId = "04EC68FF-C98D-4D46-AE83-08D67BD50805";
paths = (
{
closed = 1;
nodes = (
"496 -12 OFFCURVE",
"588 111 OFFCURVE",
"588 335 CURVE SMOOTH",
"588 557 OFFCURVE",
"496 680 OFFCURVE",
"324 680 CURVE SMOOTH",
"152 680 OFFCURVE",
"60 557 OFFCURVE",
"60 335 CURVE SMOOTH",
"60 111 OFFCURVE",
"152 -12 OFFCURVE",
"324 -12 CURVE SMOOTH"
);
},
{
closed = 1;
nodes = (
"206 62 OFFCURVE",
"151 160 OFFCURVE",
"151 335 CURVE SMOOTH",
"151 394 OFFCURVE",
"157 445 OFFCURVE",
"171 486 CURVE",
"435 107 LINE",
"408 78 OFFCURVE",
"371 62 OFFCURVE",
"324 62 CURVE SMOOTH"
);
},
{
closed = 1;
nodes = (
"217 566 LINE",
"244 592 OFFCURVE",
"280 606 OFFCURVE",
"324 606 CURVE SMOOTH",
"441 606 OFFCURVE",
"497 509 OFFCURVE",
"497 335 CURVE SMOOTH",
"497 278 OFFCURVE",
"491 229 OFFCURVE",
"480 190 CURVE"
);
}
);
width = 648;
},
{
background = {
paths = (
{
closed = 1;
nodes = (
"519 -12 OFFCURVE",
"618 122 OFFCURVE",
"618 335 CURVE SMOOTH",
"618 549 OFFCURVE",
"519 680 OFFCURVE",
"331 680 CURVE",
"144 680 OFFCURVE",
"45 549 OFFCURVE",
"45 335 CURVE SMOOTH",
"45 122 OFFCURVE",
"144 -12 OFFCURVE",
"331 -12 CURVE SMOOTH"
);
},
{
closed = 1;
nodes = (
"254 101 OFFCURVE",
"201 174 OFFCURVE",
"201 335 CURVE",
"201 372 OFFCURVE",
"204 403 OFFCURVE",
"209 431 CURVE",
"412 139 LINE",
"391 113 OFFCURVE",
"363 101 OFFCURVE",
"331 101 CURVE SMOOTH"
);
},
{
closed = 1;
nodes = (
"254 534 LINE",
"275 556 OFFCURVE",
"301 567 OFFCURVE",
"331 567 CURVE SMOOTH",
"409 567 OFFCURVE",
"461 496 OFFCURVE",
"461 334 CURVE SMOOTH",
"461 302 OFFCURVE",
"459 272 OFFCURVE",
"455 246 CURVE"
);
}
);
};
layerId = "61B80AC7-60CB-49DF-8181-735FACBD9F63";
paths = (
{
closed = 1;
nodes = (
"519 -12 OFFCURVE",
"618 122 OFFCURVE",
"618 335 CURVE SMOOTH",
"618 549 OFFCURVE",
"519 680 OFFCURVE",
"331 680 CURVE",
"144 680 OFFCURVE",
"45 549 OFFCURVE",
"45 335 CURVE SMOOTH",
"45 122 OFFCURVE",
"144 -12 OFFCURVE",
"331 -12 CURVE SMOOTH"
);
},
{
closed = 1;
nodes = (
"254 101 OFFCURVE",
"201 174 OFFCURVE",
"201 335 CURVE",
"201 372 OFFCURVE",
"204 403 OFFCURVE",
"209 431 CURVE",
"412 139 LINE",
"391 113 OFFCURVE",
"363 101 OFFCURVE",
"331 101 CURVE SMOOTH"
);
},
{
closed = 1;
nodes = (
"254 534 LINE",
"275 556 OFFCURVE",
"301 567 OFFCURVE",
"331 567 CURVE SMOOTH",
"409 567 OFFCURVE",
"461 496 OFFCURVE",
"461 334 CURVE SMOOTH",
"461 302 OFFCURVE",
"459 272 OFFCURVE",
"455 246 CURVE"
);
}
);
width = 652;
}
);
unicode = 0030;
},
{
glyphname = one;
lastChange = "2021-04-13 17:47:49 +0000";
layers = (
{
background = {
paths = (
{
closed = 1;
nodes = (
"304 0 LINE",
"304 668 LINE",
"248 668 LINE",
"219 586 OFFCURVE",
"138 571 OFFCURVE",
"42 571 CURVE",
"42 504 LINE",
"220 504 LINE",
"220 0 LINE"
);
}
);
};
layerId = "04EC68FF-C98D-4D46-AE83-08D67BD50805";
paths = (
{
closed = 1;
nodes = (
"304 0 LINE",
"304 668 LINE",
"248 668 LINE",
"219 586 OFFCURVE",
"138 571 OFFCURVE",
"42 571 CURVE",
"42 504 LINE",
"220 504 LINE",
"220 0 LINE"
);
}
);
width = 402;
},
{
background = {
paths = (
{
closed = 1;
nodes = (
"350 0 LINE",
"350 668 LINE",
"235 668 LINE",
"199 578 OFFCURVE",
"152 571 OFFCURVE",
"47 571 CURVE",
"47 448 LINE",
"199 448 LINE",
"199 0 LINE"
);
}
);
};
layerId = "61B80AC7-60CB-49DF-8181-735FACBD9F63";
paths = (
{
closed = 1;
nodes = (
"350 0 LINE",
"350 668 LINE",
"235 668 LINE",
"199 578 OFFCURVE",
"152 571 OFFCURVE",
"47 571 CURVE",
"47 448 LINE",
"199 448 LINE",
"199 0 LINE"
);
}
);
width = 448;
}
);
unicode = 0031;
},
{
glyphname = two;
lastChange = "2021-04-13 17:47:49 +0000";
layers = (
{
background = {
paths = (
{
closed = 1;
nodes = (
"515 0 LINE",
"515 77 LINE",
"147 77 LINE",
"334 212 OFFCURVE",
"497 350 OFFCURVE",
"497 505 CURVE SMOOTH",
"497 617 OFFCURVE",
"408 680 OFFCURVE",
"285 680 CURVE SMOOTH",
"167 680 OFFCURVE",
"83 619 OFFCURVE",
"59 522 CURVE",
"143 498 LINE",
"159 579 OFFCURVE",
"220 610 OFFCURVE",
"283 610 CURVE SMOOTH",
"362 610 OFFCURVE",
"408 563 OFFCURVE",
"408 494 CURVE SMOOTH",
"408 376 OFFCURVE",
"270 249 OFFCURVE",
"34 75 CURVE",
"34 0 LINE"
);
}
);
};
layerId = "04EC68FF-C98D-4D46-AE83-08D67BD50805";
paths = (
{
closed = 1;
nodes = (
"515 0 LINE",
"515 77 LINE",
"147 77 LINE",
"334 212 OFFCURVE",
"497 350 OFFCURVE",
"497 505 CURVE SMOOTH",
"497 617 OFFCURVE",
"408 680 OFFCURVE",
"285 680 CURVE SMOOTH",
"167 680 OFFCURVE",
"83 619 OFFCURVE",
"59 522 CURVE",
"143 498 LINE",
"159 579 OFFCURVE",
"220 610 OFFCURVE",
"283 610 CURVE SMOOTH",
"362 610 OFFCURVE",
"408 563 OFFCURVE",
"408 494 CURVE SMOOTH",
"408 376 OFFCURVE",
"270 249 OFFCURVE",
"34 75 CURVE",
"34 0 LINE"
);
}
);
width = 549;
},
{
background = {
paths = (
{
closed = 1;
nodes = (
"547 0 LINE",
"547 125 LINE",
"228 125 LINE",
"424 239 OFFCURVE",
"544 350 OFFCURVE",
"544 485 CURVE SMOOTH",
"544 610 OFFCURVE",
"442 680 OFFCURVE",
"306 680 CURVE SMOOTH",
"188 680 OFFCURVE",
"95 628 OFFCURVE",
"59 535 CURVE",
"197 485 LINE",
"212 547 OFFCURVE",
"257 567 OFFCURVE",
"299 567 CURVE SMOOTH",
"348 567 OFFCURVE",
"391 540 OFFCURVE",
"391 488 CURVE SMOOTH",
"391 375 OFFCURVE",
"190 235 OFFCURVE",
"77 156 CURVE SMOOTH",
"34 125 LINE",
"34 0 LINE"
);
}
);
};
layerId = "61B80AC7-60CB-49DF-8181-735FACBD9F63";
paths = (
{
closed = 1;
nodes = (
"547 0 LINE",
"547 125 LINE",
"228 125 LINE",
"424 239 OFFCURVE",
"544 350 OFFCURVE",
"544 485 CURVE SMOOTH",
"544 610 OFFCURVE",
"442 680 OFFCURVE",
"306 680 CURVE SMOOTH",
"188 680 OFFCURVE",
"95 628 OFFCURVE",
"59 535 CURVE",
"197 485 LINE",
"212 547 OFFCURVE",
"257 567 OFFCURVE",
"299 567 CURVE SMOOTH",
"348 567 OFFCURVE",
"391 540 OFFCURVE",
"391 488 CURVE SMOOTH",
"391 375 OFFCURVE",
"190 235 OFFCURVE",
"77 156 CURVE SMOOTH",
"34 125 LINE",
"34 0 LINE"
);
}
);
width = 586;
}
);
unicode = 0032;
},
{
glyphname = three;
lastChange = "2021-04-13 17:47:49 +0000";
layers = (
{
background = {
paths = (
{
closed = 1;
nodes = (
"399 -12 OFFCURVE",
"514 53 OFFCURVE",
"514 188 CURVE SMOOTH",
"514 258 OFFCURVE",
"486 324 OFFCURVE",
"386 355 CURVE",
"456 384 OFFCURVE",
"495 442 OFFCURVE",
"495 510 CURVE SMOOTH",
"495 634 OFFCURVE",
"395 680 OFFCURVE",
"279 680 CURVE SMOOTH",
"156 680 OFFCURVE",
"76 617 OFFCURVE",
"52 522 CURVE",
"134 498 LINE",
"147 564 OFFCURVE",
"195 610 OFFCURVE",
"277 610 CURVE SMOOTH",
"348 610 OFFCURVE",
"407 573 OFFCURVE",
"407 501 CURVE SMOOTH",
"407 396 OFFCURVE",
"293 390 OFFCURVE",
"218 390 CURVE",
"218 314 LINE",
"271 314 OFFCURVE",
"424 315 OFFCURVE",
"424 187 CURVE SMOOTH",
"424 104 OFFCURVE",
"361 58 OFFCURVE",
"273 58 CURVE SMOOTH",
"188 58 OFFCURVE",
"140 105 OFFCURVE",
"125 175 CURVE",
"42 151 LINE",
"65 60 OFFCURVE",
"137 -12 OFFCURVE",
"272 -12 CURVE SMOOTH"
);
}
);
};
layerId = "04EC68FF-C98D-4D46-AE83-08D67BD50805";
paths = (
{
closed = 1;
nodes = (
"399 -12 OFFCURVE",
"514 53 OFFCURVE",
"514 188 CURVE SMOOTH",
"514 258 OFFCURVE",
"486 324 OFFCURVE",
"386 355 CURVE",
"456 384 OFFCURVE",
"495 442 OFFCURVE",
"495 510 CURVE SMOOTH",
"495 634 OFFCURVE",
"395 680 OFFCURVE",
"279 680 CURVE SMOOTH",
"156 680 OFFCURVE",
"76 617 OFFCURVE",
"52 522 CURVE",
"134 498 LINE",
"147 564 OFFCURVE",
"195 610 OFFCURVE",
"277 610 CURVE SMOOTH",
"348 610 OFFCURVE",
"407 573 OFFCURVE",
"407 501 CURVE SMOOTH",
"407 396 OFFCURVE",
"293 390 OFFCURVE",
"218 390 CURVE",
"218 314 LINE",
"271 314 OFFCURVE",
"424 315 OFFCURVE",
"424 187 CURVE SMOOTH",
"424 104 OFFCURVE",
"361 58 OFFCURVE",
"273 58 CURVE SMOOTH",
"188 58 OFFCURVE",
"140 105 OFFCURVE",
"125 175 CURVE",
"42 151 LINE",
"65 60 OFFCURVE",
"137 -12 OFFCURVE",
"272 -12 CURVE SMOOTH"
);
}
);
width = 574;
},
{
background = {
paths = (
{
closed = 1;
nodes = (
"428 -12 OFFCURVE",
"554 56 OFFCURVE",
"554 195 CURVE",
"554 256 OFFCURVE",
"516 327 OFFCURVE",
"450 352 CURVE",
"497 379 OFFCURVE",
"543 435 OFFCURVE",
"543 507 CURVE SMOOTH",
"543 627 OFFCURVE",
"417 680 OFFCURVE",
"295 680 CURVE SMOOTH",
"185 680 OFFCURVE",
"79 637 OFFCURVE",
"40 535 CURVE",
"177 485 LINE",
"190 546 OFFCURVE",
"237 567 OFFCURVE",
"286 567 CURVE",
"341 567 OFFCURVE",
"390 541 OFFCURVE",
"390 489 CURVE SMOOTH",
"390 430 OFFCURVE",
"326 397 OFFCURVE",
"211 397 CURVE",
"211 291 LINE",
"311 291 OFFCURVE",
"398 270 OFFCURVE",
"398 188 CURVE SMOOTH",
"398 133 OFFCURVE",
"358 101 OFFCURVE",
"295 101 CURVE SMOOTH",
"240 101 OFFCURVE",
"188 125 OFFCURVE",
"171 190 CURVE",
"33 140 LINE",
"74 34 OFFCURVE",
"178 -12 OFFCURVE",
"291 -12 CURVE SMOOTH"
);
}
);
};
layerId = "61B80AC7-60CB-49DF-8181-735FACBD9F63";
paths = (
{
closed = 1;
nodes = (
"428 -12 OFFCURVE",
"554 56 OFFCURVE",
"554 195 CURVE",
"554 256 OFFCURVE",
"516 327 OFFCURVE",
"450 352 CURVE",
"497 379 OFFCURVE",
"543 435 OFFCURVE",
"543 507 CURVE SMOOTH",
"543 627 OFFCURVE",
"417 680 OFFCURVE",
"295 680 CURVE SMOOTH",
"185 680 OFFCURVE",
"79 637 OFFCURVE",
"40 535 CURVE",
"177 485 LINE",
"190 546 OFFCURVE",
"237 567 OFFCURVE",
"286 567 CURVE",
"341 567 OFFCURVE",
"390 541 OFFCURVE",
"390 489 CURVE SMOOTH",
"390 430 OFFCURVE",
"326 397 OFFCURVE",
"211 397 CURVE",
"211 291 LINE",
"311 291 OFFCURVE",
"398 270 OFFCURVE",
"398 188 CURVE SMOOTH",
"398 133 OFFCURVE",
"358 101 OFFCURVE",
"295 101 CURVE SMOOTH",
"240 101 OFFCURVE",
"188 125 OFFCURVE",
"171 190 CURVE",
"33 140 LINE",
"74 34 OFFCURVE",
"178 -12 OFFCURVE",
"291 -12 CURVE SMOOTH"
);
}
);
width = 605;
}
);
unicode = 0033;
},
{
glyphname = four;
lastChange = "2021-04-13 17:47:49 +0000";
layers = (
{
background = {
paths = (
{
closed = 1;
nodes = (
"454 0 LINE",
"454 165 LINE",
"576 165 LINE",
"576 244 LINE",
"454 244 LINE",
"454 668 LINE",
"369 668 LINE",
"38 244 LINE",
"38 165 LINE",
"370 165 LINE",
"370 0 LINE"
);
},
{
closed = 1;
nodes = (
"370 553 LINE",
"370 244 LINE",
"129 244 LINE"
);
}
);
};
layerId = "04EC68FF-C98D-4D46-AE83-08D67BD50805";
paths = (
{
closed = 1;
nodes = (
"454 0 LINE",
"454 165 LINE",
"576 165 LINE",
"576 244 LINE",
"454 244 LINE",
"454 668 LINE",
"369 668 LINE",
"38 244 LINE",
"38 165 LINE",
"370 165 LINE",
"370 0 LINE"
);
},
{
closed = 1;
nodes = (
"370 553 LINE",
"370 244 LINE",
"129 244 LINE"
);
}
);
width = 614;
},
{
background = {
paths = (
{
closed = 1;
nodes = (
"500 0 LINE",
"500 141 LINE",
"592 141 LINE",
"592 275 LINE",
"500 275 LINE",
"500 668 LINE",
"348 668 LINE",
"23 252 LINE",
"23 141 LINE",
"348 141 LINE",
"348 0 LINE"
);
},
{
closed = 1;
nodes = (
"348 469 LINE",
"348 275 LINE",
"188 275 LINE"
);
}
);
};
layerId = "61B80AC7-60CB-49DF-8181-735FACBD9F63";
paths = (
{
closed = 1;
nodes = (
"500 0 LINE",
"500 141 LINE",
"592 141 LINE",
"592 275 LINE",
"500 275 LINE",
"500 668 LINE",
"348 668 LINE",
"23 252 LINE",
"23 141 LINE",
"348 141 LINE",
"348 0 LINE"
);
},
{
closed = 1;
nodes = (
"348 469 LINE",
"348 275 LINE",
"188 275 LINE"
);
}
);
width = 626;
}
);
unicode = 0034;
},
{
glyphname = five;
lastChange = "2021-04-13 17:47:49 +0000";
layers = (
{
background = {
paths = (
{
closed = 1;
nodes = (
"408 -12 OFFCURVE",
"521 67 OFFCURVE",
"521 220 CURVE SMOOTH",
"521 367 OFFCURVE",
"419 450 OFFCURVE",
"302 450 CURVE SMOOTH",
"247 450 OFFCURVE",
"193 434 OFFCURVE",
"158 400 CURVE",
"181 587 LINE",
"496 587 LINE",
"496 668 LINE",
"113 668 LINE",
"72 328 LINE",
"154 304 LINE",
"168 337 OFFCURVE",
"214 378 OFFCURVE",
"283 378 CURVE SMOOTH",
"355 378 OFFCURVE",
"433 330 OFFCURVE",
"433 219 CURVE SMOOTH",
"433 116 OFFCURVE",
"364 58 OFFCURVE",
"284 58 CURVE SMOOTH",
"197 58 OFFCURVE",
"152 102 OFFCURVE",
"136 175 CURVE",
"54 151 LINE",
"79 61 OFFCURVE",
"149 -12 OFFCURVE",
"284 -12 CURVE SMOOTH"
);
}
);
};
layerId = "04EC68FF-C98D-4D46-AE83-08D67BD50805";
paths = (
{
closed = 1;
nodes = (
"408 -12 OFFCURVE",
"521 67 OFFCURVE",
"521 220 CURVE SMOOTH",
"521 367 OFFCURVE",
"419 450 OFFCURVE",
"302 450 CURVE SMOOTH",
"247 450 OFFCURVE",
"193 434 OFFCURVE",
"158 400 CURVE",
"181 587 LINE",
"496 587 LINE",
"496 668 LINE",
"113 668 LINE",
"72 328 LINE",
"154 304 LINE",
"168 337 OFFCURVE",
"214 378 OFFCURVE",
"283 378 CURVE SMOOTH",
"355 378 OFFCURVE",
"433 330 OFFCURVE",
"433 219 CURVE SMOOTH",
"433 116 OFFCURVE",
"364 58 OFFCURVE",
"284 58 CURVE SMOOTH",
"197 58 OFFCURVE",
"152 102 OFFCURVE",
"136 175 CURVE",
"54 151 LINE",
"79 61 OFFCURVE",
"149 -12 OFFCURVE",
"284 -12 CURVE SMOOTH"
);
}
);
width = 583;
},
{
background = {
paths = (
{
closed = 1;
nodes = (
"439 -12 OFFCURVE",
"565 68 OFFCURVE",
"565 221 CURVE",
"565 376 OFFCURVE",
"450 454 OFFCURVE",
"331 454 CURVE",
"284 454 OFFCURVE",
"229 441 OFFCURVE",
"198 419 CURVE",
"213 544 LINE",
"534 544 LINE",
"534 668 LINE",
"87 668 LINE",
"45 326 LINE",
"180 276 LINE",
"203 318 OFFCURVE",
"241 341 OFFCURVE",
"290 341 CURVE SMOOTH",
"352 341 OFFCURVE",
"408 303 OFFCURVE",
"408 221 CURVE SMOOTH",
"408 143 OFFCURVE",
"357 101 OFFCURVE",
"287 101 CURVE SMOOTH",
"238 101 OFFCURVE",
"192 122 OFFCURVE",
"173 187 CURVE",
"41 139 LINE",
"83 40 OFFCURVE",
"179 -12 OFFCURVE",
"295 -12 CURVE SMOOTH"
);
}
);
};
layerId = "61B80AC7-60CB-49DF-8181-735FACBD9F63";
paths = (
{
closed = 1;
nodes = (
"439 -12 OFFCURVE",
"565 68 OFFCURVE",
"565 221 CURVE",
"565 376 OFFCURVE",
"450 454 OFFCURVE",
"331 454 CURVE",
"284 454 OFFCURVE",
"229 441 OFFCURVE",
"198 419 CURVE",
"213 544 LINE",
"534 544 LINE",
"534 668 LINE",
"87 668 LINE",
"45 326 LINE",
"180 276 LINE",
"203 318 OFFCURVE",
"241 341 OFFCURVE",
"290 341 CURVE SMOOTH",
"352 341 OFFCURVE",
"408 303 OFFCURVE",
"408 221 CURVE SMOOTH",
"408 143 OFFCURVE",
"357 101 OFFCURVE",
"287 101 CURVE SMOOTH",
"238 101 OFFCURVE",
"192 122 OFFCURVE",
"173 187 CURVE",
"41 139 LINE",
"83 40 OFFCURVE",
"179 -12 OFFCURVE",
"295 -12 CURVE SMOOTH"
);
}
);
width = 612;
}
);
unicode = 0035;
},
{
glyphname = six;
lastChange = "2021-04-13 17:47:49 +0000";
layers = (
{
background = {
paths = (
{
closed = 1;
nodes = (
"446 -12 OFFCURVE",
"538 94 OFFCURVE",
"538 218 CURVE SMOOTH",
"538 352 OFFCURVE",
"447 445 OFFCURVE",
"323 445 CURVE SMOOTH",
"234 445 OFFCURVE",
"177 404 OFFCURVE",
"147 352 CURVE",
"151 507 OFFCURVE",
"207 610 OFFCURVE",
"311 610 CURVE SMOOTH",
"364 610 OFFCURVE",
"404 587 OFFCURVE",
"424 548 CURVE",
"509 573 LINE",
"480 633 OFFCURVE",
"420 680 OFFCURVE",
"321 680 CURVE SMOOTH",
"127 680 OFFCURVE",
"60 499 OFFCURVE",
"60 310 CURVE SMOOTH",
"60 104 OFFCURVE",
"136 -12 OFFCURVE",
"303 -12 CURVE SMOOTH"
);
},
{
closed = 1;
nodes = (
"214 59 OFFCURVE",
"157 123 OFFCURVE",
"157 215 CURVE SMOOTH",
"157 307 OFFCURVE",
"214 371 OFFCURVE",
"303 371 CURVE SMOOTH",
"391 371 OFFCURVE",
"448 307 OFFCURVE",
"448 215 CURVE SMOOTH",
"448 123 OFFCURVE",
"391 59 OFFCURVE",
"303 59 CURVE SMOOTH"
);
}
);
};
layerId = "04EC68FF-C98D-4D46-AE83-08D67BD50805";
paths = (
{
closed = 1;
nodes = (
"446 -12 OFFCURVE",
"538 94 OFFCURVE",
"538 218 CURVE SMOOTH",
"538 352 OFFCURVE",
"447 445 OFFCURVE",
"323 445 CURVE SMOOTH",
"234 445 OFFCURVE",
"177 404 OFFCURVE",
"147 352 CURVE",
"151 507 OFFCURVE",
"207 610 OFFCURVE",
"311 610 CURVE SMOOTH",
"364 610 OFFCURVE",
"404 587 OFFCURVE",
"424 548 CURVE",
"509 573 LINE",
"480 633 OFFCURVE",
"420 680 OFFCURVE",
"321 680 CURVE SMOOTH",
"127 680 OFFCURVE",
"60 499 OFFCURVE",
"60 310 CURVE SMOOTH",
"60 104 OFFCURVE",
"136 -12 OFFCURVE",
"303 -12 CURVE SMOOTH"
);
},
{
closed = 1;
nodes = (
"214 59 OFFCURVE",
"157 123 OFFCURVE",
"157 215 CURVE SMOOTH",
"157 307 OFFCURVE",
"214 371 OFFCURVE",
"303 371 CURVE SMOOTH",
"391 371 OFFCURVE",
"448 307 OFFCURVE",
"448 215 CURVE SMOOTH",
"448 123 OFFCURVE",
"391 59 OFFCURVE",
"303 59 CURVE SMOOTH"
);
}
);
width = 598;
},
{
background = {
paths = (
{
closed = 1;
nodes = (
"472 -12 OFFCURVE",
"581 78 OFFCURVE",
"581 217 CURVE SMOOTH",
"581 355 OFFCURVE",
"473 452 OFFCURVE",
"353 452 CURVE",
"287 452 OFFCURVE",
"243 433 OFFCURVE",
"210 403 CURVE",
"210 517 OFFCURVE",
"259 570 OFFCURVE",
"330 570 CURVE SMOOTH",
"365 570 OFFCURVE",
"395 557 OFFCURVE",
"408 534 CURVE",
"544 583 LINE",
"509 641 OFFCURVE",
"441 680 OFFCURVE",
"340 680 CURVE SMOOTH",
"133 680 OFFCURVE",
"51 514 OFFCURVE",
"51 322 CURVE SMOOTH",
"51 133 OFFCURVE",
"130 -12 OFFCURVE",
"321 -12 CURVE SMOOTH"
);
},
{
closed = 1;
nodes = (
"254 101 OFFCURVE",
"212 148 OFFCURVE",
"212 220 CURVE SMOOTH",
"212 292 OFFCURVE",
"255 338 OFFCURVE",
"319 338 CURVE SMOOTH",
"385 338 OFFCURVE",
"425 289 OFFCURVE",
"425 219 CURVE SMOOTH",
"425 148 OFFCURVE",
"385 101 OFFCURVE",
"320 101 CURVE"
);
}
);
};
layerId = "61B80AC7-60CB-49DF-8181-735FACBD9F63";
paths = (
{
closed = 1;
nodes = (
"472 -12 OFFCURVE",
"581 78 OFFCURVE",
"581 217 CURVE SMOOTH",
"581 355 OFFCURVE",
"473 452 OFFCURVE",
"353 452 CURVE",
"287 452 OFFCURVE",
"243 433 OFFCURVE",
"210 403 CURVE",
"210 517 OFFCURVE",
"259 570 OFFCURVE",
"330 570 CURVE SMOOTH",
"365 570 OFFCURVE",
"395 557 OFFCURVE",
"408 534 CURVE",
"544 583 LINE",
"509 641 OFFCURVE",
"441 680 OFFCURVE",
"340 680 CURVE SMOOTH",
"133 680 OFFCURVE",
"51 514 OFFCURVE",
"51 322 CURVE SMOOTH",
"51 133 OFFCURVE",
"130 -12 OFFCURVE",
"321 -12 CURVE SMOOTH"
);
},
{
closed = 1;
nodes = (
"254 101 OFFCURVE",
"212 148 OFFCURVE",
"212 220 CURVE SMOOTH",
"212 292 OFFCURVE",
"255 338 OFFCURVE",
"319 338 CURVE SMOOTH",
"385 338 OFFCURVE",
"425 289 OFFCURVE",
"425 219 CURVE SMOOTH",
"425 148 OFFCURVE",
"385 101 OFFCURVE",
"320 101 CURVE"
);
}
);
width = 632;
}
);
unicode = 0036;
},
{
glyphname = seven;
lastChange = "2021-04-13 17:47:49 +0000";
layers = (
{
background = {
paths = (
{
closed = 1;
nodes = (
"198 0 LINE",
"476 587 LINE",
"476 668 LINE",
"15 668 LINE",
"15 587 LINE",
"383 587 LINE",
"93 0 LINE"
);
}
);
};
layerId = "04EC68FF-C98D-4D46-AE83-08D67BD50805";
paths = (
{
closed = 1;
nodes = (
"198 0 LINE",
"476 587 LINE",
"476 668 LINE",
"15 668 LINE",
"15 587 LINE",
"383 587 LINE",
"93 0 LINE"
);
}
);
width = 510;
},
{
background = {
paths = (
{
closed = 1;
nodes = (
"258 0 LINE",
"515 543 LINE",
"515 668 LINE",
"15 668 LINE",
"15 543 LINE",
"354 543 LINE",
"83 0 LINE"
);
}
);
};
layerId = "61B80AC7-60CB-49DF-8181-735FACBD9F63";
paths = (
{
closed = 1;
nodes = (
"258 0 LINE",
"515 543 LINE",
"515 668 LINE",
"15 668 LINE",
"15 543 LINE",
"354 543 LINE",
"83 0 LINE"
);
}
);
width = 543;
}
);
unicode = 0037;
},
{
glyphname = eight;
lastChange = "2021-04-13 17:47:49 +0000";
layers = (
{
background = {
paths = (
{
closed = 1;
nodes = (
"447 -12 OFFCURVE",
"555 60 OFFCURVE",
"555 188 CURVE SMOOTH",
"555 274 OFFCURVE",
"506 336 OFFCURVE",
"432 366 CURVE",
"467 399 OFFCURVE",
"489 446 OFFCURVE",
"489 499 CURVE SMOOTH",
"489 599 OFFCURVE",
"408 680 OFFCURVE",
"307 680 CURVE SMOOTH",
"207 680 OFFCURVE",
"126 599 OFFCURVE",
"126 499 CURVE SMOOTH",
"126 446 OFFCURVE",
"148 399 OFFCURVE",
"183 366 CURVE",
"109 336 OFFCURVE",
"60 274 OFFCURVE",
"60 188 CURVE SMOOTH",
"60 60 OFFCURVE",
"168 -12 OFFCURVE",
"307 -12 CURVE SMOOTH"
);
},
{
closed = 1;
nodes = (
"212 62 OFFCURVE",
"151 110 OFFCURVE",
"151 188 CURVE SMOOTH",
"151 266 OFFCURVE",
"212 317 OFFCURVE",
"307 317 CURVE SMOOTH",
"403 317 OFFCURVE",
"464 266 OFFCURVE",
"464 188 CURVE SMOOTH",
"464 110 OFFCURVE",
"403 62 OFFCURVE",
"307 62 CURVE SMOOTH"
);
},
{
closed = 1;
nodes = (
"248 391 OFFCURVE",
"200 439 OFFCURVE",
"200 500 CURVE SMOOTH",
"200 559 OFFCURVE",
"248 606 OFFCURVE",
"307 606 CURVE SMOOTH",
"366 606 OFFCURVE",
"414 559 OFFCURVE",
"414 500 CURVE SMOOTH",
"414 439 OFFCURVE",
"366 391 OFFCURVE",
"307 391 CURVE SMOOTH"
);
}
);
};
layerId = "04EC68FF-C98D-4D46-AE83-08D67BD50805";
paths = (
{
closed = 1;
nodes = (
"447 -12 OFFCURVE",
"555 60 OFFCURVE",
"555 188 CURVE SMOOTH",
"555 274 OFFCURVE",
"506 336 OFFCURVE",
"432 366 CURVE",
"467 399 OFFCURVE",
"489 446 OFFCURVE",
"489 499 CURVE SMOOTH",
"489 599 OFFCURVE",
"408 680 OFFCURVE",
"307 680 CURVE SMOOTH",
"207 680 OFFCURVE",
"126 599 OFFCURVE",
"126 499 CURVE SMOOTH",
"126 446 OFFCURVE",
"148 399 OFFCURVE",
"183 366 CURVE",
"109 336 OFFCURVE",
"60 274 OFFCURVE",
"60 188 CURVE SMOOTH",
"60 60 OFFCURVE",
"168 -12 OFFCURVE",
"307 -12 CURVE SMOOTH"
);
},
{
closed = 1;
nodes = (
"212 62 OFFCURVE",
"151 110 OFFCURVE",
"151 188 CURVE SMOOTH",
"151 266 OFFCURVE",
"212 317 OFFCURVE",
"307 317 CURVE SMOOTH",
"403 317 OFFCURVE",
"464 266 OFFCURVE",
"464 188 CURVE SMOOTH",
"464 110 OFFCURVE",
"403 62 OFFCURVE",
"307 62 CURVE SMOOTH"
);
},
{
closed = 1;
nodes = (
"248 391 OFFCURVE",
"200 439 OFFCURVE",
"200 500 CURVE SMOOTH",
"200 559 OFFCURVE",
"248 606 OFFCURVE",
"307 606 CURVE SMOOTH",
"366 606 OFFCURVE",
"414 559 OFFCURVE",
"414 500 CURVE SMOOTH",
"414 439 OFFCURVE",
"366 391 OFFCURVE",
"307 391 CURVE SMOOTH"
);
}
);
width = 615;
},
{
background = {
paths = (
{
closed = 1;
nodes = (
"469 -12 OFFCURVE",
"587 65 OFFCURVE",
"587 206 CURVE SMOOTH",
"587 288 OFFCURVE",
"547 336 OFFCURVE",
"472 378 CURVE",
"493 409 OFFCURVE",
"505 446 OFFCURVE",
"505 487 CURVE SMOOTH",
"505 593 OFFCURVE",
"427 680 OFFCURVE",
"313 680 CURVE SMOOTH",
"199 680 OFFCURVE",
"120 593 OFFCURVE",
"120 487 CURVE SMOOTH",
"120 446 OFFCURVE",
"132 409 OFFCURVE",
"152 377 CURVE",
"77 336 OFFCURVE",
"38 288 OFFCURVE",
"38 207 CURVE SMOOTH",
"38 65 OFFCURVE",
"156 -12 OFFCURVE",
"313 -12 CURVE SMOOTH"
);
},
{
closed = 1;
nodes = (
"243 114 OFFCURVE",
"195 151 OFFCURVE",
"195 206 CURVE SMOOTH",
"195 262 OFFCURVE",
"243 294 OFFCURVE",
"313 294 CURVE SMOOTH",
"381 294 OFFCURVE",
"430 262 OFFCURVE",
"430 206 CURVE SMOOTH",
"430 152 OFFCURVE",
"381 114 OFFCURVE",
"313 114 CURVE"
);
},
{
closed = 1;
nodes = (
"275 417 OFFCURVE",
"244 448 OFFCURVE",
"244 486 CURVE SMOOTH",
"244 525 OFFCURVE",
"275 555 OFFCURVE",
"313 555 CURVE SMOOTH",
"351 555 OFFCURVE",
"380 525 OFFCURVE",
"380 486 CURVE SMOOTH",
"380 448 OFFCURVE",
"350 417 OFFCURVE",
"313 417 CURVE SMOOTH"
);
}
);
};
layerId = "61B80AC7-60CB-49DF-8181-735FACBD9F63";
paths = (
{
closed = 1;
nodes = (
"469 -12 OFFCURVE",
"587 65 OFFCURVE",
"587 206 CURVE SMOOTH",
"587 288 OFFCURVE",
"547 336 OFFCURVE",
"472 378 CURVE",
"493 409 OFFCURVE",
"505 446 OFFCURVE",
"505 487 CURVE SMOOTH",
"505 593 OFFCURVE",
"427 680 OFFCURVE",
"313 680 CURVE SMOOTH",
"199 680 OFFCURVE",
"120 593 OFFCURVE",
"120 487 CURVE SMOOTH",
"120 446 OFFCURVE",
"132 409 OFFCURVE",
"152 377 CURVE",
"77 336 OFFCURVE",
"38 288 OFFCURVE",
"38 207 CURVE SMOOTH",
"38 65 OFFCURVE",
"156 -12 OFFCURVE",
"313 -12 CURVE SMOOTH"
);
},
{
closed = 1;
nodes = (
"243 114 OFFCURVE",
"195 151 OFFCURVE",
"195 206 CURVE SMOOTH",
"195 262 OFFCURVE",
"243 294 OFFCURVE",
"313 294 CURVE SMOOTH",
"381 294 OFFCURVE",
"430 262 OFFCURVE",
"430 206 CURVE SMOOTH",
"430 152 OFFCURVE",
"381 114 OFFCURVE",
"313 114 CURVE"
);
},
{
closed = 1;
nodes = (
"275 417 OFFCURVE",
"244 448 OFFCURVE",
"244 486 CURVE SMOOTH",
"244 525 OFFCURVE",
"275 555 OFFCURVE",
"313 555 CURVE SMOOTH",
"351 555 OFFCURVE",
"380 525 OFFCURVE",
"380 486 CURVE SMOOTH",
"380 448 OFFCURVE",
"350 417 OFFCURVE",
"313 417 CURVE SMOOTH"
);
}
);
width = 625;
}
);
unicode = 0038;
},
{
glyphname = nine;
lastChange = "2021-04-13 17:47:49 +0000";
layers = (
{
background = {
paths = (
{
closed = 1;
nodes = (
"317 0 LINE",
"419 150 OFFCURVE",
"507 315 OFFCURVE",
"520 348 CURVE SMOOTH",
"532 378 OFFCURVE",
"538 409 OFFCURVE",
"538 439 CURVE SMOOTH",
"538 528 OFFCURVE",
"490 614 OFFCURVE",
"405 655 CURVE SMOOTH",
"371 672 OFFCURVE",
"335 679 OFFCURVE",
"299 679 CURVE SMOOTH",
"210 679 OFFCURVE",
"125 630 OFFCURVE",
"84 545 CURVE SMOOTH",
"68 512 OFFCURVE",
"60 476 OFFCURVE",
"60 441 CURVE SMOOTH",
"60 352 OFFCURVE",
"109 267 OFFCURVE",
"194 226 CURVE SMOOTH",
"228 209 OFFCURVE",
"264 201 OFFCURVE",
"299 201 CURVE SMOOTH",
"318 201 OFFCURVE",
"335 203 OFFCURVE",
"352 207 CURVE",
"297 116 OFFCURVE",
"213 0 OFFCURVE",
"213 0 CURVE"
);
},
{
closed = 1;
nodes = (
"214 287 OFFCURVE",
"146 356 OFFCURVE",
"146 441 CURVE SMOOTH",
"146 525 OFFCURVE",
"214 594 OFFCURVE",
"299 594 CURVE SMOOTH",
"385 594 OFFCURVE",
"454 525 OFFCURVE",
"454 441 CURVE SMOOTH",
"454 356 OFFCURVE",
"385 287 OFFCURVE",
"299 287 CURVE SMOOTH"
);
}
);
};
layerId = "04EC68FF-C98D-4D46-AE83-08D67BD50805";
paths = (
{
closed = 1;
nodes = (
"317 0 LINE",
"419 150 OFFCURVE",
"507 315 OFFCURVE",
"520 348 CURVE SMOOTH",
"532 378 OFFCURVE",
"538 409 OFFCURVE",
"538 439 CURVE SMOOTH",
"538 528 OFFCURVE",
"490 614 OFFCURVE",
"405 655 CURVE SMOOTH",
"371 672 OFFCURVE",
"335 679 OFFCURVE",
"299 679 CURVE SMOOTH",
"210 679 OFFCURVE",
"125 630 OFFCURVE",
"84 545 CURVE SMOOTH",
"68 512 OFFCURVE",
"60 476 OFFCURVE",
"60 441 CURVE SMOOTH",
"60 352 OFFCURVE",
"109 267 OFFCURVE",
"194 226 CURVE SMOOTH",
"228 209 OFFCURVE",
"264 201 OFFCURVE",
"299 201 CURVE SMOOTH",
"318 201 OFFCURVE",
"335 203 OFFCURVE",
"352 207 CURVE",
"297 116 OFFCURVE",
"213 0 OFFCURVE",
"213 0 CURVE"
);
},
{
closed = 1;
nodes = (
"214 287 OFFCURVE",
"146 356 OFFCURVE",
"146 441 CURVE SMOOTH",
"146 525 OFFCURVE",
"214 594 OFFCURVE",
"299 594 CURVE SMOOTH",
"385 594 OFFCURVE",
"454 525 OFFCURVE",
"454 441 CURVE SMOOTH",
"454 356 OFFCURVE",
"385 287 OFFCURVE",
"299 287 CURVE SMOOTH"
);
}
);
width = 598;
},
{
background = {
paths = (
{
closed = 1;
nodes = (
"330 0 LINE",
"492 335 LINE SMOOTH",
"508 369 OFFCURVE",
"516 404 OFFCURVE",
"516 439 CURVE SMOOTH",
"516 571 OFFCURVE",
"407 679 OFFCURVE",
"275 679 CURVE SMOOTH",
"144 679 OFFCURVE",
"38 572 OFFCURVE",
"38 441 CURVE SMOOTH",
"38 307 OFFCURVE",
"146 202 OFFCURVE",
"278 202 CURVE",
"170 0 LINE"
);
},
{
closed = 1;
nodes = (
"225 335 OFFCURVE",
"178 376 OFFCURVE",
"173 431 CURVE SMOOTH",
"173 440 LINE SMOOTH",
"173 493 OFFCURVE",
"213 539 OFFCURVE",
"268 544 CURVE SMOOTH",
"277 544 LINE SMOOTH",
"330 544 OFFCURVE",
"375 504 OFFCURVE",
"381 450 CURVE SMOOTH",
"381 445 LINE SMOOTH",
"382 443 OFFCURVE",
"382 441 OFFCURVE",
"382 439 CURVE SMOOTH",
"382 382 OFFCURVE",
"335 335 OFFCURVE",
"278 335 CURVE SMOOTH"
);
}
);
};
layerId = "61B80AC7-60CB-49DF-8181-735FACBD9F63";
paths = (
{
closed = 1;
nodes = (
"330 0 LINE",
"492 335 LINE SMOOTH",
"508 369 OFFCURVE",
"516 404 OFFCURVE",
"516 439 CURVE SMOOTH",
"516 571 OFFCURVE",
"407 679 OFFCURVE",
"275 679 CURVE SMOOTH",
"144 679 OFFCURVE",
"38 572 OFFCURVE",
"38 441 CURVE SMOOTH",
"38 307 OFFCURVE",
"146 202 OFFCURVE",
"278 202 CURVE",
"170 0 LINE"
);
},
{
closed = 1;
nodes = (
"225 335 OFFCURVE",
"178 376 OFFCURVE",
"173 431 CURVE SMOOTH",
"173 440 LINE SMOOTH",
"173 493 OFFCURVE",
"213 539 OFFCURVE",
"268 544 CURVE SMOOTH",
"277 544 LINE SMOOTH",
"330 544 OFFCURVE",
"375 504 OFFCURVE",
"381 450 CURVE SMOOTH",
"381 445 LINE SMOOTH",
"382 443 OFFCURVE",
"382 441 OFFCURVE",
"382 439 CURVE SMOOTH",
"382 382 OFFCURVE",
"335 335 OFFCURVE",
"278 335 CURVE SMOOTH"
);
}
);
width = 561;
}
);
unicode = 0039;
},
{
color = (153,254,255,255);
glyphname = A;
lastChange = "2021-04-13 17:47:49 +0000";
layers = (
{
background = {
paths = (
{
closed = 1;
nodes = (
"110 0 LINE",
"161 146 LINE",
"465 146 LINE",
"516 0 LINE",
"616 0 LINE",
"366 669 LINE",
"261 669 LINE",
"10 0 LINE"
);
},
{
closed = 1;
nodes = (
"313 574 LINE",
"436 227 LINE",
"190 227 LINE"
);
}
);
};
layerId = "04EC68FF-C98D-4D46-AE83-08D67BD50805";
paths = (
{
closed = 1;
nodes = (
"110 0 LINE",
"161 146 LINE",
"465 146 LINE",
"516 0 LINE",
"616 0 LINE",
"366 669 LINE",
"261 669 LINE",
"10 0 LINE"
);
},
{
closed = 1;
nodes = (
"313 574 LINE",
"436 227 LINE",
"190 227 LINE"
);
}
);
width = 626;
},
{
background = {
paths = (
{
closed = 1;
nodes = (
"177 0 LINE",
"217 119 LINE",
"473 119 LINE",
"513 0 LINE",
"685 0 LINE",
"432 668 LINE",
"258 668 LINE",
"5 0 LINE"
);
},
{
closed = 1;
nodes = (
"344 501 LINE",
"430 247 LINE",
"260 247 LINE"
);
}
);
};
layerId = "61B80AC7-60CB-49DF-8181-735FACBD9F63";
paths = (
{
closed = 1;
nodes = (
"177 0 LINE",
"217 119 LINE",
"473 119 LINE",
"513 0 LINE",
"685 0 LINE",
"432 668 LINE",
"258 668 LINE",
"5 0 LINE"
);
},
{
closed = 1;
nodes = (
"344 501 LINE",
"430 247 LINE",
"260 247 LINE"
);
}
);
width = 690;
}
);
leftKerningGroup = A1;
rightKerningGroup = A_2;
unicode = 0041;
},
{
color = (153,254,255,255);
glyphname = B;
lastChange = "2021-04-13 17:47:49 +0000";
layers = (
{
background = {
paths = (
{
closed = 1;
nodes = (
"361 0 LINE SMOOTH",
"507 0 OFFCURVE",
"581 96 OFFCURVE",
"581 192 CURVE SMOOTH",
"581 256 OFFCURVE",
"548 320 OFFCURVE",
"482 355 CURVE",
"527 393 OFFCURVE",
"552 449 OFFCURVE",
"552 502 CURVE SMOOTH",
"552 587 OFFCURVE",
"490 668 OFFCURVE",
"345 668 CURVE SMOOTH",
"76 668 LINE",
"76 0 LINE"
);
},
{
closed = 1;
nodes = (
"170 308 LINE",
"370 308 LINE SMOOTH",
"446 308 OFFCURVE",
"484 252 OFFCURVE",
"484 195 CURVE SMOOTH",
"484 137 OFFCURVE",
"445 79 OFFCURVE",
"371 79 CURVE SMOOTH",
"170 79 LINE"
);
},
{
closed = 1;
nodes = (
"170 589 LINE",
"355 589 LINE SMOOTH",
"422 589 OFFCURVE",
"457 536 OFFCURVE",
"457 484 CURVE SMOOTH",
"457 433 OFFCURVE",
"423 382 OFFCURVE",
"355 382 CURVE SMOOTH",
"170 382 LINE"
);
}
);
};
layerId = "04EC68FF-C98D-4D46-AE83-08D67BD50805";
paths = (
{
closed = 1;
nodes = (
"361 0 LINE SMOOTH",
"507 0 OFFCURVE",
"581 96 OFFCURVE",
"581 192 CURVE SMOOTH",
"581 256 OFFCURVE",
"548 320 OFFCURVE",
"482 355 CURVE",
"527 393 OFFCURVE",
"552 449 OFFCURVE",
"552 502 CURVE SMOOTH",
"552 587 OFFCURVE",
"490 668 OFFCURVE",
"345 668 CURVE SMOOTH",
"76 668 LINE",
"76 0 LINE"
);
},
{
closed = 1;
nodes = (
"170 308 LINE",
"370 308 LINE SMOOTH",
"446 308 OFFCURVE",
"484 252 OFFCURVE",
"484 195 CURVE SMOOTH",
"484 137 OFFCURVE",
"445 79 OFFCURVE",
"371 79 CURVE SMOOTH",
"170 79 LINE"
);
},
{
closed = 1;
nodes = (
"170 589 LINE",
"355 589 LINE SMOOTH",
"422 589 OFFCURVE",
"457 536 OFFCURVE",
"457 484 CURVE SMOOTH",
"457 433 OFFCURVE",
"423 382 OFFCURVE",
"355 382 CURVE SMOOTH",
"170 382 LINE"
);
}
);
width = 619;
},
{
background = {
paths = (
{
closed = 1;
nodes = (
"347 0 LINE SMOOTH",
"509 0 OFFCURVE",
"617 56 OFFCURVE",
"617 206 CURVE SMOOTH",
"617 287 OFFCURVE",
"573 334 OFFCURVE",
"511 355 CURVE",
"561 386 OFFCURVE",
"590 433 OFFCURVE",
"590 494 CURVE SMOOTH",
"590 634 OFFCURVE",
"481 668 OFFCURVE",
"336 668 CURVE",
"44 668 LINE",
"44 0 LINE"
);
},
{
closed = 1;
nodes = (
"202 282 LINE",
"348 282 LINE SMOOTH",
"416 282 OFFCURVE",
"450 254 OFFCURVE",
"450 207 CURVE SMOOTH",
"450 160 OFFCURVE",
"416 131 OFFCURVE",
"348 131 CURVE",
"202 131 LINE"
);
},
{
closed = 1;
nodes = (
"202 539 LINE",
"341 539 LINE SMOOTH",
"394 539 OFFCURVE",
"426 514 OFFCURVE",
"426 472 CURVE SMOOTH",
"426 431 OFFCURVE",
"394 404 OFFCURVE",
"341 404 CURVE",
"202 404 LINE"
);
}
);
};
layerId = "61B80AC7-60CB-49DF-8181-735FACBD9F63";
paths = (
{
closed = 1;
nodes = (
"347 0 LINE SMOOTH",
"509 0 OFFCURVE",
"617 56 OFFCURVE",
"617 206 CURVE SMOOTH",
"617 287 OFFCURVE",
"573 334 OFFCURVE",
"511 355 CURVE",
"561 386 OFFCURVE",
"590 433 OFFCURVE",
"590 494 CURVE SMOOTH",
"590 634 OFFCURVE",
"481 668 OFFCURVE",
"336 668 CURVE",
"44 668 LINE",
"44 0 LINE"
);
},
{
closed = 1;
nodes = (
"202 282 LINE",
"348 282 LINE SMOOTH",
"416 282 OFFCURVE",
"450 254 OFFCURVE",
"450 207 CURVE SMOOTH",
"450 160 OFFCURVE",
"416 131 OFFCURVE",
"348 131 CURVE",
"202 131 LINE"
);
},
{
closed = 1;
nodes = (
"202 539 LINE",
"341 539 LINE SMOOTH",
"394 539 OFFCURVE",
"426 514 OFFCURVE",
"426 472 CURVE SMOOTH",
"426 431 OFFCURVE",
"394 404 OFFCURVE",
"341 404 CURVE",
"202 404 LINE"
);
}
);
width = 639;
}
);
leftKerningGroup = B;
leftMetricsKey = H;
rightMetricsKey = "=H/2";
unicode = 0042;
},
{
color = (153,254,255,255);
glyphname = C;
lastChange = "2021-04-13 17:47:49 +0000";
layers = (
{
background = {
paths = (
{
closed = 1;
nodes = (
"471 -12 OFFCURVE",
"570 40 OFFCURVE",
"618 139 CURVE",
"536 169 LINE",
"505 108 OFFCURVE",
"446 67 OFFCURVE",
"359 67 CURVE SMOOTH",
"234 67 OFFCURVE",
"146 167 OFFCURVE",
"146 335 CURVE SMOOTH",
"146 509 OFFCURVE",
"238 601 OFFCURVE",
"356 601 CURVE SMOOTH",
"443 601 OFFCURVE",
"502 559 OFFCURVE",
"532 499 CURVE",
"614 529 LINE",
"568 626 OFFCURVE",
"473 680 OFFCURVE",
"361 680 CURVE SMOOTH",
"172 680 OFFCURVE",
"50 543 OFFCURVE",
"50 335 CURVE SMOOTH",
"50 132 OFFCURVE",
"162 -12 OFFCURVE",
"353 -12 CURVE SMOOTH"
);
}
);
};
layerId = "04EC68FF-C98D-4D46-AE83-08D67BD50805";
paths = (
{
closed = 1;
nodes = (
"471 -12 OFFCURVE",
"570 40 OFFCURVE",
"618 139 CURVE",
"536 169 LINE",
"505 108 OFFCURVE",
"446 67 OFFCURVE",
"359 67 CURVE SMOOTH",
"234 67 OFFCURVE",
"146 167 OFFCURVE",
"146 335 CURVE SMOOTH",
"146 509 OFFCURVE",
"238 601 OFFCURVE",
"356 601 CURVE SMOOTH",
"443 601 OFFCURVE",
"502 559 OFFCURVE",
"532 499 CURVE",
"614 529 LINE",
"568 626 OFFCURVE",
"473 680 OFFCURVE",
"361 680 CURVE SMOOTH",
"172 680 OFFCURVE",
"50 543 OFFCURVE",
"50 335 CURVE SMOOTH",
"50 132 OFFCURVE",
"162 -12 OFFCURVE",
"353 -12 CURVE SMOOTH"
);
}
);
width = 656;
},
{
background = {
paths = (
{
closed = 1;
nodes = (
"495 -12 OFFCURVE",
"597 47 OFFCURVE",
"651 142 CURVE",
"512 193 LINE",
"481 135 OFFCURVE",
"420 118 OFFCURVE",
"370 118 CURVE SMOOTH",
"275 118 OFFCURVE",
"202 194 OFFCURVE",
"202 334 CURVE SMOOTH",
"202 470 OFFCURVE",
"275 550 OFFCURVE",
"368 550 CURVE SMOOTH",
"422 550 OFFCURVE",
"477 528 OFFCURVE",
"507 474 CURVE",
"647 525 LINE",
"596 619 OFFCURVE",
"499 680 OFFCURVE",
"373 680 CURVE SMOOTH",
"166 680 OFFCURVE",
"35 545 OFFCURVE",
"35 334 CURVE SMOOTH",
"35 121 OFFCURVE",
"161 -12 OFFCURVE",
"369 -12 CURVE SMOOTH"
);
}
);
};
layerId = "61B80AC7-60CB-49DF-8181-735FACBD9F63";
paths = (
{
closed = 1;
nodes = (
"495 -12 OFFCURVE",
"597 47 OFFCURVE",
"651 142 CURVE",
"512 193 LINE",
"481 135 OFFCURVE",
"420 118 OFFCURVE",
"370 118 CURVE SMOOTH",
"275 118 OFFCURVE",
"202 194 OFFCURVE",
"202 334 CURVE SMOOTH",
"202 470 OFFCURVE",
"275 550 OFFCURVE",
"368 550 CURVE SMOOTH",
"422 550 OFFCURVE",
"477 528 OFFCURVE",
"507 474 CURVE",
"647 525 LINE",
"596 619 OFFCURVE",
"499 680 OFFCURVE",
"373 680 CURVE SMOOTH",
"166 680 OFFCURVE",
"35 545 OFFCURVE",
"35 334 CURVE SMOOTH",
"35 121 OFFCURVE",
"161 -12 OFFCURVE",
"369 -12 CURVE SMOOTH"
);
}
);
width = 673;
}
);
leftKerningGroup = C;
leftMetricsKey = O;
rightKerningGroup = C_2;
rightMetricsKey = "=H/2";
unicode = 0043;
},
{
color = (153,254,255,255);
glyphname = D;
lastChange = "2021-04-13 17:47:49 +0000";
layers = (
{
background = {
paths = (
{
closed = 1;
nodes = (
"258 0 LINE SMOOTH",
"470 0 OFFCURVE",
"623 79 OFFCURVE",
"623 335 CURVE SMOOTH",
"623 589 OFFCURVE",
"470 668 OFFCURVE",
"258 668 CURVE SMOOTH",
"76 668 LINE",
"76 0 LINE"
);
},
{
closed = 1;
nodes = (
"170 589 LINE",
"256 589 LINE SMOOTH",
"394 589 OFFCURVE",
"527 561 OFFCURVE",
"527 335 CURVE SMOOTH",
"527 107 OFFCURVE",
"394 79 OFFCURVE",
"256 79 CURVE SMOOTH",
"170 79 LINE"
);
}
);
};
layerId = "04EC68FF-C98D-4D46-AE83-08D67BD50805";
paths = (
{
closed = 1;
nodes = (
"258 0 LINE SMOOTH",
"470 0 OFFCURVE",
"623 79 OFFCURVE",
"623 335 CURVE SMOOTH",
"623 589 OFFCURVE",
"470 668 OFFCURVE",
"258 668 CURVE SMOOTH",
"76 668 LINE",
"76 0 LINE"
);
},
{
closed = 1;
nodes = (
"170 589 LINE",
"256 589 LINE SMOOTH",
"394 589 OFFCURVE",
"527 561 OFFCURVE",
"527 335 CURVE SMOOTH",
"527 107 OFFCURVE",
"394 79 OFFCURVE",
"256 79 CURVE SMOOTH",
"170 79 LINE"
);
}
);
width = 673;
},
{
background = {
paths = (
{
closed = 1;
nodes = (
"264 0 LINE SMOOTH",
"482 0 OFFCURVE",
"651 79 OFFCURVE",
"651 334 CURVE SMOOTH",
"651 588 OFFCURVE",
"482 668 OFFCURVE",
"264 668 CURVE",
"44 668 LINE",
"44 0 LINE"
);
},
{
closed = 1;
nodes = (
"202 537 LINE",
"267 537 LINE SMOOTH",
"382 537 OFFCURVE",
"488 510 OFFCURVE",
"488 334 CURVE SMOOTH",
"488 158 OFFCURVE",
"382 133 OFFCURVE",
"267 133 CURVE SMOOTH",
"202 133 LINE"
);
}
);
};
layerId = "61B80AC7-60CB-49DF-8181-735FACBD9F63";
paths = (
{
closed = 1;
nodes = (
"264 0 LINE SMOOTH",
"482 0 OFFCURVE",
"651 79 OFFCURVE",
"651 334 CURVE SMOOTH",
"651 588 OFFCURVE",
"482 668 OFFCURVE",
"264 668 CURVE",
"44 668 LINE",
"44 0 LINE"
);
},
{
closed = 1;
nodes = (
"202 537 LINE",
"267 537 LINE SMOOTH",
"382 537 OFFCURVE",
"488 510 OFFCURVE",
"488 334 CURVE SMOOTH",
"488 158 OFFCURVE",
"382 133 OFFCURVE",
"267 133 CURVE SMOOTH",
"202 133 LINE"
);
}
);
width = 686;
}
);
leftKerningGroup = B;
leftMetricsKey = H;
rightKerningGroup = D;
rightMetricsKey = O;
unicode = 0044;
},
{
color = (153,254,255,255);
glyphname = E;
lastChange = "2021-04-13 17:47:49 +0000";
layers = (
{
background = {
paths = (
{
closed = 1;
nodes = (
"529 0 LINE",
"529 81 LINE",
"170 81 LINE",
"170 303 LINE",
"435 303 LINE",
"435 384 LINE",
"170 384 LINE",
"170 587 LINE",
"529 587 LINE",
"529 668 LINE",
"76 668 LINE",
"76 0 LINE"
);
}
);
};
layerId = "04EC68FF-C98D-4D46-AE83-08D67BD50805";
paths = (
{
closed = 1;
nodes = (
"529 0 LINE",
"529 81 LINE",
"170 81 LINE",
"170 303 LINE",
"435 303 LINE",
"435 384 LINE",
"170 384 LINE",
"170 587 LINE",
"529 587 LINE",
"529 668 LINE",
"76 668 LINE",
"76 0 LINE"
);
}
);
width = 567;
},
{
background = {
paths = (
{
closed = 1;
nodes = (
"558 0 LINE",
"558 139 LINE",
"202 139 LINE",
"202 274 LINE",
"419 274 LINE",
"419 413 LINE",
"202 413 LINE",
"202 529 LINE",
"558 529 LINE",
"558 668 LINE",
"44 668 LINE",
"44 0 LINE"
);
}
);
};
layerId = "61B80AC7-60CB-49DF-8181-735FACBD9F63";
paths = (
{
closed = 1;
nodes = (
"558 0 LINE",
"558 139 LINE",
"202 139 LINE",
"202 274 LINE",
"419 274 LINE",
"419 413 LINE",
"202 413 LINE",
"202 529 LINE",
"558 529 LINE",
"558 668 LINE",
"44 668 LINE",
"44 0 LINE"
);
}
);
width = 580;
}
);
leftKerningGroup = B;
leftMetricsKey = H;
rightKerningGroup = E;
rightMetricsKey = "=H/2";
unicode = 0045;
},
{
color = (153,254,255,255);
glyphname = F;
lastChange = "2021-04-13 17:47:49 +0000";
layers = (
{
background = {
paths = (
{
closed = 1;
nodes = (
"170 0 LINE",
"170 303 LINE",
"510 303 LINE",
"510 384 LINE",
"170 384 LINE",
"170 587 LINE",
"510 587 LINE",
"510 668 LINE",
"76 668 LINE",
"76 0 LINE"
);
}
);
};
layerId = "04EC68FF-C98D-4D46-AE83-08D67BD50805";
paths = (
{
closed = 1;
nodes = (
"170 0 LINE",
"170 303 LINE",
"510 303 LINE",
"510 384 LINE",
"170 384 LINE",
"170 587 LINE",
"510 587 LINE",
"510 668 LINE",
"76 668 LINE",
"76 0 LINE"
);
}
);
width = 548;
},
{
background = {
paths = (
{
closed = 1;
nodes = (
"202 0 LINE",
"202 274 LINE",
"522 274 LINE",
"522 413 LINE",
"202 413 LINE",
"202 529 LINE",
"522 529 LINE",
"522 668 LINE",
"44 668 LINE",
"44 0 LINE"
);
}
);
};
layerId = "61B80AC7-60CB-49DF-8181-735FACBD9F63";
paths = (
{
closed = 1;
nodes = (
"202 0 LINE",
"202 274 LINE",
"522 274 LINE",
"522 413 LINE",
"202 413 LINE",
"202 529 LINE",
"522 529 LINE",
"522 668 LINE",
"44 668 LINE",
"44 0 LINE"
);
}
);
width = 544;
}
);
leftKerningGroup = B;
leftMetricsKey = H;
rightMetricsKey = "=H/2";
unicode = 0046;
},
{
color = (153,254,255,255);
glyphname = G;
lastChange = "2021-04-13 17:47:49 +0000";
layers = (
{
background = {
paths = (
{
closed = 1;
nodes = (
"442 -12 OFFCURVE",
"520 16 OFFCURVE",
"563 84 CURVE",
"588 0 LINE",
"642 0 LINE",
"642 345 LINE",
"358 345 LINE",
"358 264 LINE",
"553 264 LINE",
"553 242 LINE SMOOTH",
"553 104 OFFCURVE",
"445 67 OFFCURVE",
"356 67 CURVE SMOOTH",
"232 67 OFFCURVE",
"146 167 OFFCURVE",
"146 335 CURVE SMOOTH",
"146 509 OFFCURVE",
"238 601 OFFCURVE",
"356 601 CURVE SMOOTH",
"443 601 OFFCURVE",
"502 559 OFFCURVE",
"532 499 CURVE",
"615 529 LINE",
"568 626 OFFCURVE",
"473 680 OFFCURVE",
"361 680 CURVE SMOOTH",
"172 680 OFFCURVE",
"50 543 OFFCURVE",
"50 335 CURVE SMOOTH",
"50 132 OFFCURVE",
"160 -12 OFFCURVE",
"352 -12 CURVE SMOOTH"
);
}
);
};
layerId = "04EC68FF-C98D-4D46-AE83-08D67BD50805";
paths = (
{
closed = 1;
nodes = (
"442 -12 OFFCURVE",
"520 16 OFFCURVE",
"563 84 CURVE",
"588 0 LINE",
"642 0 LINE",
"642 345 LINE",
"358 345 LINE",
"358 264 LINE",
"553 264 LINE",
"553 242 LINE SMOOTH",
"553 104 OFFCURVE",
"445 67 OFFCURVE",
"356 67 CURVE SMOOTH",
"232 67 OFFCURVE",
"146 167 OFFCURVE",
"146 335 CURVE SMOOTH",
"146 509 OFFCURVE",
"238 601 OFFCURVE",
"356 601 CURVE SMOOTH",
"443 601 OFFCURVE",
"502 559 OFFCURVE",
"532 499 CURVE",
"615 529 LINE",
"568 626 OFFCURVE",
"473 680 OFFCURVE",
"361 680 CURVE SMOOTH",
"172 680 OFFCURVE",
"50 543 OFFCURVE",
"50 335 CURVE SMOOTH",
"50 132 OFFCURVE",
"160 -12 OFFCURVE",
"352 -12 CURVE SMOOTH"
);
}
);
width = 710;
},
{
background = {
paths = (
{
closed = 1;
nodes = (
"448 -12 OFFCURVE",
"514 16 OFFCURVE",
"557 74 CURVE",
"579 0 LINE",
"683 0 LINE",
"683 378 LINE",
"375 378 LINE",
"375 250 LINE",
"525 250 LINE",
"525 231 LINE SMOOTH",
"525 146 OFFCURVE",
"449 118 OFFCURVE",
"376 118 CURVE SMOOTH",
"272 118 OFFCURVE",
"202 196 OFFCURVE",
"202 336 CURVE SMOOTH",
"202 477 OFFCURVE",
"278 550 OFFCURVE",
"373 550 CURVE SMOOTH",
"442 550 OFFCURVE",
"486 521 OFFCURVE",
"508 486 CURVE",
"644 542 LINE",
"591 633 OFFCURVE",
"492 680 OFFCURVE",
"375 680 CURVE SMOOTH",
"173 680 OFFCURVE",
"35 547 OFFCURVE",
"35 336 CURVE SMOOTH",
"35 123 OFFCURVE",
"156 -12 OFFCURVE",
"352 -12 CURVE SMOOTH"
);
}
);
};
layerId = "61B80AC7-60CB-49DF-8181-735FACBD9F63";
paths = (
{
closed = 1;
nodes = (
"448 -12 OFFCURVE",
"514 16 OFFCURVE",
"557 74 CURVE",
"579 0 LINE",
"683 0 LINE",
"683 378 LINE",
"375 378 LINE",
"375 250 LINE",
"525 250 LINE",
"525 231 LINE SMOOTH",
"525 146 OFFCURVE",
"449 118 OFFCURVE",
"376 118 CURVE SMOOTH",
"272 118 OFFCURVE",
"202 196 OFFCURVE",
"202 336 CURVE SMOOTH",
"202 477 OFFCURVE",
"278 550 OFFCURVE",
"373 550 CURVE SMOOTH",
"442 550 OFFCURVE",
"486 521 OFFCURVE",
"508 486 CURVE",
"644 542 LINE",
"591 633 OFFCURVE",
"492 680 OFFCURVE",
"375 680 CURVE SMOOTH",
"173 680 OFFCURVE",
"35 547 OFFCURVE",
"35 336 CURVE SMOOTH",
"35 123 OFFCURVE",
"156 -12 OFFCURVE",
"352 -12 CURVE SMOOTH"
);
}
);
width = 719;
}
);
leftKerningGroup = C;
leftMetricsKey = O;
unicode = 0047;
},
{
color = (153,254,255,255);
glyphname = H;
lastChange = "2021-04-13 17:47:49 +0000";
layers = (
{
background = {
paths = (
{
closed = 1;
nodes = (
"170 0 LINE",
"170 303 LINE",
"520 303 LINE",
"520 0 LINE",
"614 0 LINE",
"614 668 LINE",
"520 668 LINE",
"520 384 LINE",
"170 384 LINE",
"170 668 LINE",
"76 668 LINE",
"76 0 LINE"
);
}
);
};
guideLines = (
{
position = "{0, 224}";
showMeasurement = 1;
}
);
layerId = "04EC68FF-C98D-4D46-AE83-08D67BD50805";
paths = (
{
closed = 1;
nodes = (
"170 0 LINE",
"170 303 LINE",
"520 303 LINE",
"520 0 LINE",
"614 0 LINE",
"614 668 LINE",
"520 668 LINE",
"520 384 LINE",
"170 384 LINE",
"170 668 LINE",
"76 668 LINE",
"76 0 LINE"
);
}
);
width = 690;
},
{
background = {
paths = (
{
closed = 1;
nodes = (
"202 0 LINE",
"202 274 LINE",
"477 274 LINE",
"477 0 LINE",
"635 0 LINE",
"635 668 LINE",
"477 668 LINE",
"477 413 LINE",
"202 413 LINE",
"202 668 LINE",
"44 668 LINE",
"44 0 LINE"
);
}
);
};
layerId = "61B80AC7-60CB-49DF-8181-735FACBD9F63";
paths = (
{
closed = 1;
nodes = (
"202 0 LINE",
"202 274 LINE",
"477 274 LINE",
"477 0 LINE",
"635 0 LINE",
"635 668 LINE",
"477 668 LINE",
"477 413 LINE",
"202 413 LINE",
"202 668 LINE",
"44 668 LINE",
"44 0 LINE"
);
}
);
width = 679;
}
);
leftKerningGroup = B;
rightKerningGroup = H;
unicode = 0048;
},
{
color = (153,254,255,255);
glyphname = I;
lastChange = "2021-04-13 17:47:49 +0000";
layers = (
{
background = {
paths = (
{
closed = 1;
nodes = (
"348 0 LINE",
"348 74 LINE",
"254 74 LINE",
"254 594 LINE",
"348 594 LINE",
"348 668 LINE",
"66 668 LINE",
"66 594 LINE",
"160 594 LINE",
"160 74 LINE",
"66 74 LINE",
"66 0 LINE"
);
}
);
};
layerId = "04EC68FF-C98D-4D46-AE83-08D67BD50805";
paths = (
{
closed = 1;
nodes = (
"348 0 LINE",
"348 74 LINE",
"254 74 LINE",
"254 594 LINE",
"348 594 LINE",
"348 668 LINE",
"66 668 LINE",
"66 594 LINE",
"160 594 LINE",
"160 74 LINE",
"66 74 LINE",
"66 0 LINE"
);
}
);
width = 414;
},
{
background = {
paths = (
{
closed = 1;
nodes = (
"401 0 LINE",
"401 124 LINE",
"309 124 LINE",
"309 544 LINE",
"401 544 LINE",
"401 668 LINE",
"57 668 LINE",
"57 544 LINE",
"151 544 LINE",
"151 124 LINE",
"57 124 LINE",
"57 0 LINE"
);
}
);
};
layerId = "61B80AC7-60CB-49DF-8181-735FACBD9F63";
paths = (
{
closed = 1;
nodes = (
"401 0 LINE",
"401 124 LINE",
"309 124 LINE",
"309 544 LINE",
"401 544 LINE",
"401 668 LINE",
"57 668 LINE",
"57 544 LINE",
"151 544 LINE",
"151 124 LINE",
"57 124 LINE",
"57 0 LINE"
);
}
);
width = 458;
}
);
rightKerningGroup = I;
unicode = 0049;
},
{
color = (153,254,255,255);
glyphname = J;
lastChange = "2021-04-13 17:47:49 +0000";
layers = (
{
background = {
paths = (
{
closed = 1;
nodes = (
"355 -12 OFFCURVE",
"434 66 OFFCURVE",
"434 212 CURVE SMOOTH",
"434 668 LINE",
"340 668 LINE",
"340 213 LINE SMOOTH",
"340 92 OFFCURVE",
"278 65 OFFCURVE",
"224 65 CURVE SMOOTH",
"157 65 OFFCURVE",
"99 113 OFFCURVE",
"102 214 CURVE",
"15 189 LINE",
"21 56 OFFCURVE",
"99 -12 OFFCURVE",
"224 -12 CURVE SMOOTH"
);
}
);
};
layerId = "04EC68FF-C98D-4D46-AE83-08D67BD50805";
paths = (
{
closed = 1;
nodes = (
"355 -12 OFFCURVE",
"434 66 OFFCURVE",
"434 212 CURVE SMOOTH",
"434 668 LINE",
"340 668 LINE",
"340 213 LINE SMOOTH",
"340 92 OFFCURVE",
"278 65 OFFCURVE",
"224 65 CURVE SMOOTH",
"157 65 OFFCURVE",
"99 113 OFFCURVE",
"102 214 CURVE",
"15 189 LINE",
"21 56 OFFCURVE",
"99 -12 OFFCURVE",
"224 -12 CURVE SMOOTH"
);
}
);
width = 510;
},
{
background = {
paths = (
{
closed = 1;
nodes = (
"426 -12 OFFCURVE",
"516 89 OFFCURVE",
"516 256 CURVE SMOOTH",
"516 668 LINE",
"358 668 LINE",
"358 256 LINE SMOOTH",
"358 149 OFFCURVE",
"321 113 OFFCURVE",
"255 113 CURVE SMOOTH",
"192 113 OFFCURVE",
"161 171 OFFCURVE",
"150 228 CURVE",
"5 175 LINE",
"33 62 OFFCURVE",
"115 -12 OFFCURVE",
"255 -12 CURVE SMOOTH"
);
}
);
};
layerId = "61B80AC7-60CB-49DF-8181-735FACBD9F63";
paths = (
{
closed = 1;
nodes = (
"426 -12 OFFCURVE",
"516 89 OFFCURVE",
"516 256 CURVE SMOOTH",
"516 668 LINE",
"358 668 LINE",
"358 256 LINE SMOOTH",
"358 149 OFFCURVE",
"321 113 OFFCURVE",
"255 113 CURVE SMOOTH",
"192 113 OFFCURVE",
"161 171 OFFCURVE",
"150 228 CURVE",
"5 175 LINE",
"33 62 OFFCURVE",
"115 -12 OFFCURVE",
"255 -12 CURVE SMOOTH"
);
}
);
width = 560;
}
);
rightMetricsKey = H;
unicode = 004A;
},
{
color = (153,254,255,255);
glyphname = K;
lastChange = "2021-04-13 17:47:49 +0000";
layers = (
{
background = {
paths = (
{
closed = 1;
nodes = (
"170 0 LINE",
"170 210 LINE",
"270 320 LINE",
"502 0 LINE",
"617 0 LINE",
"333 389 LINE",
"588 668 LINE",
"471 668 LINE",
"170 332 LINE",
"170 668 LINE",
"76 668 LINE",
"76 0 LINE"
);
}
);
};
layerId = "04EC68FF-C98D-4D46-AE83-08D67BD50805";
paths = (
{
closed = 1;
nodes = (
"170 0 LINE",
"170 210 LINE",
"270 320 LINE",
"502 0 LINE",
"617 0 LINE",
"333 389 LINE",
"588 668 LINE",
"471 668 LINE",
"170 332 LINE",
"170 668 LINE",
"76 668 LINE",
"76 0 LINE"
);
}
);
width = 627;
},
{
background = {
paths = (
{
closed = 1;
nodes = (
"202 0 LINE",
"202 197 LINE",
"270 272 LINE",
"466 0 LINE",
"649 0 LINE",
"372 382 LINE",
"636 668 LINE",
"443 668 LINE",
"202 403 LINE",
"202 668 LINE",
"44 668 LINE",
"44 0 LINE"
);
}
);
};
layerId = "61B80AC7-60CB-49DF-8181-735FACBD9F63";
paths = (
{
closed = 1;
nodes = (
"202 0 LINE",
"202 197 LINE",
"270 272 LINE",
"466 0 LINE",
"649 0 LINE",
"372 382 LINE",
"636 668 LINE",
"443 668 LINE",
"202 403 LINE",
"202 668 LINE",
"44 668 LINE",
"44 0 LINE"
);
}
);
width = 659;
}
);
leftKerningGroup = B;
leftMetricsKey = H;
rightMetricsKey = V;
unicode = 004B;
},
{
color = (153,254,255,255);
glyphname = L;
lastChange = "2021-04-13 17:47:49 +0000";
layers = (
{
background = {
paths = (
{
closed = 1;
nodes = (
"529 0 LINE",
"529 81 LINE",
"170 81 LINE",
"170 668 LINE",
"76 668 LINE",
"76 0 LINE"
);
}
);
};
layerId = "04EC68FF-C98D-4D46-AE83-08D67BD50805";
paths = (
{
closed = 1;
nodes = (
"529 0 LINE",
"529 81 LINE",
"170 81 LINE",
"170 668 LINE",
"76 668 LINE",
"76 0 LINE"
);
}
);
width = 539;
},
{
background = {
paths = (
{
closed = 1;
nodes = (
"522 0 LINE",
"522 139 LINE",
"202 139 LINE",
"202 668 LINE",
"44 668 LINE",
"44 0 LINE"
);
}
);
};
layerId = "61B80AC7-60CB-49DF-8181-735FACBD9F63";
paths = (
{
closed = 1;
nodes = (
"522 0 LINE",
"522 139 LINE",
"202 139 LINE",
"202 668 LINE",
"44 668 LINE",
"44 0 LINE"
);
}
);
width = 537;
}
);
leftKerningGroup = B;
leftMetricsKey = H;
rightKerningGroup = L;
unicode = 004C;
},
{
color = (153,254,255,255);
glyphname = M;
lastChange = "2021-04-13 17:47:49 +0000";
layers = (
{
background = {
paths = (
{
closed = 1;
nodes = (
"170 0 LINE",
"170 570 LINE",
"364 0 LINE",
"457 0 LINE",
"650 570 LINE",
"650 0 LINE",
"744 0 LINE",
"744 668 LINE",
"588 668 LINE",
"410 122 LINE",
"232 668 LINE",
"76 668 LINE",
"76 0 LINE"
);
}
);
};
layerId = "04EC68FF-C98D-4D46-AE83-08D67BD50805";
paths = (
{
closed = 1;
nodes = (
"170 0 LINE",
"170 570 LINE",
"364 0 LINE",
"457 0 LINE",
"650 570 LINE",
"650 0 LINE",
"744 0 LINE",
"744 668 LINE",
"588 668 LINE",
"410 122 LINE",
"232 668 LINE",
"76 668 LINE",
"76 0 LINE"
);
}
);
width = 820;
},
{
background = {
paths = (
{
closed = 1;
nodes = (
"197 0 LINE",
"197 525 LINE",
"355 0 LINE",
"485 0 LINE",
"644 525 LINE",
"644 0 LINE",
"798 0 LINE",
"798 668 LINE",
"561 668 LINE",
"420 189 LINE",
"281 668 LINE",
"44 668 LINE",
"44 0 LINE"
);
}
);
};
layerId = "61B80AC7-60CB-49DF-8181-735FACBD9F63";
paths = (
{
closed = 1;
nodes = (
"197 0 LINE",
"197 525 LINE",
"355 0 LINE",
"485 0 LINE",
"644 525 LINE",
"644 0 LINE",
"798 0 LINE",
"798 668 LINE",
"561 668 LINE",
"420 189 LINE",
"281 668 LINE",
"44 668 LINE",
"44 0 LINE"
);
}
);
width = 842;
}
);
leftKerningGroup = B;
leftMetricsKey = H;
rightKerningGroup = H;
rightMetricsKey = H;
unicode = 004D;
},
{
color = (153,254,255,255);
glyphname = N;
lastChange = "2021-04-13 17:47:49 +0000";
layers = (
{
background = {
paths = (
{
closed = 1;
nodes = (
"170 0 LINE",
"170 571 LINE",
"475 0 LINE",
"613 0 LINE",
"613 668 LINE",
"519 668 LINE",
"519 100 LINE",
"215 668 LINE",
"76 668 LINE",
"76 0 LINE"
);
}
);
};
layerId = "04EC68FF-C98D-4D46-AE83-08D67BD50805";
paths = (
{
closed = 1;
nodes = (
"170 0 LINE",
"170 571 LINE",
"475 0 LINE",
"613 0 LINE",
"613 668 LINE",
"519 668 LINE",
"519 100 LINE",
"215 668 LINE",
"76 668 LINE",
"76 0 LINE"
);
}
);
width = 689;
},
{
background = {
paths = (
{
closed = 1;
nodes = (
"196 0 LINE",
"196 476 LINE",
"454 0 LINE",
"656 0 LINE",
"656 668 LINE",
"503 668 LINE",
"503 192 LINE",
"245 668 LINE",
"44 668 LINE",
"44 0 LINE"
);
}
);
};
layerId = "61B80AC7-60CB-49DF-8181-735FACBD9F63";
paths = (
{
closed = 1;
nodes = (
"196 0 LINE",
"196 476 LINE",
"454 0 LINE",
"656 0 LINE",
"656 668 LINE",
"503 668 LINE",
"503 192 LINE",
"245 668 LINE",
"44 668 LINE",
"44 0 LINE"
);
}
);
width = 700;
}
);
leftKerningGroup = B;
leftMetricsKey = H;
rightKerningGroup = H;
rightMetricsKey = H;
unicode = 004E;
},
{
color = (153,254,255,255);
glyphname = O;
lastChange = "2021-04-13 17:47:49 +0000";
layers = (
{
background = {
paths = (
{
closed = 1;
nodes = (
"556 -12 OFFCURVE",
"677 133 OFFCURVE",
"677 335 CURVE SMOOTH",
"677 536 OFFCURVE",
"556 680 OFFCURVE",
"363 680 CURVE SMOOTH",
"171 680 OFFCURVE",
"50 536 OFFCURVE",
"50 335 CURVE SMOOTH",
"50 133 OFFCURVE",
"171 -12 OFFCURVE",
"363 -12 CURVE SMOOTH"
);
},
{
closed = 1;
nodes = (
"242 67 OFFCURVE",
"146 162 OFFCURVE",
"146 335 CURVE SMOOTH",
"146 507 OFFCURVE",
"242 601 OFFCURVE",
"363 601 CURVE SMOOTH",
"485 601 OFFCURVE",
"581 507 OFFCURVE",
"581 335 CURVE SMOOTH",
"581 162 OFFCURVE",
"485 67 OFFCURVE",
"363 67 CURVE SMOOTH"
);
}
);
};
layerId = "04EC68FF-C98D-4D46-AE83-08D67BD50805";
paths = (
{
closed = 1;
nodes = (
"556 -12 OFFCURVE",
"677 133 OFFCURVE",
"677 335 CURVE SMOOTH",
"677 536 OFFCURVE",
"556 680 OFFCURVE",
"363 680 CURVE SMOOTH",
"171 680 OFFCURVE",
"50 536 OFFCURVE",
"50 335 CURVE SMOOTH",
"50 133 OFFCURVE",
"171 -12 OFFCURVE",
"363 -12 CURVE SMOOTH"
);
},
{
closed = 1;
nodes = (
"242 67 OFFCURVE",
"146 162 OFFCURVE",
"146 335 CURVE SMOOTH",
"146 507 OFFCURVE",
"242 601 OFFCURVE",
"363 601 CURVE SMOOTH",
"485 601 OFFCURVE",
"581 507 OFFCURVE",
"581 335 CURVE SMOOTH",
"581 162 OFFCURVE",
"485 67 OFFCURVE",
"363 67 CURVE SMOOTH"
);
}
);
width = 727;
},
{
background = {
paths = (
{
closed = 1;
nodes = (
"586 -12 OFFCURVE",
"729 126 OFFCURVE",
"729 334 CURVE SMOOTH",
"729 542 OFFCURVE",
"586 680 OFFCURVE",
"381 680 CURVE SMOOTH",
"176 680 OFFCURVE",
"35 542 OFFCURVE",
"35 334 CURVE SMOOTH",
"35 126 OFFCURVE",
"176 -12 OFFCURVE",
"381 -12 CURVE"
);
},
{
closed = 1;
nodes = (
"284 118 OFFCURVE",
"202 192 OFFCURVE",
"202 334 CURVE SMOOTH",
"202 476 OFFCURVE",
"284 550 OFFCURVE",
"381 550 CURVE SMOOTH",
"479 550 OFFCURVE",
"561 476 OFFCURVE",
"561 334 CURVE SMOOTH",
"561 192 OFFCURVE",
"479 118 OFFCURVE",
"381 118 CURVE SMOOTH"
);
}
);
};
layerId = "61B80AC7-60CB-49DF-8181-735FACBD9F63";
paths = (
{
closed = 1;
nodes = (
"586 -12 OFFCURVE",
"729 126 OFFCURVE",
"729 334 CURVE SMOOTH",
"729 542 OFFCURVE",
"586 680 OFFCURVE",
"381 680 CURVE SMOOTH",
"176 680 OFFCURVE",
"35 542 OFFCURVE",
"35 334 CURVE SMOOTH",
"35 126 OFFCURVE",
"176 -12 OFFCURVE",
"381 -12 CURVE"
);
},
{
closed = 1;
nodes = (
"284 118 OFFCURVE",
"202 192 OFFCURVE",
"202 334 CURVE SMOOTH",
"202 476 OFFCURVE",
"284 550 OFFCURVE",
"381 550 CURVE SMOOTH",
"479 550 OFFCURVE",
"561 476 OFFCURVE",
"561 334 CURVE SMOOTH",
"561 192 OFFCURVE",
"479 118 OFFCURVE",
"381 118 CURVE SMOOTH"
);
}
);
width = 764;
}
);
leftKerningGroup = C;
rightKerningGroup = D;
unicode = 004F;
},
{
color = (153,254,255,255);
glyphname = P;
lastChange = "2021-04-13 17:47:49 +0000";
layers = (
{
background = {
paths = (
{
closed = 1;
nodes = (
"170 1 LINE",
"170 266 LINE",
"285 266 LINE SMOOTH",
"448 266 OFFCURVE",
"563 301 OFFCURVE",
"563 466 CURVE SMOOTH",
"563 631 OFFCURVE",
"448 668 OFFCURVE",
"285 668 CURVE SMOOTH",
"76 668 LINE",
"76 1 LINE"
);
},
{
closed = 1;
nodes = (
"170 589 LINE",
"293 589 LINE SMOOTH",
"390 589 OFFCURVE",
"467 575 OFFCURVE",
"467 466 CURVE SMOOTH",
"467 357 OFFCURVE",
"390 347 OFFCURVE",
"293 347 CURVE SMOOTH",
"170 347 LINE"
);
}
);
};
layerId = "04EC68FF-C98D-4D46-AE83-08D67BD50805";
paths = (
{
closed = 1;
nodes = (
"170 1 LINE",
"170 266 LINE",
"285 266 LINE SMOOTH",
"448 266 OFFCURVE",
"563 301 OFFCURVE",
"563 466 CURVE SMOOTH",
"563 631 OFFCURVE",
"448 668 OFFCURVE",
"285 668 CURVE SMOOTH",
"76 668 LINE",
"76 1 LINE"
);
},
{
closed = 1;
nodes = (
"170 589 LINE",
"293 589 LINE SMOOTH",
"390 589 OFFCURVE",
"467 575 OFFCURVE",
"467 466 CURVE SMOOTH",
"467 357 OFFCURVE",
"390 347 OFFCURVE",
"293 347 CURVE SMOOTH",
"170 347 LINE"
);
}
);
width = 601;
},
{
background = {
paths = (
{
closed = 1;
nodes = (
"202 0 LINE",
"202 232 LINE",
"301 232 LINE SMOOTH",
"474 232 OFFCURVE",
"604 275 OFFCURVE",
"604 450 CURVE SMOOTH",
"604 625 OFFCURVE",
"474 668 OFFCURVE",
"301 668 CURVE",
"44 668 LINE",
"44 0 LINE"
);
},
{
closed = 1;
nodes = (
"202 535 LINE",
"306 535 LINE SMOOTH",
"379 535 OFFCURVE",
"437 520 OFFCURVE",
"437 450 CURVE SMOOTH",
"437 379 OFFCURVE",
"379 363 OFFCURVE",
"306 363 CURVE SMOOTH",
"202 363 LINE"
);
}
);
};
layerId = "61B80AC7-60CB-49DF-8181-735FACBD9F63";
paths = (
{
closed = 1;
nodes = (
"202 0 LINE",
"202 232 LINE",
"301 232 LINE SMOOTH",
"474 232 OFFCURVE",
"604 275 OFFCURVE",
"604 450 CURVE SMOOTH",
"604 625 OFFCURVE",
"474 668 OFFCURVE",
"301 668 CURVE",
"44 668 LINE",
"44 0 LINE"
);
},
{
closed = 1;
nodes = (
"202 535 LINE",
"306 535 LINE SMOOTH",
"379 535 OFFCURVE",
"437 520 OFFCURVE",
"437 450 CURVE SMOOTH",
"437 379 OFFCURVE",
"379 363 OFFCURVE",
"306 363 CURVE SMOOTH",
"202 363 LINE"
);
}
);
width = 626;
}
);
leftKerningGroup = B;
leftMetricsKey = H;
rightMetricsKey = "=H/2";
unicode = 0050;
},
{
color = (153,254,255,255);
glyphname = Q;
lastChange = "2021-04-13 17:47:49 +0000";
layers = (
{
background = {
paths = (
{
closed = 1;
nodes = (
"753 24 LINE",
"630 139 LINE",
"660 194 OFFCURVE",
"677 260 OFFCURVE",
"677 335 CURVE SMOOTH",
"677 536 OFFCURVE",
"556 680 OFFCURVE",
"363 680 CURVE SMOOTH",
"171 680 OFFCURVE",
"50 536 OFFCURVE",
"50 335 CURVE SMOOTH",
"50 133 OFFCURVE",
"171 -12 OFFCURVE",
"363 -12 CURVE SMOOTH",
"448 -12 OFFCURVE",
"520 16 OFFCURVE",
"572 65 CURVE",
"689 -44 LINE"
);
},
{
closed = 1;
nodes = (
"242 67 OFFCURVE",
"146 162 OFFCURVE",
"146 335 CURVE SMOOTH",
"146 507 OFFCURVE",
"242 601 OFFCURVE",
"363 601 CURVE SMOOTH",
"485 601 OFFCURVE",
"581 507 OFFCURVE",
"581 335 CURVE SMOOTH",
"581 285 OFFCURVE",
"573 242 OFFCURVE",
"559 206 CURVE",
"393 362 LINE",
"329 294 LINE",
"508 126 LINE",
"470 87 OFFCURVE",
"419 67 OFFCURVE",
"363 67 CURVE SMOOTH"
);
}
);
};
layerId = "04EC68FF-C98D-4D46-AE83-08D67BD50805";
paths = (
{
closed = 1;
nodes = (
"753 24 LINE",
"630 139 LINE",
"660 194 OFFCURVE",
"677 260 OFFCURVE",
"677 335 CURVE SMOOTH",
"677 536 OFFCURVE",
"556 680 OFFCURVE",
"363 680 CURVE SMOOTH",
"171 680 OFFCURVE",
"50 536 OFFCURVE",
"50 335 CURVE SMOOTH",
"50 133 OFFCURVE",
"171 -12 OFFCURVE",
"363 -12 CURVE SMOOTH",
"448 -12 OFFCURVE",
"520 16 OFFCURVE",
"572 65 CURVE",
"689 -44 LINE"
);
},
{
closed = 1;
nodes = (
"242 67 OFFCURVE",
"146 162 OFFCURVE",
"146 335 CURVE SMOOTH",
"146 507 OFFCURVE",
"242 601 OFFCURVE",
"363 601 CURVE SMOOTH",
"485 601 OFFCURVE",
"581 507 OFFCURVE",
"581 335 CURVE SMOOTH",
"581 285 OFFCURVE",
"573 242 OFFCURVE",
"559 206 CURVE",
"393 362 LINE",
"329 294 LINE",
"508 126 LINE",
"470 87 OFFCURVE",
"419 67 OFFCURVE",
"363 67 CURVE SMOOTH"
);
}
);
width = 753;
},
{
background = {
paths = (
{
closed = 1;
nodes = (
"781 34 LINE",
"674 135 LINE",
"709 189 OFFCURVE",
"729 257 OFFCURVE",
"729 334 CURVE SMOOTH",
"729 542 OFFCURVE",
"586 680 OFFCURVE",
"381 680 CURVE SMOOTH",
"176 680 OFFCURVE",
"35 542 OFFCURVE",
"35 334 CURVE SMOOTH",
"35 126 OFFCURVE",
"176 -12 OFFCURVE",
"381 -12 CURVE SMOOTH",
"462 -12 OFFCURVE",
"533 9 OFFCURVE",
"589 48 CURVE",
"698 -55 LINE"
);
},
{
closed = 1;
nodes = (
"284 118 OFFCURVE",
"202 192 OFFCURVE",
"202 334 CURVE SMOOTH",
"202 476 OFFCURVE",
"284 550 OFFCURVE",
"381 550 CURVE SMOOTH",
"479 550 OFFCURVE",
"561 476 OFFCURVE",
"561 334 CURVE",
"561 303 OFFCURVE",
"558 276 OFFCURVE",
"550 251 CURVE",
"421 372 LINE",
"338 285 LINE",
"481 149 LINE",
"453 129 OFFCURVE",
"418 118 OFFCURVE",
"381 118 CURVE SMOOTH"
);
}
);
};
layerId = "61B80AC7-60CB-49DF-8181-735FACBD9F63";
paths = (
{
closed = 1;
nodes = (
"781 34 LINE",
"674 135 LINE",
"709 189 OFFCURVE",
"729 257 OFFCURVE",
"729 334 CURVE SMOOTH",
"729 542 OFFCURVE",
"586 680 OFFCURVE",
"381 680 CURVE SMOOTH",
"176 680 OFFCURVE",
"35 542 OFFCURVE",
"35 334 CURVE SMOOTH",
"35 126 OFFCURVE",
"176 -12 OFFCURVE",
"381 -12 CURVE SMOOTH",
"462 -12 OFFCURVE",
"533 9 OFFCURVE",
"589 48 CURVE",
"698 -55 LINE"
);
},
{
closed = 1;
nodes = (
"284 118 OFFCURVE",
"202 192 OFFCURVE",
"202 334 CURVE SMOOTH",
"202 476 OFFCURVE",
"284 550 OFFCURVE",
"381 550 CURVE SMOOTH",
"479 550 OFFCURVE",
"561 476 OFFCURVE",
"561 334 CURVE",
"561 303 OFFCURVE",
"558 276 OFFCURVE",
"550 251 CURVE",
"421 372 LINE",
"338 285 LINE",
"481 149 LINE",
"453 129 OFFCURVE",
"418 118 OFFCURVE",
"381 118 CURVE SMOOTH"
);
}
);
width = 781;
}
);
leftKerningGroup = C;
leftMetricsKey = O;
unicode = 0051;
},
{
color = (153,254,255,255);
glyphname = R;
lastChange = "2021-04-13 17:47:49 +0000";
layers = (
{
background = {
paths = (
{
closed = 1;
nodes = (
"170 0 LINE",
"170 281 LINE",
"270 281 LINE",
"473 0 LINE",
"588 0 LINE",
"381 288 LINE",
"536 310 OFFCURVE",
"566 385 OFFCURVE",
"566 476 CURVE SMOOTH",
"566 636 OFFCURVE",
"451 668 OFFCURVE",
"288 668 CURVE SMOOTH",
"76 668 LINE",
"76 0 LINE"
);
},
{
closed = 1;
nodes = (
"170 589 LINE",
"295 589 LINE SMOOTH",
"393 589 OFFCURVE",
"470 577 OFFCURVE",
"470 474 CURVE SMOOTH",
"470 371 OFFCURVE",
"393 360 OFFCURVE",
"295 360 CURVE SMOOTH",
"170 360 LINE"
);
}
);
};
layerId = "04EC68FF-C98D-4D46-AE83-08D67BD50805";
paths = (
{
closed = 1;
nodes = (
"170 0 LINE",
"170 281 LINE",
"270 281 LINE",
"473 0 LINE",
"588 0 LINE",
"381 288 LINE",
"536 310 OFFCURVE",
"566 385 OFFCURVE",
"566 476 CURVE SMOOTH",
"566 636 OFFCURVE",
"451 668 OFFCURVE",
"288 668 CURVE SMOOTH",
"76 668 LINE",
"76 0 LINE"
);
},
{
closed = 1;
nodes = (
"170 589 LINE",
"295 589 LINE SMOOTH",
"393 589 OFFCURVE",
"470 577 OFFCURVE",
"470 474 CURVE SMOOTH",
"470 371 OFFCURVE",
"393 360 OFFCURVE",
"295 360 CURVE SMOOTH",
"170 360 LINE"
);
}
);
width = 618;
},
{
background = {
paths = (
{
closed = 1;
nodes = (
"202 0 LINE",
"202 252 LINE",
"273 252 LINE",
"454 0 LINE",
"637 0 LINE",
"443 269 LINE",
"570 303 OFFCURVE",
"604 385 OFFCURVE",
"604 461 CURVE SMOOTH",
"604 627 OFFCURVE",
"474 668 OFFCURVE",
"301 668 CURVE SMOOTH",
"44 668 LINE",
"44 0 LINE"
);
},
{
closed = 1;
nodes = (
"202 535 LINE",
"306 535 LINE SMOOTH",
"380 535 OFFCURVE",
"437 521 OFFCURVE",
"437 459 CURVE",
"437 397 OFFCURVE",
"380 384 OFFCURVE",
"306 384 CURVE",
"202 384 LINE"
);
}
);
};
layerId = "61B80AC7-60CB-49DF-8181-735FACBD9F63";
paths = (
{
closed = 1;
nodes = (
"202 0 LINE",
"202 252 LINE",
"273 252 LINE",
"454 0 LINE",
"637 0 LINE",
"443 269 LINE",
"570 303 OFFCURVE",
"604 385 OFFCURVE",
"604 461 CURVE SMOOTH",
"604 627 OFFCURVE",
"474 668 OFFCURVE",
"301 668 CURVE SMOOTH",
"44 668 LINE",
"44 0 LINE"
);
},
{
closed = 1;
nodes = (
"202 535 LINE",
"306 535 LINE SMOOTH",
"380 535 OFFCURVE",
"437 521 OFFCURVE",
"437 459 CURVE",
"437 397 OFFCURVE",
"380 384 OFFCURVE",
"306 384 CURVE",
"202 384 LINE"
);
}
);
width = 654;
}
);
leftKerningGroup = B;
leftMetricsKey = H;
rightKerningGroup = R;
unicode = 0052;
},
{
color = 5;
glyphname = S;
lastChange = "2021-04-13 17:48:31 +0000";
layers = (
{
background = {
paths = (
{
closed = 1;
nodes = (
"427 -12 OFFCURVE",
"556 58 OFFCURVE",
"556 182 CURVE SMOOTH",
"556 327 OFFCURVE",
"431 361 OFFCURVE",
"315 386 CURVE SMOOTH",
"224 405 OFFCURVE",
"143 422 OFFCURVE",
"143 497 CURVE SMOOTH",
"143 567 OFFCURVE",
"214 601 OFFCURVE",
"287 601 CURVE SMOOTH",
"348 601 OFFCURVE",
"411 577 OFFCURVE",
"437 530 CURVE",
"523 555 LINE",
"481 641 OFFCURVE",
"385 680 OFFCURVE",
"291 680 CURVE SMOOTH",
"168 680 OFFCURVE",
"46 614 OFFCURVE",
"46 501 CURVE SMOOTH",
"46 354 OFFCURVE",
"183 324 OFFCURVE",
"286 302 CURVE SMOOTH",
"413 276 OFFCURVE",
"457 246 OFFCURVE",
"457 186 CURVE SMOOTH",
"457 106 OFFCURVE",
"380 67 OFFCURVE",
"300 67 CURVE SMOOTH",
"227 67 OFFCURVE",
"150 100 OFFCURVE",
"127 172 CURVE",
"40 146 LINE",
"75 38 OFFCURVE",
"186 -12 OFFCURVE",
"296 -12 CURVE SMOOTH"
);
}
);
};
layerId = "04EC68FF-C98D-4D46-AE83-08D67BD50805";
paths = (
{
closed = 1;
nodes = (
"427 -12 OFFCURVE",
"556 58 OFFCURVE",
"556 182 CURVE SMOOTH",
"556 309 OFFCURVE",
"461 351 OFFCURVE",
"359 376 CURVE SMOOTH",
"286 392 LINE SMOOTH",
"208 409 OFFCURVE",
"143 430 OFFCURVE",
"143 497 CURVE SMOOTH",
"143 567 OFFCURVE",
"214 601 OFFCURVE",
"287 601 CURVE SMOOTH",
"348 601 OFFCURVE",
"411 577 OFFCURVE",
"437 530 CURVE",
"523 555 LINE",
"481 641 OFFCURVE",
"385 680 OFFCURVE",
"291 680 CURVE SMOOTH",
"168 680 OFFCURVE",
"46 614 OFFCURVE",
"46 501 CURVE SMOOTH",
"46 376 OFFCURVE",
"145 336 OFFCURVE",
"238 313 CURVE SMOOTH",
"323 294 LINE SMOOTH",
"422 269 OFFCURVE",
"457 240 OFFCURVE",
"457 186 CURVE SMOOTH",
"457 106 OFFCURVE",
"380 67 OFFCURVE",
"300 67 CURVE SMOOTH",
"227 67 OFFCURVE",
"150 100 OFFCURVE",
"127 172 CURVE",
"40 146 LINE",
"75 38 OFFCURVE",
"186 -12 OFFCURVE",
"296 -12 CURVE SMOOTH"
);
}
);
width = 596;
},
{
background = {
paths = (
{
closed = 1;
nodes = (
"452 -12 OFFCURVE",
"596 67 OFFCURVE",
"596 209 CURVE SMOOTH",
"596 347 OFFCURVE",
"464 381 OFFCURVE",
"356 403 CURVE SMOOTH",
"266 421 LINE SMOOTH",
"220 430 OFFCURVE",
"190 455 OFFCURVE",
"190 489 CURVE SMOOTH",
"190 530 OFFCURVE",
"236 553 OFFCURVE",
"297 553 CURVE SMOOTH",
"360 553 OFFCURVE",
"406 528 OFFCURVE",
"424 483 CURVE",
"567 535 LINE",
"525 638 OFFCURVE",
"419 680 OFFCURVE",
"311 680 CURVE SMOOTH",
"177 680 OFFCURVE",
"28 616 OFFCURVE",
"28 473 CURVE SMOOTH",
"28 359 OFFCURVE",
"122 306 OFFCURVE",
"231 285 CURVE SMOOTH",
"312 269 LINE SMOOTH",
"384 255 OFFCURVE",
"434 232 OFFCURVE",
"434 185 CURVE SMOOTH",
"434 133 OFFCURVE",
"372 115 OFFCURVE",
"315 115 CURVE SMOOTH",
"241 115 OFFCURVE",
"187 145 OFFCURVE",
"169 209 CURVE",
"25 157 LINE",
"66 50 OFFCURVE",
"168 -12 OFFCURVE",
"314 -12 CURVE SMOOTH"
);
}
);
};
layerId = "61B80AC7-60CB-49DF-8181-735FACBD9F63";
paths = (
{
closed = 1;
nodes = (
"452 -12 OFFCURVE",
"596 67 OFFCURVE",
"596 209 CURVE SMOOTH",
"596 347 OFFCURVE",
"464 381 OFFCURVE",
"356 403 CURVE SMOOTH",
"266 421 LINE SMOOTH",
"220 430 OFFCURVE",
"190 455 OFFCURVE",
"190 489 CURVE SMOOTH",
"190 530 OFFCURVE",
"236 553 OFFCURVE",
"297 553 CURVE SMOOTH",
"360 553 OFFCURVE",
"406 528 OFFCURVE",
"424 483 CURVE",
"567 535 LINE",
"525 638 OFFCURVE",
"419 680 OFFCURVE",
"311 680 CURVE SMOOTH",
"177 680 OFFCURVE",
"28 616 OFFCURVE",
"28 473 CURVE SMOOTH",
"28 359 OFFCURVE",
"122 306 OFFCURVE",
"231 285 CURVE SMOOTH",
"312 269 LINE SMOOTH",
"384 255 OFFCURVE",
"434 232 OFFCURVE",
"434 185 CURVE SMOOTH",
"434 133 OFFCURVE",
"372 115 OFFCURVE",
"315 115 CURVE SMOOTH",
"241 115 OFFCURVE",
"187 145 OFFCURVE",
"169 209 CURVE",
"25 157 LINE",
"66 50 OFFCURVE",
"168 -12 OFFCURVE",
"314 -12 CURVE SMOOTH"
);
}
);
width = 619;
}
);
leftKerningGroup = S;
rightKerningGroup = S_2;
unicode = 0053;
},
{
color = (153,254,255,255);
glyphname = T;
lastChange = "2021-04-13 17:47:49 +0000";
layers = (
{
background = {
paths = (
{
closed = 1;
nodes = (
"326 0 LINE",
"326 587 LINE",
"548 587 LINE",
"548 668 LINE",
"10 668 LINE",
"10 587 LINE",
"232 587 LINE",
"232 0 LINE"
);
}
);
};
layerId = "04EC68FF-C98D-4D46-AE83-08D67BD50805";
paths = (
{
closed = 1;
nodes = (
"326 0 LINE",
"326 587 LINE",
"548 587 LINE",
"548 668 LINE",
"10 668 LINE",
"10 587 LINE",
"232 587 LINE",
"232 0 LINE"
);
}
);
width = 558;
},
{
background = {
paths = (
{
closed = 1;
nodes = (
"387 0 LINE",
"387 529 LINE",
"602 529 LINE",
"602 668 LINE",
"15 668 LINE",
"15 529 LINE",
"230 529 LINE",
"230 0 LINE"
);
}
);
};
layerId = "61B80AC7-60CB-49DF-8181-735FACBD9F63";
paths = (
{
closed = 1;
nodes = (
"387 0 LINE",
"387 529 LINE",
"602 529 LINE",
"602 668 LINE",
"15 668 LINE",
"15 529 LINE",
"230 529 LINE",
"230 0 LINE"
);
}
);
width = 617;
}
);
leftKerningGroup = T;
rightKerningGroup = T;
unicode = 0054;
},
{
color = (153,254,255,255);
glyphname = U;
lastChange = "2021-04-13 17:47:49 +0000";
layers = (
{
background = {
paths = (
{
closed = 1;
nodes = (
"540 -12 OFFCURVE",
"614 84 OFFCURVE",
"614 279 CURVE SMOOTH",
"614 668 LINE",
"520 668 LINE",
"520 272 LINE SMOOTH",
"520 140 OFFCURVE",
"473 69 OFFCURVE",
"345 69 CURVE SMOOTH",
"217 69 OFFCURVE",
"170 140 OFFCURVE",
"170 272 CURVE SMOOTH",
"170 668 LINE",
"76 668 LINE",
"76 279 LINE SMOOTH",
"76 84 OFFCURVE",
"151 -12 OFFCURVE",
"345 -12 CURVE SMOOTH"
);
}
);
};
layerId = "04EC68FF-C98D-4D46-AE83-08D67BD50805";
paths = (
{
closed = 1;
nodes = (
"540 -12 OFFCURVE",
"614 84 OFFCURVE",
"614 279 CURVE SMOOTH",
"614 668 LINE",
"520 668 LINE",
"520 272 LINE SMOOTH",
"520 140 OFFCURVE",
"473 69 OFFCURVE",
"345 69 CURVE SMOOTH",
"217 69 OFFCURVE",
"170 140 OFFCURVE",
"170 272 CURVE SMOOTH",
"170 668 LINE",
"76 668 LINE",
"76 279 LINE SMOOTH",
"76 84 OFFCURVE",
"151 -12 OFFCURVE",
"345 -12 CURVE SMOOTH"
);
}
);
width = 690;
},
{
background = {
paths = (
{
closed = 1;
nodes = (
"539 -12 OFFCURVE",
"619 86 OFFCURVE",
"619 292 CURVE SMOOTH",
"619 668 LINE",
"461 668 LINE",
"461 279 LINE SMOOTH",
"461 180 OFFCURVE",
"442 117 OFFCURVE",
"332 117 CURVE SMOOTH",
"221 117 OFFCURVE",
"202 180 OFFCURVE",
"202 279 CURVE SMOOTH",
"202 668 LINE",
"44 668 LINE",
"44 292 LINE SMOOTH",
"44 86 OFFCURVE",
"123 -12 OFFCURVE",
"332 -12 CURVE SMOOTH"
);
}
);
};
layerId = "61B80AC7-60CB-49DF-8181-735FACBD9F63";
paths = (
{
closed = 1;
nodes = (
"539 -12 OFFCURVE",
"619 86 OFFCURVE",
"619 292 CURVE SMOOTH",
"619 668 LINE",
"461 668 LINE",
"461 279 LINE SMOOTH",
"461 180 OFFCURVE",
"442 117 OFFCURVE",
"332 117 CURVE SMOOTH",
"221 117 OFFCURVE",
"202 180 OFFCURVE",
"202 279 CURVE SMOOTH",
"202 668 LINE",
"44 668 LINE",
"44 292 LINE SMOOTH",
"44 86 OFFCURVE",
"123 -12 OFFCURVE",
"332 -12 CURVE SMOOTH"
);
}
);
width = 663;
}
);
leftMetricsKey = H;
rightKerningGroup = U_2;
rightMetricsKey = H;
unicode = 0055;
},
{
color = (153,254,255,255);
glyphname = V;
lastChange = "2021-04-13 17:47:49 +0000";
layers = (
{
background = {
paths = (
{
closed = 1;
nodes = (
"349 0 LINE",
"579 668 LINE",
"476 668 LINE",
"294 110 LINE",
"113 668 LINE",
"10 668 LINE",
"239 0 LINE"
);
}
);
};
layerId = "04EC68FF-C98D-4D46-AE83-08D67BD50805";
paths = (
{
closed = 1;
nodes = (
"349 0 LINE",
"579 668 LINE",
"476 668 LINE",
"294 110 LINE",
"113 668 LINE",
"10 668 LINE",
"239 0 LINE"
);
}
);
width = 589;
},
{
background = {
paths = (
{
closed = 1;
nodes = (
"419 0 LINE",
"646 668 LINE",
"481 668 LINE",
"327 177 LINE",
"174 668 LINE",
"10 668 LINE",
"236 0 LINE"
);
}
);
};
layerId = "61B80AC7-60CB-49DF-8181-735FACBD9F63";
paths = (
{
closed = 1;
nodes = (
"419 0 LINE",
"646 668 LINE",
"481 668 LINE",
"327 177 LINE",
"174 668 LINE",
"10 668 LINE",
"236 0 LINE"
);
}
);
width = 656;
}
);
unicode = 0056;
},
{
color = (153,254,255,255);
glyphname = W;
lastChange = "2021-04-13 17:47:49 +0000";
layers = (
{
background = {
paths = (
{
closed = 1;
nodes = (
"291 0 LINE",
"420 552 LINE",
"549 0 LINE",
"663 0 LINE",
"830 668 LINE",
"727 668 LINE",
"597 116 LINE",
"475 668 LINE",
"365 668 LINE",
"243 116 LINE",
"113 668 LINE",
"10 668 LINE",
"178 0 LINE"
);
}
);
};
layerId = "04EC68FF-C98D-4D46-AE83-08D67BD50805";
paths = (
{
closed = 1;
nodes = (
"291 0 LINE",
"420 552 LINE",
"549 0 LINE",
"663 0 LINE",
"830 668 LINE",
"727 668 LINE",
"597 116 LINE",
"475 668 LINE",
"365 668 LINE",
"243 116 LINE",
"113 668 LINE",
"10 668 LINE",
"178 0 LINE"
);
}
);
width = 840;
},
{
background = {
paths = (
{
closed = 1;
nodes = (
"340 0 LINE",
"441 470 LINE",
"543 0 LINE",
"712 0 LINE",
"873 668 LINE",
"715 668 LINE",
"622 205 LINE",
"523 668 LINE",
"359 668 LINE",
"261 205 LINE",
"168 668 LINE",
"10 668 LINE",
"171 0 LINE"
);
}
);
};
layerId = "61B80AC7-60CB-49DF-8181-735FACBD9F63";
paths = (
{
closed = 1;
nodes = (
"340 0 LINE",
"441 470 LINE",
"543 0 LINE",
"712 0 LINE",
"873 668 LINE",
"715 668 LINE",
"622 205 LINE",
"523 668 LINE",
"359 668 LINE",
"261 205 LINE",
"168 668 LINE",
"10 668 LINE",
"171 0 LINE"
);
}
);
width = 883;
}
);
leftMetricsKey = V;
rightMetricsKey = V;
unicode = 0057;
},
{
color = (153,254,255,255);
glyphname = X;
lastChange = "2021-04-13 17:47:49 +0000";
layers = (
{
background = {
paths = (
{
closed = 1;
nodes = (
"123 0 LINE",
"311 265 LINE",
"500 0 LINE",
"613 0 LINE",
"368 344 LINE",
"599 668 LINE",
"486 668 LINE",
"311 423 LINE",
"136 668 LINE",
"24 668 LINE",
"255 344 LINE",
"10 0 LINE"
);
}
);
};
layerId = "04EC68FF-C98D-4D46-AE83-08D67BD50805";
paths = (
{
closed = 1;
nodes = (
"123 0 LINE",
"311 265 LINE",
"500 0 LINE",
"613 0 LINE",
"368 344 LINE",
"599 668 LINE",
"486 668 LINE",
"311 423 LINE",
"136 668 LINE",
"24 668 LINE",
"255 344 LINE",
"10 0 LINE"
);
}
);
width = 623;
},
{
background = {
paths = (
{
closed = 1;
nodes = (
"200 0 LINE",
"349 211 LINE",
"499 0 LINE",
"689 0 LINE",
"444 343 LINE",
"675 668 LINE",
"486 668 LINE",
"349 476 LINE",
"213 668 LINE",
"24 668 LINE",
"255 343 LINE",
"10 0 LINE"
);
}
);
};
layerId = "61B80AC7-60CB-49DF-8181-735FACBD9F63";
paths = (
{
closed = 1;
nodes = (
"200 0 LINE",
"349 211 LINE",
"499 0 LINE",
"689 0 LINE",
"444 343 LINE",
"675 668 LINE",
"486 668 LINE",
"349 476 LINE",
"213 668 LINE",
"24 668 LINE",
"255 343 LINE",
"10 0 LINE"
);
}
);
width = 699;
}
);
leftMetricsKey = V;
rightMetricsKey = V;
unicode = 0058;
},
{
color = (153,254,255,255);
glyphname = Y;
lastChange = "2021-04-13 17:47:49 +0000";
layers = (
{
background = {
paths = (
{
closed = 1;
nodes = (
"345 0 LINE",
"345 259 LINE",
"585 668 LINE",
"482 668 LINE",
"298 345 LINE",
"113 668 LINE",
"10 668 LINE",
"251 259 LINE",
"251 0 LINE"
);
}
);
};
layerId = "04EC68FF-C98D-4D46-AE83-08D67BD50805";
paths = (
{
closed = 1;
nodes = (
"345 0 LINE",
"345 259 LINE",
"585 668 LINE",
"482 668 LINE",
"298 345 LINE",
"113 668 LINE",
"10 668 LINE",
"251 259 LINE",
"251 0 LINE"
);
}
);
width = 595;
},
{
background = {
paths = (
{
closed = 1;
nodes = (
"422 0 LINE",
"422 260 LINE",
"677 668 LINE",
"492 668 LINE",
"343 411 LINE",
"194 668 LINE",
"10 668 LINE",
"265 260 LINE",
"265 0 LINE"
);
}
);
};
layerId = "61B80AC7-60CB-49DF-8181-735FACBD9F63";
paths = (
{
closed = 1;
nodes = (
"422 0 LINE",
"422 260 LINE",
"677 668 LINE",
"492 668 LINE",
"343 411 LINE",
"194 668 LINE",
"10 668 LINE",
"265 260 LINE",
"265 0 LINE"
);
}
);
width = 687;
}
);
leftKerningGroup = Y;
leftMetricsKey = V;
rightKerningGroup = Y_2;
rightMetricsKey = V;
unicode = 0059;
},
{
color = (153,254,255,255);
glyphname = Z;
lastChange = "2021-04-13 17:47:49 +0000";
layers = (
{
background = {
paths = (
{
closed = 1;
nodes = (
"563 0 LINE",
"563 81 LINE",
"156 81 LINE",
"548 587 LINE",
"548 668 LINE",
"59 668 LINE",
"59 587 LINE",
"438 587 LINE",
"44 81 LINE",
"44 0 LINE"
);
}
);
};
layerId = "04EC68FF-C98D-4D46-AE83-08D67BD50805";
paths = (
{
closed = 1;
nodes = (
"563 0 LINE",
"563 81 LINE",
"156 81 LINE",
"548 587 LINE",
"548 668 LINE",
"59 668 LINE",
"59 587 LINE",
"438 587 LINE",
"44 81 LINE",
"44 0 LINE"
);
}
);
width = 607;
},
{
background = {
paths = (
{
closed = 1;
nodes = (
"589 0 LINE",
"589 139 LINE",
"240 139 LINE",
"574 547 LINE",
"574 668 LINE",
"47 668 LINE",
"47 529 LINE",
"369 529 LINE",
"32 121 LINE",
"32 0 LINE"
);
}
);
};
layerId = "61B80AC7-60CB-49DF-8181-735FACBD9F63";
paths = (
{
closed = 1;
nodes = (
"589 0 LINE",
"589 139 LINE",
"240 139 LINE",
"574 547 LINE",
"574 668 LINE",
"47 668 LINE",
"47 529 LINE",
"369 529 LINE",
"32 121 LINE",
"32 0 LINE"
);
}
);
width = 621;
}
);
leftKerningGroup = Z;
rightKerningGroup = Z_2;
unicode = 005A;
},
{
color = (153,254,255,255);
glyphname = a;
lastChange = "2021-04-13 17:47:49 +0000";
layers = (
{
background = {
paths = (
{
closed = 1;
nodes = (
"296 -12 OFFCURVE",
"348 18 OFFCURVE",
"378 68 CURVE",
"398 0 LINE",
"475 0 LINE",
"466 47 OFFCURVE",
"459 104 OFFCURVE",
"458 187 CURVE SMOOTH",
"457 303 LINE SMOOTH",
"456 442 OFFCURVE",
"397 504 OFFCURVE",
"260 504 CURVE SMOOTH",
"171 504 OFFCURVE",
"97 460 OFFCURVE",
"70 384 CURVE",
"151 360 LINE",
"162 408 OFFCURVE",
"201 437 OFFCURVE",
"261 437 CURVE SMOOTH",
"341 437 OFFCURVE",
"376 390 OFFCURVE",
"373 306 CURVE",
"170 283 OFFCURVE",
"38 249 OFFCURVE",
"38 131 CURVE SMOOTH",
"38 40 OFFCURVE",
"115 -12 OFFCURVE",
"209 -12 CURVE SMOOTH"
);
},
{
closed = 1;
nodes = (
"167 55 OFFCURVE",
"131 86 OFFCURVE",
"131 133 CURVE SMOOTH",
"131 201 OFFCURVE",
"228 223 OFFCURVE",
"380 239 CURVE",
"380 208 LINE SMOOTH",
"380 91 OFFCURVE",
"305 55 OFFCURVE",
"227 55 CURVE SMOOTH"
);
}
);
};
layerId = "04EC68FF-C98D-4D46-AE83-08D67BD50805";
paths = (
{
closed = 1;
nodes = (
"296 -12 OFFCURVE",
"348 18 OFFCURVE",
"378 68 CURVE",
"398 0 LINE",
"475 0 LINE",
"466 47 OFFCURVE",
"459 104 OFFCURVE",
"458 187 CURVE SMOOTH",
"457 303 LINE SMOOTH",
"456 442 OFFCURVE",
"397 504 OFFCURVE",
"260 504 CURVE SMOOTH",
"171 504 OFFCURVE",
"97 460 OFFCURVE",
"70 384 CURVE",
"151 360 LINE",
"162 408 OFFCURVE",
"201 437 OFFCURVE",
"261 437 CURVE SMOOTH",
"341 437 OFFCURVE",
"376 390 OFFCURVE",
"373 306 CURVE",
"170 283 OFFCURVE",
"38 249 OFFCURVE",
"38 131 CURVE SMOOTH",
"38 40 OFFCURVE",
"115 -12 OFFCURVE",
"209 -12 CURVE SMOOTH"
);
},
{
closed = 1;
nodes = (
"167 55 OFFCURVE",
"131 86 OFFCURVE",
"131 133 CURVE SMOOTH",
"131 201 OFFCURVE",
"228 223 OFFCURVE",
"380 239 CURVE",
"380 208 LINE SMOOTH",
"380 91 OFFCURVE",
"305 55 OFFCURVE",
"227 55 CURVE SMOOTH"
);
}
);
width = 526;
},
{
background = {
paths = (
{
closed = 1;
nodes = (
"266 -12 OFFCURVE",
"324 8 OFFCURVE",
"361 60 CURVE",
"379 0 LINE",
"520 0 LINE",
"510 43 OFFCURVE",
"503 129 OFFCURVE",
"503 194 CURVE SMOOTH",
"503 303 LINE",
"503 453 OFFCURVE",
"424 510 OFFCURVE",
"283 510 CURVE SMOOTH",
"169 510 OFFCURVE",
"89 460 OFFCURVE",
"56 394 CURVE",
"184 348 LINE",
"194 388 OFFCURVE",
"228 407 OFFCURVE",
"270 407 CURVE SMOOTH",
"323 407 OFFCURVE",
"353 386 OFFCURVE",
"353 329 CURVE SMOOTH",
"353 310 LINE",
"161 296 OFFCURVE",
"24 255 OFFCURVE",
"24 134 CURVE SMOOTH",
"24 44 OFFCURVE",
"101 -12 OFFCURVE",
"195 -12 CURVE SMOOTH"
);
},
{
closed = 1;
nodes = (
"211 92 OFFCURVE",
"181 113 OFFCURVE",
"181 145 CURVE SMOOTH",
"181 197 OFFCURVE",
"251 211 OFFCURVE",
"356 220 CURVE",
"356 208 LINE SMOOTH",
"356 117 OFFCURVE",
"311 92 OFFCURVE",
"251 92 CURVE SMOOTH"
);
}
);
};
layerId = "61B80AC7-60CB-49DF-8181-735FACBD9F63";
paths = (
{
closed = 1;
nodes = (
"266 -12 OFFCURVE",
"324 8 OFFCURVE",
"361 60 CURVE",
"379 0 LINE",
"520 0 LINE",
"510 43 OFFCURVE",
"503 129 OFFCURVE",
"503 194 CURVE SMOOTH",
"503 303 LINE",
"503 453 OFFCURVE",
"424 510 OFFCURVE",
"283 510 CURVE SMOOTH",
"169 510 OFFCURVE",
"89 460 OFFCURVE",
"56 394 CURVE",
"184 348 LINE",
"194 388 OFFCURVE",
"228 407 OFFCURVE",
"270 407 CURVE SMOOTH",
"323 407 OFFCURVE",
"353 386 OFFCURVE",
"353 329 CURVE SMOOTH",
"353 310 LINE",
"161 296 OFFCURVE",
"24 255 OFFCURVE",
"24 134 CURVE SMOOTH",
"24 44 OFFCURVE",
"101 -12 OFFCURVE",
"195 -12 CURVE SMOOTH"
);
},
{
closed = 1;
nodes = (
"211 92 OFFCURVE",
"181 113 OFFCURVE",
"181 145 CURVE SMOOTH",
"181 197 OFFCURVE",
"251 211 OFFCURVE",
"356 220 CURVE",
"356 208 LINE SMOOTH",
"356 117 OFFCURVE",
"311 92 OFFCURVE",
"251 92 CURVE SMOOTH"
);
}
);
width = 553;
}
);
leftKerningGroup = a;
leftMetricsKey = o;
unicode = 0061;
},
{
color = (153,254,255,255);
glyphname = b;
lastChange = "2021-04-13 17:47:49 +0000";
layers = (
{
background = {
paths = (
{
closed = 1;
nodes = (
"428 -12 OFFCURVE",
"528 82 OFFCURVE",
"528 246 CURVE SMOOTH",
"528 409 OFFCURVE",
"428 504 OFFCURVE",
"315 504 CURVE SMOOTH",
"237 504 OFFCURVE",
"184 470 OFFCURVE",
"154 418 CURVE",
"154 668 LINE",
"70 668 LINE",
"70 0 LINE",
"132 0 LINE",
"154 75 LINE",
"184 22 OFFCURVE",
"237 -12 OFFCURVE",
"315 -12 CURVE SMOOTH"
);
},
{
closed = 1;
nodes = (
"208 60 OFFCURVE",
"152 128 OFFCURVE",
"152 246 CURVE SMOOTH",
"152 364 OFFCURVE",
"208 432 OFFCURVE",
"293 432 CURVE SMOOTH",
"378 432 OFFCURVE",
"434 364 OFFCURVE",
"434 246 CURVE SMOOTH",
"434 128 OFFCURVE",
"378 60 OFFCURVE",
"293 60 CURVE SMOOTH"
);
}
);
};
layerId = "04EC68FF-C98D-4D46-AE83-08D67BD50805";
paths = (
{
closed = 1;
nodes = (
"428 -12 OFFCURVE",
"528 82 OFFCURVE",
"528 246 CURVE SMOOTH",
"528 409 OFFCURVE",
"428 504 OFFCURVE",
"315 504 CURVE SMOOTH",
"237 504 OFFCURVE",
"184 470 OFFCURVE",
"154 418 CURVE",
"154 668 LINE",
"70 668 LINE",
"70 0 LINE",
"132 0 LINE",
"154 75 LINE",
"184 22 OFFCURVE",
"237 -12 OFFCURVE",
"315 -12 CURVE SMOOTH"
);
},
{
closed = 1;
nodes = (
"208 60 OFFCURVE",
"152 128 OFFCURVE",
"152 246 CURVE SMOOTH",
"152 364 OFFCURVE",
"208 432 OFFCURVE",
"293 432 CURVE SMOOTH",
"378 432 OFFCURVE",
"434 364 OFFCURVE",
"434 246 CURVE SMOOTH",
"434 128 OFFCURVE",
"378 60 OFFCURVE",
"293 60 CURVE SMOOTH"
);
}
);
width = 566;
},
{
background = {
paths = (
{
closed = 1;
nodes = (
"481 -12 OFFCURVE",
"572 90 OFFCURVE",
"572 252 CURVE",
"572 414 OFFCURVE",
"481 510 OFFCURVE",
"353 510 CURVE",
"300 510 OFFCURVE",
"234 483 OFFCURVE",
"202 428 CURVE",
"202 668 LINE",
"50 668 LINE",
"50 0 LINE",
"183 0 LINE",
"202 67 LINE",
"234 12 OFFCURVE",
"300 -12 OFFCURVE",
"353 -12 CURVE SMOOTH"
);
},
{
closed = 1;
nodes = (
"245 106 OFFCURVE",
"195 146 OFFCURVE",
"195 249 CURVE SMOOTH",
"195 350 OFFCURVE",
"245 392 OFFCURVE",
"305 392 CURVE SMOOTH",
"364 392 OFFCURVE",
"414 343 OFFCURVE",
"414 252 CURVE SMOOTH",
"414 160 OFFCURVE",
"364 106 OFFCURVE",
"305 106 CURVE"
);
}
);
};
layerId = "61B80AC7-60CB-49DF-8181-735FACBD9F63";
paths = (
{
closed = 1;
nodes = (
"481 -12 OFFCURVE",
"572 90 OFFCURVE",
"572 252 CURVE",
"572 414 OFFCURVE",
"481 510 OFFCURVE",
"353 510 CURVE",
"300 510 OFFCURVE",
"234 483 OFFCURVE",
"202 428 CURVE",
"202 668 LINE",
"50 668 LINE",
"50 0 LINE",
"183 0 LINE",
"202 67 LINE",
"234 12 OFFCURVE",
"300 -12 OFFCURVE",
"353 -12 CURVE SMOOTH"
);
},
{
closed = 1;
nodes = (
"245 106 OFFCURVE",
"195 146 OFFCURVE",
"195 249 CURVE SMOOTH",
"195 350 OFFCURVE",
"245 392 OFFCURVE",
"305 392 CURVE SMOOTH",
"364 392 OFFCURVE",
"414 343 OFFCURVE",
"414 252 CURVE SMOOTH",
"414 160 OFFCURVE",
"364 106 OFFCURVE",
"305 106 CURVE"
);
}
);
width = 596;
}
);
leftMetricsKey = n;
rightKerningGroup = b;
rightMetricsKey = o;
unicode = 0062;
},
{
color = (153,254,255,255);
glyphname = c;
lastChange = "2021-04-13 17:47:49 +0000";
layers = (
{
background = {
paths = (
{
closed = 1;
nodes = (
"357 -12 OFFCURVE",
"430 35 OFFCURVE",
"467 99 CURVE",
"390 127 LINE",
"368 90 OFFCURVE",
"326 62 OFFCURVE",
"272 62 CURVE SMOOTH",
"198 62 OFFCURVE",
"129 122 OFFCURVE",
"129 247 CURVE SMOOTH",
"129 372 OFFCURVE",
"197 430 OFFCURVE",
"272 430 CURVE SMOOTH",
"323 430 OFFCURVE",
"366 404 OFFCURVE",
"388 364 CURVE",
"465 392 LINE",
"433 453 OFFCURVE",
"367 504 OFFCURVE",
"278 504 CURVE SMOOTH",
"131 504 OFFCURVE",
"38 394 OFFCURVE",
"38 246 CURVE SMOOTH",
"38 96 OFFCURVE",
"127 -12 OFFCURVE",
"269 -12 CURVE SMOOTH"
);
}
);
};
layerId = "04EC68FF-C98D-4D46-AE83-08D67BD50805";
paths = (
{
closed = 1;
nodes = (
"357 -12 OFFCURVE",
"430 35 OFFCURVE",
"467 99 CURVE",
"390 127 LINE",
"368 90 OFFCURVE",
"326 62 OFFCURVE",
"272 62 CURVE SMOOTH",
"198 62 OFFCURVE",
"129 122 OFFCURVE",
"129 247 CURVE SMOOTH",
"129 372 OFFCURVE",
"197 430 OFFCURVE",
"272 430 CURVE SMOOTH",
"323 430 OFFCURVE",
"366 404 OFFCURVE",
"388 364 CURVE",
"465 392 LINE",
"433 453 OFFCURVE",
"367 504 OFFCURVE",
"278 504 CURVE SMOOTH",
"131 504 OFFCURVE",
"38 394 OFFCURVE",
"38 246 CURVE SMOOTH",
"38 96 OFFCURVE",
"127 -12 OFFCURVE",
"269 -12 CURVE SMOOTH"
);
}
);
width = 500;
},
{
background = {
paths = (
{
closed = 1;
nodes = (
"357 -12 OFFCURVE",
"449 18 OFFCURVE",
"500 108 CURVE",
"376 153 LINE",
"359 124 OFFCURVE",
"329 106 OFFCURVE",
"287 106 CURVE",
"233 106 OFFCURVE",
"179 142 OFFCURVE",
"179 250 CURVE SMOOTH",
"179 355 OFFCURVE",
"232 392 OFFCURVE",
"287 392 CURVE SMOOTH",
"325 392 OFFCURVE",
"359 376 OFFCURVE",
"375 334 CURVE",
"502 380 LINE",
"456 478 OFFCURVE",
"363 510 OFFCURVE",
"278 510 CURVE SMOOTH",
"127 510 OFFCURVE",
"24 407 OFFCURVE",
"24 251 CURVE SMOOTH",
"24 94 OFFCURVE",
"114 -12 OFFCURVE",
"278 -12 CURVE SMOOTH"
);
}
);
};
layerId = "61B80AC7-60CB-49DF-8181-735FACBD9F63";
paths = (
{
closed = 1;
nodes = (
"357 -12 OFFCURVE",
"449 18 OFFCURVE",
"500 108 CURVE",
"376 153 LINE",
"359 124 OFFCURVE",
"329 106 OFFCURVE",
"287 106 CURVE",
"233 106 OFFCURVE",
"179 142 OFFCURVE",
"179 250 CURVE SMOOTH",
"179 355 OFFCURVE",
"232 392 OFFCURVE",
"287 392 CURVE SMOOTH",
"325 392 OFFCURVE",
"359 376 OFFCURVE",
"375 334 CURVE",
"502 380 LINE",
"456 478 OFFCURVE",
"363 510 OFFCURVE",
"278 510 CURVE SMOOTH",
"127 510 OFFCURVE",
"24 407 OFFCURVE",
"24 251 CURVE SMOOTH",
"24 94 OFFCURVE",
"114 -12 OFFCURVE",
"278 -12 CURVE SMOOTH"
);
}
);
width = 520;
}
);
leftKerningGroup = c;
leftMetricsKey = o;
rightKerningGroup = c_2;
unicode = 0063;
},
{
color = (153,254,255,255);
glyphname = d;
lastChange = "2021-04-13 17:47:49 +0000";
layers = (
{
background = {
paths = (
{
closed = 1;
nodes = (
"329 -12 OFFCURVE",
"382 22 OFFCURVE",
"412 75 CURVE",
"434 0 LINE",
"513 0 LINE",
"496 87 OFFCURVE",
"496 154 OFFCURVE",
"496 187 CURVE SMOOTH",
"496 668 LINE",
"412 668 LINE",
"412 418 LINE",
"382 470 OFFCURVE",
"329 504 OFFCURVE",
"251 504 CURVE SMOOTH",
"138 504 OFFCURVE",
"38 409 OFFCURVE",
"38 246 CURVE SMOOTH",
"38 82 OFFCURVE",
"138 -12 OFFCURVE",
"251 -12 CURVE SMOOTH"
);
},
{
closed = 1;
nodes = (
"188 60 OFFCURVE",
"132 128 OFFCURVE",
"132 246 CURVE SMOOTH",
"132 364 OFFCURVE",
"188 432 OFFCURVE",
"273 432 CURVE SMOOTH",
"358 432 OFFCURVE",
"414 364 OFFCURVE",
"414 246 CURVE SMOOTH",
"414 128 OFFCURVE",
"358 60 OFFCURVE",
"273 60 CURVE SMOOTH"
);
}
);
};
layerId = "04EC68FF-C98D-4D46-AE83-08D67BD50805";
paths = (
{
closed = 1;
nodes = (
"329 -12 OFFCURVE",
"382 22 OFFCURVE",
"412 75 CURVE",
"434 0 LINE",
"513 0 LINE",
"496 87 OFFCURVE",
"496 154 OFFCURVE",
"496 187 CURVE SMOOTH",
"496 668 LINE",
"412 668 LINE",
"412 418 LINE",
"382 470 OFFCURVE",
"329 504 OFFCURVE",
"251 504 CURVE SMOOTH",
"138 504 OFFCURVE",
"38 409 OFFCURVE",
"38 246 CURVE SMOOTH",
"38 82 OFFCURVE",
"138 -12 OFFCURVE",
"251 -12 CURVE SMOOTH"
);
},
{
closed = 1;
nodes = (
"188 60 OFFCURVE",
"132 128 OFFCURVE",
"132 246 CURVE SMOOTH",
"132 364 OFFCURVE",
"188 432 OFFCURVE",
"273 432 CURVE SMOOTH",
"358 432 OFFCURVE",
"414 364 OFFCURVE",
"414 246 CURVE SMOOTH",
"414 128 OFFCURVE",
"358 60 OFFCURVE",
"273 60 CURVE SMOOTH"
);
}
);
width = 564;
},
{
background = {
paths = (
{
closed = 1;
nodes = (
"297 -12 OFFCURVE",
"356 10 OFFCURVE",
"398 67 CURVE",
"418 0 LINE",
"563 0 LINE",
"549 73 OFFCURVE",
"546 144 OFFCURVE",
"546 194 CURVE",
"546 668 LINE",
"394 668 LINE",
"394 428 LINE",
"362 483 OFFCURVE",
"297 510 OFFCURVE",
"243 510 CURVE SMOOTH",
"115 510 OFFCURVE",
"24 414 OFFCURVE",
"24 252 CURVE SMOOTH",
"24 90 OFFCURVE",
"115 -12 OFFCURVE",
"243 -12 CURVE SMOOTH"
);
},
{
closed = 1;
nodes = (
"232 106 OFFCURVE",
"182 160 OFFCURVE",
"182 252 CURVE SMOOTH",
"182 343 OFFCURVE",
"232 392 OFFCURVE",
"292 392 CURVE SMOOTH",
"351 392 OFFCURVE",
"401 350 OFFCURVE",
"401 249 CURVE SMOOTH",
"401 146 OFFCURVE",
"351 106 OFFCURVE",
"292 106 CURVE"
);
}
);
};
layerId = "61B80AC7-60CB-49DF-8181-735FACBD9F63";
paths = (
{
closed = 1;
nodes = (
"297 -12 OFFCURVE",
"356 10 OFFCURVE",
"398 67 CURVE",
"418 0 LINE",
"563 0 LINE",
"549 73 OFFCURVE",
"546 144 OFFCURVE",
"546 194 CURVE",
"546 668 LINE",
"394 668 LINE",
"394 428 LINE",
"362 483 OFFCURVE",
"297 510 OFFCURVE",
"243 510 CURVE SMOOTH",
"115 510 OFFCURVE",
"24 414 OFFCURVE",
"24 252 CURVE SMOOTH",
"24 90 OFFCURVE",
"115 -12 OFFCURVE",
"243 -12 CURVE SMOOTH"
);
},
{
closed = 1;
nodes = (
"232 106 OFFCURVE",
"182 160 OFFCURVE",
"182 252 CURVE SMOOTH",
"182 343 OFFCURVE",
"232 392 OFFCURVE",
"292 392 CURVE SMOOTH",
"351 392 OFFCURVE",
"401 350 OFFCURVE",
"401 249 CURVE SMOOTH",
"401 146 OFFCURVE",
"351 106 OFFCURVE",
"292 106 CURVE"
);
}
);
width = 596;
}
);
leftKerningGroup = c;
leftMetricsKey = o;
rightMetricsKey = a;
unicode = 0064;
},
{
color = (153,254,255,255);
glyphname = e;
lastChange = "2021-04-13 17:47:49 +0000";
layers = (
{
background = {
paths = (
{
closed = 1;
nodes = (
"374 -12 OFFCURVE",
"442 29 OFFCURVE",
"478 87 CURVE",
"397 111 LINE",
"374 81 OFFCURVE",
"337 62 OFFCURVE",
"281 62 CURVE SMOOTH",
"220 62 OFFCURVE",
"132 100 OFFCURVE",
"128 225 CURVE",
"510 225 LINE",
"520 367 OFFCURVE",
"437 504 OFFCURVE",
"279 504 CURVE SMOOTH",
"143 504 OFFCURVE",
"38 404 OFFCURVE",
"38 247 CURVE SMOOTH",
"38 101 OFFCURVE",
"125 -12 OFFCURVE",
"281 -12 CURVE SMOOTH"
);
},
{
closed = 1;
nodes = (
"137 392 OFFCURVE",
"204 432 OFFCURVE",
"279 432 CURVE SMOOTH",
"367 432 OFFCURVE",
"420 362 OFFCURVE",
"421 292 CURVE",
"129 292 LINE"
);
}
);
};
layerId = "04EC68FF-C98D-4D46-AE83-08D67BD50805";
paths = (
{
closed = 1;
nodes = (
"374 -12 OFFCURVE",
"442 29 OFFCURVE",
"478 87 CURVE",
"397 111 LINE",
"374 81 OFFCURVE",
"337 62 OFFCURVE",
"281 62 CURVE SMOOTH",
"220 62 OFFCURVE",
"132 100 OFFCURVE",
"128 225 CURVE",
"510 225 LINE",
"520 367 OFFCURVE",
"437 504 OFFCURVE",
"279 504 CURVE SMOOTH",
"143 504 OFFCURVE",
"38 404 OFFCURVE",
"38 247 CURVE SMOOTH",
"38 101 OFFCURVE",
"125 -12 OFFCURVE",
"281 -12 CURVE SMOOTH"
);
},
{
closed = 1;
nodes = (
"137 392 OFFCURVE",
"204 432 OFFCURVE",
"279 432 CURVE SMOOTH",
"367 432 OFFCURVE",
"420 362 OFFCURVE",
"421 292 CURVE",
"129 292 LINE"
);
}
);
width = 539;
},
{
background = {
paths = (
{
closed = 1;
nodes = (
"377 -12 OFFCURVE",
"461 23 OFFCURVE",
"513 99 CURVE",
"392 143 LINE",
"373 121 OFFCURVE",
"339 106 OFFCURVE",
"292 106 CURVE SMOOTH",
"236 106 OFFCURVE",
"182 140 OFFCURVE",
"177 210 CURVE",
"544 210 LINE",
"554 385 OFFCURVE",
"453 510 OFFCURVE",
"290 510 CURVE SMOOTH",
"145 510 OFFCURVE",
"24 409 OFFCURVE",
"24 251 CURVE SMOOTH",
"24 87 OFFCURVE",
"135 -12 OFFCURVE",
"296 -12 CURVE SMOOTH"
);
},
{
closed = 1;
nodes = (
"186 368 OFFCURVE",
"237 397 OFFCURVE",
"294 397 CURVE SMOOTH",
"353 397 OFFCURVE",
"401 364 OFFCURVE",
"403 300 CURVE",
"177 300 LINE"
);
}
);
};
layerId = "61B80AC7-60CB-49DF-8181-735FACBD9F63";
paths = (
{
closed = 1;
nodes = (
"377 -12 OFFCURVE",
"461 23 OFFCURVE",
"513 99 CURVE",
"392 143 LINE",
"373 121 OFFCURVE",
"339 106 OFFCURVE",
"292 106 CURVE SMOOTH",
"236 106 OFFCURVE",
"182 140 OFFCURVE",
"177 210 CURVE",
"544 210 LINE",
"554 385 OFFCURVE",
"453 510 OFFCURVE",
"290 510 CURVE SMOOTH",
"145 510 OFFCURVE",
"24 409 OFFCURVE",
"24 251 CURVE SMOOTH",
"24 87 OFFCURVE",
"135 -12 OFFCURVE",
"296 -12 CURVE SMOOTH"
);
},
{
closed = 1;
nodes = (
"186 368 OFFCURVE",
"237 397 OFFCURVE",
"294 397 CURVE SMOOTH",
"353 397 OFFCURVE",
"401 364 OFFCURVE",
"403 300 CURVE",
"177 300 LINE"
);
}
);
width = 566;
}
);
leftKerningGroup = c;
leftMetricsKey = o;
rightKerningGroup = e;
unicode = 0065;
},
{
color = (153,254,255,255);
glyphname = f;
lastChange = "2021-04-13 17:47:49 +0000";
layers = (
{
background = {
paths = (
{
closed = 1;
nodes = (
"183 0 LINE",
"183 429 LINE",
"286 429 LINE",
"286 496 LINE",
"183 496 LINE",
"183 571 LINE SMOOTH",
"183 622 OFFCURVE",
"191 635 OFFCURVE",
"234 635 CURVE SMOOTH",
"286 635 LINE",
"286 706 LINE",
"232 706 LINE SMOOTH",
"121 706 OFFCURVE",
"99 672 OFFCURVE",
"99 570 CURVE SMOOTH",
"99 496 LINE",
"15 496 LINE",
"15 429 LINE",
"99 429 LINE",
"99 0 LINE"
);
}
);
};
layerId = "04EC68FF-C98D-4D46-AE83-08D67BD50805";
paths = (
{
closed = 1;
nodes = (
"183 0 LINE",
"183 429 LINE",
"286 429 LINE",
"286 496 LINE",
"183 496 LINE",
"183 571 LINE SMOOTH",
"183 622 OFFCURVE",
"191 635 OFFCURVE",
"234 635 CURVE SMOOTH",
"286 635 LINE",
"286 706 LINE",
"232 706 LINE SMOOTH",
"121 706 OFFCURVE",
"99 672 OFFCURVE",
"99 570 CURVE SMOOTH",
"99 496 LINE",
"15 496 LINE",
"15 429 LINE",
"99 429 LINE",
"99 0 LINE"
);
}
);
width = 311;
},
{
background = {
paths = (
{
closed = 1;
nodes = (
"239 0 LINE",
"239 380 LINE",
"347 380 LINE",
"347 496 LINE",
"239 496 LINE",
"239 563 LINE SMOOTH",
"239 601 OFFCURVE",
"251 608 OFFCURVE",
"305 608 CURVE",
"347 608 LINE",
"347 728 LINE",
"278 728 LINE SMOOTH",
"144 728 OFFCURVE",
"87 695 OFFCURVE",
"87 577 CURVE SMOOTH",
"87 496 LINE",
"5 496 LINE",
"5 380 LINE",
"87 380 LINE",
"87 0 LINE"
);
}
);
};
layerId = "61B80AC7-60CB-49DF-8181-735FACBD9F63";
paths = (
{
closed = 1;
nodes = (
"239 0 LINE",
"239 380 LINE",
"347 380 LINE",
"347 496 LINE",
"239 496 LINE",
"239 563 LINE SMOOTH",
"239 601 OFFCURVE",
"251 608 OFFCURVE",
"305 608 CURVE",
"347 608 LINE",
"347 728 LINE",
"278 728 LINE SMOOTH",
"144 728 OFFCURVE",
"87 695 OFFCURVE",
"87 577 CURVE SMOOTH",
"87 496 LINE",
"5 496 LINE",
"5 380 LINE",
"87 380 LINE",
"87 0 LINE"
);
}
);
width = 367;
}
);
rightKerningGroup = f;
unicode = 0066;
},
{
color = (153,254,255,255);
glyphname = g;
lastChange = "2021-04-13 17:47:49 +0000";
layers = (
{
background = {
paths = (
{
closed = 1;
nodes = (
"308 -192 OFFCURVE",
"341 -186 OFFCURVE",
"369 -176 CURVE SMOOTH",
"484 -134 OFFCURVE",
"490 -51 OFFCURVE",
"490 47 CURVE SMOOTH",
"490 496 LINE",
"429 496 LINE",
"406 418 LINE",
"375 470 OFFCURVE",
"327 504 OFFCURVE",
"248 504 CURVE SMOOTH",
"138 504 OFFCURVE",
"38 415 OFFCURVE",
"38 256 CURVE SMOOTH",
"38 97 OFFCURVE",
"138 9 OFFCURVE",
"248 9 CURVE SMOOTH",
"327 9 OFFCURVE",
"375 42 OFFCURVE",
"406 94 CURVE",
"406 28 LINE SMOOTH",
"406 -53 OFFCURVE",
"391 -89 OFFCURVE",
"330 -110 CURVE SMOOTH",
"321 -113 OFFCURVE",
"299 -118 OFFCURVE",
"274 -118 CURVE SMOOTH",
"233 -118 OFFCURVE",
"183 -105 OFFCURVE",
"165 -53 CURVE",
"81 -76 LINE",
"107 -159 OFFCURVE",
"193 -192 OFFCURVE",
"274 -192 CURVE SMOOTH"
);
},
{
closed = 1;
nodes = (
"187 79 OFFCURVE",
"129 143 OFFCURVE",
"129 256 CURVE SMOOTH",
"129 369 OFFCURVE",
"187 432 OFFCURVE",
"269 432 CURVE SMOOTH",
"344 432 OFFCURVE",
"409 382 OFFCURVE",
"409 256 CURVE SMOOTH",
"409 130 OFFCURVE",
"344 79 OFFCURVE",
"269 79 CURVE SMOOTH"
);
}
);
};
layerId = "04EC68FF-C98D-4D46-AE83-08D67BD50805";
paths = (
{
closed = 1;
nodes = (
"308 -192 OFFCURVE",
"341 -186 OFFCURVE",
"369 -176 CURVE SMOOTH",
"484 -134 OFFCURVE",
"490 -51 OFFCURVE",
"490 47 CURVE SMOOTH",
"490 496 LINE",
"429 496 LINE",
"406 418 LINE",
"375 470 OFFCURVE",
"327 504 OFFCURVE",
"248 504 CURVE SMOOTH",
"138 504 OFFCURVE",
"38 415 OFFCURVE",
"38 256 CURVE SMOOTH",
"38 97 OFFCURVE",
"138 9 OFFCURVE",
"248 9 CURVE SMOOTH",
"327 9 OFFCURVE",
"375 42 OFFCURVE",
"406 94 CURVE",
"406 28 LINE SMOOTH",
"406 -53 OFFCURVE",
"391 -89 OFFCURVE",
"330 -110 CURVE SMOOTH",
"321 -113 OFFCURVE",
"299 -118 OFFCURVE",
"274 -118 CURVE SMOOTH",
"233 -118 OFFCURVE",
"183 -105 OFFCURVE",
"165 -53 CURVE",
"81 -76 LINE",
"107 -159 OFFCURVE",
"193 -192 OFFCURVE",
"274 -192 CURVE SMOOTH"
);
},
{
closed = 1;
nodes = (
"187 79 OFFCURVE",
"129 143 OFFCURVE",
"129 256 CURVE SMOOTH",
"129 369 OFFCURVE",
"187 432 OFFCURVE",
"269 432 CURVE SMOOTH",
"344 432 OFFCURVE",
"409 382 OFFCURVE",
"409 256 CURVE SMOOTH",
"409 130 OFFCURVE",
"344 79 OFFCURVE",
"269 79 CURVE SMOOTH"
);
}
);
width = 560;
},
{
background = {
paths = (
{
closed = 1;
nodes = (
"523 -135 OFFCURVE",
"546 -47 OFFCURVE",
"546 37 CURVE SMOOTH",
"546 496 LINE",
"415 496 LINE",
"395 428 LINE",
"295 572 OFFCURVE",
"24 536 OFFCURVE",
"24 259 CURVE SMOOTH",
"24 29 OFFCURVE",
"269 -59 OFFCURVE",
"395 96 CURVE",
"395 7 LINE SMOOTH",
"395 -28 OFFCURVE",
"383 -64 OFFCURVE",
"342 -78 CURVE",
"306 -92 OFFCURVE",
"225 -96 OFFCURVE",
"197 -40 CURVE",
"73 -85 LINE",
"150 -237 OFFCURVE",
"355 -210 OFFCURVE",
"427 -178 CURVE SMOOTH"
);
},
{
closed = 1;
nodes = (
"232 136 OFFCURVE",
"182 179 OFFCURVE",
"182 267 CURVE SMOOTH",
"182 354 OFFCURVE",
"232 392 OFFCURVE",
"292 392 CURVE SMOOTH",
"351 392 OFFCURVE",
"401 360 OFFCURVE",
"401 263 CURVE SMOOTH",
"401 166 OFFCURVE",
"351 136 OFFCURVE",
"292 136 CURVE SMOOTH"
);
}
);
};
layerId = "61B80AC7-60CB-49DF-8181-735FACBD9F63";
paths = (
{
closed = 1;
nodes = (
"523 -135 OFFCURVE",
"546 -47 OFFCURVE",
"546 37 CURVE SMOOTH",
"546 496 LINE",
"415 496 LINE",
"395 428 LINE",
"295 572 OFFCURVE",
"24 536 OFFCURVE",
"24 259 CURVE SMOOTH",
"24 29 OFFCURVE",
"269 -59 OFFCURVE",
"395 96 CURVE",
"395 7 LINE SMOOTH",
"395 -28 OFFCURVE",
"383 -64 OFFCURVE",
"342 -78 CURVE",
"306 -92 OFFCURVE",
"225 -96 OFFCURVE",
"197 -40 CURVE",
"73 -85 LINE",
"150 -237 OFFCURVE",
"355 -210 OFFCURVE",
"427 -178 CURVE SMOOTH"
);
},
{
closed = 1;
nodes = (
"232 136 OFFCURVE",
"182 179 OFFCURVE",
"182 267 CURVE SMOOTH",
"182 354 OFFCURVE",
"232 392 OFFCURVE",
"292 392 CURVE SMOOTH",
"351 392 OFFCURVE",
"401 360 OFFCURVE",
"401 263 CURVE SMOOTH",
"401 166 OFFCURVE",
"351 136 OFFCURVE",
"292 136 CURVE SMOOTH"
);
}
);
width = 597;
}
);
leftKerningGroup = g;
leftMetricsKey = o;
unicode = 0067;
},
{
color = (153,254,255,255);
glyphname = h;
lastChange = "2021-04-13 17:47:49 +0000";
layers = (
{
background = {
paths = (
{
closed = 1;
nodes = (
"154 0 LINE",
"154 269 LINE SMOOTH",
"154 375 OFFCURVE",
"204 432 OFFCURVE",
"285 432 CURVE SMOOTH",
"381 432 OFFCURVE",
"394 365 OFFCURVE",
"394 289 CURVE SMOOTH",
"394 0 LINE",
"478 0 LINE",
"478 314 LINE SMOOTH",
"478 427 OFFCURVE",
"434 504 OFFCURVE",
"314 504 CURVE SMOOTH",
"230 504 OFFCURVE",
"182 468 OFFCURVE",
"154 421 CURVE",
"154 668 LINE",
"70 668 LINE",
"70 0 LINE"
);
}
);
};
layerId = "04EC68FF-C98D-4D46-AE83-08D67BD50805";
paths = (
{
closed = 1;
nodes = (
"154 0 LINE",
"154 269 LINE SMOOTH",
"154 375 OFFCURVE",
"204 432 OFFCURVE",
"285 432 CURVE SMOOTH",
"381 432 OFFCURVE",
"394 365 OFFCURVE",
"394 289 CURVE SMOOTH",
"394 0 LINE",
"478 0 LINE",
"478 314 LINE SMOOTH",
"478 427 OFFCURVE",
"434 504 OFFCURVE",
"314 504 CURVE SMOOTH",
"230 504 OFFCURVE",
"182 468 OFFCURVE",
"154 421 CURVE",
"154 668 LINE",
"70 668 LINE",
"70 0 LINE"
);
}
);
width = 546;
},
{
background = {
paths = (
{
closed = 1;
nodes = (
"202 0 LINE",
"202 255 LINE SMOOTH",
"202 345 OFFCURVE",
"230 392 OFFCURVE",
"294 392 CURVE SMOOTH",
"367 392 OFFCURVE",
"370 334 OFFCURVE",
"370 264 CURVE SMOOTH",
"370 0 LINE",
"522 0 LINE",
"522 302 LINE SMOOTH",
"522 436 OFFCURVE",
"483 510 OFFCURVE",
"355 510 CURVE SMOOTH",
"279 510 OFFCURVE",
"224 467 OFFCURVE",
"202 430 CURVE",
"202 668 LINE",
"50 668 LINE",
"50 0 LINE"
);
}
);
};
layerId = "61B80AC7-60CB-49DF-8181-735FACBD9F63";
paths = (
{
closed = 1;
nodes = (
"202 0 LINE",
"202 255 LINE SMOOTH",
"202 345 OFFCURVE",
"230 392 OFFCURVE",
"294 392 CURVE SMOOTH",
"367 392 OFFCURVE",
"370 334 OFFCURVE",
"370 264 CURVE SMOOTH",
"370 0 LINE",
"522 0 LINE",
"522 302 LINE SMOOTH",
"522 436 OFFCURVE",
"483 510 OFFCURVE",
"355 510 CURVE SMOOTH",
"279 510 OFFCURVE",
"224 467 OFFCURVE",
"202 430 CURVE",
"202 668 LINE",
"50 668 LINE",
"50 0 LINE"
);
}
);
width = 572;
}
);
leftMetricsKey = n;
rightKerningGroup = h;
rightMetricsKey = n;
unicode = 0068;
},
{
glyphname = i;
lastChange = "2021-04-13 17:47:49 +0000";
layers = (
{
background = {
paths = (
{
closed = 1;
nodes = (
"198 0 LINE",
"198 496 LINE",
"45 496 LINE",
"45 429 LINE",
"114 429 LINE",
"114 0 LINE"
);
},
{
closed = 1;
nodes = (
"191 590 OFFCURVE",
"219 618 OFFCURVE",
"219 653 CURVE SMOOTH",
"219 687 OFFCURVE",
"191 715 OFFCURVE",
"156 715 CURVE SMOOTH",
"122 715 OFFCURVE",
"94 687 OFFCURVE",
"94 653 CURVE SMOOTH",
"94 618 OFFCURVE",
"122 590 OFFCURVE",
"156 590 CURVE SMOOTH"
);
}
);
};
layerId = "04EC68FF-C98D-4D46-AE83-08D67BD50805";
paths = (
{
closed = 1;
nodes = (
"198 0 LINE",
"198 496 LINE",
"45 496 LINE",
"45 429 LINE",
"114 429 LINE",
"114 0 LINE"
);
},
{
closed = 1;
nodes = (
"191 590 OFFCURVE",
"219 618 OFFCURVE",
"219 653 CURVE SMOOTH",
"219 687 OFFCURVE",
"191 715 OFFCURVE",
"156 715 CURVE SMOOTH",
"122 715 OFFCURVE",
"94 687 OFFCURVE",
"94 653 CURVE SMOOTH",
"94 618 OFFCURVE",
"122 590 OFFCURVE",
"156 590 CURVE SMOOTH"
);
}
);
width = 278;
},
{
background = {
paths = (
{
closed = 1;
nodes = (
"271 0 LINE",
"271 496 LINE",
"24 496 LINE",
"24 380 LINE",
"118 380 LINE",
"118 0 LINE"
);
},
{
closed = 1;
nodes = (
"245 578 OFFCURVE",
"285 619 OFFCURVE",
"285 668 CURVE SMOOTH",
"285 718 OFFCURVE",
"245 758 OFFCURVE",
"195 758 CURVE SMOOTH",
"145 758 OFFCURVE",
"105 718 OFFCURVE",
"105 668 CURVE SMOOTH",
"105 619 OFFCURVE",
"145 578 OFFCURVE",
"195 578 CURVE SMOOTH"
);
}
);
};
layerId = "61B80AC7-60CB-49DF-8181-735FACBD9F63";
paths = (
{
closed = 1;
nodes = (
"271 0 LINE",
"271 496 LINE",
"24 496 LINE",
"24 380 LINE",
"118 380 LINE",
"118 0 LINE"
);
},
{
closed = 1;
nodes = (
"245 578 OFFCURVE",
"285 619 OFFCURVE",
"285 668 CURVE SMOOTH",
"285 718 OFFCURVE",
"245 758 OFFCURVE",
"195 758 CURVE SMOOTH",
"145 758 OFFCURVE",
"105 718 OFFCURVE",
"105 668 CURVE SMOOTH",
"105 619 OFFCURVE",
"145 578 OFFCURVE",
"195 578 CURVE SMOOTH"
);
}
);
width = 315;
}
);
leftKerningGroup = i;
unicode = 0069;
},
{
glyphname = j;
lastChange = "2021-04-13 17:47:49 +0000";
layers = (
{
background = {
paths = (
{
closed = 1;
nodes = (
"134 -161 OFFCURVE",
"174 -121 OFFCURVE",
"174 7 CURVE SMOOTH",
"174 496 LINE",
"90 496 LINE",
"90 12 LINE SMOOTH",
"90 -72 OFFCURVE",
"73 -87 OFFCURVE",
"-11 -87 CURVE SMOOTH",
"-25 -87 OFFCURVE",
"-40 -87 OFFCURVE",
"-58 -86 CURVE",
"-58 -159 LINE",
"-38 -160 OFFCURVE",
"-20 -161 OFFCURVE",
"-3 -161 CURVE SMOOTH"
);
},
{
closed = 1;
nodes = (
"166 590 OFFCURVE",
"194 618 OFFCURVE",
"194 653 CURVE SMOOTH",
"194 687 OFFCURVE",
"166 715 OFFCURVE",
"132 715 CURVE SMOOTH",
"97 715 OFFCURVE",
"69 687 OFFCURVE",
"69 653 CURVE SMOOTH",
"69 618 OFFCURVE",
"97 590 OFFCURVE",
"132 590 CURVE SMOOTH"
);
}
);
};
layerId = "04EC68FF-C98D-4D46-AE83-08D67BD50805";
paths = (
{
closed = 1;
nodes = (
"134 -161 OFFCURVE",
"174 -121 OFFCURVE",
"174 7 CURVE SMOOTH",
"174 496 LINE",
"90 496 LINE",
"90 12 LINE SMOOTH",
"90 -72 OFFCURVE",
"73 -87 OFFCURVE",
"-11 -87 CURVE SMOOTH",
"-25 -87 OFFCURVE",
"-40 -87 OFFCURVE",
"-58 -86 CURVE",
"-58 -159 LINE",
"-38 -160 OFFCURVE",
"-20 -161 OFFCURVE",
"-3 -161 CURVE SMOOTH"
);
},
{
closed = 1;
nodes = (
"166 590 OFFCURVE",
"194 618 OFFCURVE",
"194 653 CURVE SMOOTH",
"194 687 OFFCURVE",
"166 715 OFFCURVE",
"132 715 CURVE SMOOTH",
"97 715 OFFCURVE",
"69 687 OFFCURVE",
"69 653 CURVE SMOOTH",
"69 618 OFFCURVE",
"97 590 OFFCURVE",
"132 590 CURVE SMOOTH"
);
}
);
width = 254;
},
{
background = {
paths = (
{
closed = 1;
nodes = (
"17 -161 LINE SMOOTH",
"126 -161 OFFCURVE",
"207 -137 OFFCURVE",
"207 -24 CURVE SMOOTH",
"207 496 LINE",
"55 496 LINE",
"55 -2 LINE SMOOTH",
"55 -35 OFFCURVE",
"41 -41 OFFCURVE",
"-11 -41 CURVE SMOOTH",
"-70 -41 LINE",
"-70 -161 LINE"
);
},
{
closed = 1;
nodes = (
"181 578 OFFCURVE",
"222 619 OFFCURVE",
"222 668 CURVE SMOOTH",
"222 718 OFFCURVE",
"181 758 OFFCURVE",
"132 758 CURVE SMOOTH",
"82 758 OFFCURVE",
"42 718 OFFCURVE",
"42 668 CURVE SMOOTH",
"42 619 OFFCURVE",
"82 578 OFFCURVE",
"132 578 CURVE SMOOTH"
);
}
);
};
layerId = "61B80AC7-60CB-49DF-8181-735FACBD9F63";
paths = (
{
closed = 1;
nodes = (
"17 -161 LINE SMOOTH",
"126 -161 OFFCURVE",
"207 -137 OFFCURVE",
"207 -24 CURVE SMOOTH",
"207 496 LINE",
"55 496 LINE",
"55 -2 LINE SMOOTH",
"55 -35 OFFCURVE",
"41 -41 OFFCURVE",
"-11 -41 CURVE SMOOTH",
"-70 -41 LINE",
"-70 -161 LINE"
);
},
{
closed = 1;
nodes = (
"181 578 OFFCURVE",
"222 619 OFFCURVE",
"222 668 CURVE SMOOTH",
"222 718 OFFCURVE",
"181 758 OFFCURVE",
"132 758 CURVE SMOOTH",
"82 758 OFFCURVE",
"42 718 OFFCURVE",
"42 668 CURVE SMOOTH",
"42 619 OFFCURVE",
"82 578 OFFCURVE",
"132 578 CURVE SMOOTH"
);
}
);
width = 259;
}
);
unicode = 006A;
},
{
color = (153,254,255,255);
glyphname = k;
lastChange = "2021-04-13 17:47:49 +0000";
layers = (
{
background = {
paths = (
{
closed = 1;
nodes = (
"154 0 LINE",
"154 166 LINE",
"212 229 LINE",
"377 0 LINE",
"480 0 LINE",
"268 291 LINE",
"455 496 LINE",
"354 496 LINE",
"154 273 LINE",
"154 668 LINE",
"70 668 LINE",
"70 0 LINE"
);
}
);
};
layerId = "04EC68FF-C98D-4D46-AE83-08D67BD50805";
paths = (
{
closed = 1;
nodes = (
"154 0 LINE",
"154 166 LINE",
"212 229 LINE",
"377 0 LINE",
"480 0 LINE",
"268 291 LINE",
"455 496 LINE",
"354 496 LINE",
"154 273 LINE",
"154 668 LINE",
"70 668 LINE",
"70 0 LINE"
);
}
);
width = 490;
},
{
background = {
paths = (
{
closed = 1;
nodes = (
"202 0 LINE",
"202 125 LINE",
"254 180 LINE",
"383 0 LINE",
"563 0 LINE",
"354 289 LINE",
"548 496 LINE",
"368 496 LINE",
"202 308 LINE",
"202 668 LINE",
"50 668 LINE",
"50 0 LINE"
);
}
);
};
layerId = "61B80AC7-60CB-49DF-8181-735FACBD9F63";
paths = (
{
closed = 1;
nodes = (
"202 0 LINE",
"202 125 LINE",
"254 180 LINE",
"383 0 LINE",
"563 0 LINE",
"354 289 LINE",
"548 496 LINE",
"368 496 LINE",
"202 308 LINE",
"202 668 LINE",
"50 668 LINE",
"50 0 LINE"
);
}
);
width = 567;
}
);
leftMetricsKey = n;
unicode = 006B;
},
{
color = (153,254,255,255);
glyphname = l;
lastChange = "2021-04-13 17:47:49 +0000";
layers = (
{
background = {
paths = (
{
closed = 1;
nodes = (
"224 0 LINE",
"224 74 LINE",
"205 74 LINE SMOOTH",
"158 74 OFFCURVE",
"154 87 OFFCURVE",
"154 138 CURVE SMOOTH",
"154 667 LINE",
"70 667 LINE",
"70 124 LINE SMOOTH",
"70 21 OFFCURVE",
"92 0 OFFCURVE",
"187 0 CURVE SMOOTH"
);
}
);
};
layerId = "04EC68FF-C98D-4D46-AE83-08D67BD50805";
paths = (
{
closed = 1;
nodes = (
"224 0 LINE",
"224 74 LINE",
"205 74 LINE SMOOTH",
"158 74 OFFCURVE",
"154 87 OFFCURVE",
"154 138 CURVE SMOOTH",
"154 667 LINE",
"70 667 LINE",
"70 124 LINE SMOOTH",
"70 21 OFFCURVE",
"92 0 OFFCURVE",
"187 0 CURVE SMOOTH"
);
}
);
width = 239;
},
{
background = {
paths = (
{
closed = 1;
nodes = (
"311 0 LINE",
"311 124 LINE",
"268 124 LINE",
"217 124 OFFCURVE",
"202 133 OFFCURVE",
"202 180 CURVE SMOOTH",
"202 668 LINE",
"50 668 LINE",
"50 140 LINE SMOOTH",
"50 23 OFFCURVE",
"92 0 OFFCURVE",
"214 0 CURVE SMOOTH"
);
}
);
};
layerId = "61B80AC7-60CB-49DF-8181-735FACBD9F63";
paths = (
{
closed = 1;
nodes = (
"311 0 LINE",
"311 124 LINE",
"268 124 LINE",
"217 124 OFFCURVE",
"202 133 OFFCURVE",
"202 180 CURVE SMOOTH",
"202 668 LINE",
"50 668 LINE",
"50 140 LINE SMOOTH",
"50 23 OFFCURVE",
"92 0 OFFCURVE",
"214 0 CURVE SMOOTH"
);
}
);
width = 314;
}
);
leftMetricsKey = n;
unicode = 006C;
},
{
color = (153,254,255,255);
glyphname = m;
lastChange = "2021-04-13 17:47:49 +0000";
layers = (
{
background = {
paths = (
{
closed = 1;
nodes = (
"154 0 LINE",
"154 269 LINE SMOOTH",
"154 375 OFFCURVE",
"202 432 OFFCURVE",
"274 432 CURVE SMOOTH",
"365 432 OFFCURVE",
"380 365 OFFCURVE",
"380 289 CURVE SMOOTH",
"380 0 LINE",
"464 0 LINE",
"464 269 LINE SMOOTH",
"464 375 OFFCURVE",
"511 432 OFFCURVE",
"583 432 CURVE SMOOTH",
"675 432 OFFCURVE",
"689 365 OFFCURVE",
"689 289 CURVE SMOOTH",
"689 0 LINE",
"773 0 LINE",
"773 314 LINE SMOOTH",
"773 427 OFFCURVE",
"728 504 OFFCURVE",
"613 504 CURVE SMOOTH",
"544 504 OFFCURVE",
"486 478 OFFCURVE",
"446 417 CURVE",
"424 471 OFFCURVE",
"379 504 OFFCURVE",
"303 504 CURVE SMOOTH",
"229 504 OFFCURVE",
"182 468 OFFCURVE",
"154 421 CURVE",
"132 496 LINE",
"70 496 LINE",
"70 0 LINE"
);
}
);
};
layerId = "04EC68FF-C98D-4D46-AE83-08D67BD50805";
paths = (
{
closed = 1;
nodes = (
"154 0 LINE",
"154 269 LINE SMOOTH",
"154 375 OFFCURVE",
"202 432 OFFCURVE",
"274 432 CURVE SMOOTH",
"365 432 OFFCURVE",
"380 365 OFFCURVE",
"380 289 CURVE SMOOTH",
"380 0 LINE",
"464 0 LINE",
"464 269 LINE SMOOTH",
"464 375 OFFCURVE",
"511 432 OFFCURVE",
"583 432 CURVE SMOOTH",
"675 432 OFFCURVE",
"689 365 OFFCURVE",
"689 289 CURVE SMOOTH",
"689 0 LINE",
"773 0 LINE",
"773 314 LINE SMOOTH",
"773 427 OFFCURVE",
"728 504 OFFCURVE",
"613 504 CURVE SMOOTH",
"544 504 OFFCURVE",
"486 478 OFFCURVE",
"446 417 CURVE",
"424 471 OFFCURVE",
"379 504 OFFCURVE",
"303 504 CURVE SMOOTH",
"229 504 OFFCURVE",
"182 468 OFFCURVE",
"154 421 CURVE",
"132 496 LINE",
"70 496 LINE",
"70 0 LINE"
);
}
);
width = 841;
},
{
background = {
paths = (
{
closed = 1;
nodes = (
"202 0 LINE",
"202 259 LINE SMOOTH",
"202 345 OFFCURVE",
"229 392 OFFCURVE",
"292 392 CURVE SMOOTH",
"363 392 OFFCURVE",
"366 334 OFFCURVE",
"366 264 CURVE SMOOTH",
"366 0 LINE",
"519 0 LINE",
"519 262 LINE SMOOTH",
"519 349 OFFCURVE",
"545 392 OFFCURVE",
"607 392 CURVE SMOOTH",
"680 392 OFFCURVE",
"684 334 OFFCURVE",
"684 264 CURVE SMOOTH",
"684 0 LINE",
"836 0 LINE",
"836 302 LINE",
"836 436 OFFCURVE",
"796 510 OFFCURVE",
"669 510 CURVE",
"599 510 OFFCURVE",
"537 482 OFFCURVE",
"499 427 CURVE",
"476 481 OFFCURVE",
"431 510 OFFCURVE",
"352 510 CURVE SMOOTH",
"278 510 OFFCURVE",
"224 467 OFFCURVE",
"202 430 CURVE",
"183 496 LINE",
"50 496 LINE",
"50 0 LINE"
);
}
);
};
layerId = "61B80AC7-60CB-49DF-8181-735FACBD9F63";
paths = (
{
closed = 1;
nodes = (
"202 0 LINE",
"202 259 LINE SMOOTH",
"202 345 OFFCURVE",
"229 392 OFFCURVE",
"292 392 CURVE SMOOTH",
"363 392 OFFCURVE",
"366 334 OFFCURVE",
"366 264 CURVE SMOOTH",
"366 0 LINE",
"519 0 LINE",
"519 262 LINE SMOOTH",
"519 349 OFFCURVE",
"545 392 OFFCURVE",
"607 392 CURVE SMOOTH",
"680 392 OFFCURVE",
"684 334 OFFCURVE",
"684 264 CURVE SMOOTH",
"684 0 LINE",
"836 0 LINE",
"836 302 LINE",
"836 436 OFFCURVE",
"796 510 OFFCURVE",
"669 510 CURVE",
"599 510 OFFCURVE",
"537 482 OFFCURVE",
"499 427 CURVE",
"476 481 OFFCURVE",
"431 510 OFFCURVE",
"352 510 CURVE SMOOTH",
"278 510 OFFCURVE",
"224 467 OFFCURVE",
"202 430 CURVE",
"183 496 LINE",
"50 496 LINE",
"50 0 LINE"
);
}
);
width = 886;
}
);
leftMetricsKey = n;
rightKerningGroup = h;
rightMetricsKey = n;
unicode = 006D;
},
{
color = (153,254,255,255);
glyphname = n;
lastChange = "2021-04-13 17:47:49 +0000";
layers = (
{
background = {
paths = (
{
closed = 1;
nodes = (
"154 0 LINE",
"154 269 LINE SMOOTH",
"154 375 OFFCURVE",
"204 432 OFFCURVE",
"285 432 CURVE SMOOTH",
"381 432 OFFCURVE",
"394 365 OFFCURVE",
"394 289 CURVE SMOOTH",
"394 0 LINE",
"478 0 LINE",
"478 314 LINE SMOOTH",
"478 427 OFFCURVE",
"434 504 OFFCURVE",
"314 504 CURVE SMOOTH",
"230 504 OFFCURVE",
"182 468 OFFCURVE",
"154 421 CURVE",
"132 496 LINE",
"70 496 LINE",
"70 0 LINE"
);
}
);
};
layerId = "04EC68FF-C98D-4D46-AE83-08D67BD50805";
paths = (
{
closed = 1;
nodes = (
"154 0 LINE",
"154 269 LINE SMOOTH",
"154 375 OFFCURVE",
"204 432 OFFCURVE",
"285 432 CURVE SMOOTH",
"381 432 OFFCURVE",
"394 365 OFFCURVE",
"394 289 CURVE SMOOTH",
"394 0 LINE",
"478 0 LINE",
"478 314 LINE SMOOTH",
"478 427 OFFCURVE",
"434 504 OFFCURVE",
"314 504 CURVE SMOOTH",
"230 504 OFFCURVE",
"182 468 OFFCURVE",
"154 421 CURVE",
"132 496 LINE",
"70 496 LINE",
"70 0 LINE"
);
}
);
width = 546;
},
{
background = {
paths = (
{
closed = 1;
nodes = (
"202 0 LINE",
"202 255 LINE SMOOTH",
"202 345 OFFCURVE",
"230 392 OFFCURVE",
"294 392 CURVE SMOOTH",
"367 392 OFFCURVE",
"370 334 OFFCURVE",
"370 264 CURVE SMOOTH",
"370 0 LINE",
"522 0 LINE",
"522 302 LINE SMOOTH",
"522 436 OFFCURVE",
"483 510 OFFCURVE",
"355 510 CURVE",
"279 510 OFFCURVE",
"224 467 OFFCURVE",
"202 430 CURVE",
"183 496 LINE",
"50 496 LINE",
"50 0 LINE"
);
}
);
};
layerId = "61B80AC7-60CB-49DF-8181-735FACBD9F63";
paths = (
{
closed = 1;
nodes = (
"202 0 LINE",
"202 255 LINE SMOOTH",
"202 345 OFFCURVE",
"230 392 OFFCURVE",
"294 392 CURVE SMOOTH",
"367 392 OFFCURVE",
"370 334 OFFCURVE",
"370 264 CURVE SMOOTH",
"370 0 LINE",
"522 0 LINE",
"522 302 LINE SMOOTH",
"522 436 OFFCURVE",
"483 510 OFFCURVE",
"355 510 CURVE",
"279 510 OFFCURVE",
"224 467 OFFCURVE",
"202 430 CURVE",
"183 496 LINE",
"50 496 LINE",
"50 0 LINE"
);
}
);
width = 572;
}
);
leftKerningGroup = n;
rightKerningGroup = h;
unicode = 006E;
},
{
color = (153,254,255,255);
glyphname = o;
lastChange = "2021-04-13 17:47:49 +0000";
layers = (
{
background = {
paths = (
{
closed = 1;
nodes = (
"391 -12 OFFCURVE",
"514 67 OFFCURVE",
"514 246 CURVE SMOOTH",
"514 425 OFFCURVE",
"391 504 OFFCURVE",
"276 504 CURVE SMOOTH",
"162 504 OFFCURVE",
"38 425 OFFCURVE",
"38 246 CURVE SMOOTH",
"38 67 OFFCURVE",
"162 -12 OFFCURVE",
"276 -12 CURVE SMOOTH"
);
},
{
closed = 1;
nodes = (
"205 62 OFFCURVE",
"128 118 OFFCURVE",
"128 246 CURVE SMOOTH",
"128 374 OFFCURVE",
"205 430 OFFCURVE",
"276 430 CURVE SMOOTH",
"348 430 OFFCURVE",
"424 374 OFFCURVE",
"424 246 CURVE SMOOTH",
"424 118 OFFCURVE",
"348 62 OFFCURVE",
"276 62 CURVE SMOOTH"
);
}
);
};
layerId = "04EC68FF-C98D-4D46-AE83-08D67BD50805";
paths = (
{
closed = 1;
nodes = (
"391 -12 OFFCURVE",
"514 67 OFFCURVE",
"514 246 CURVE SMOOTH",
"514 425 OFFCURVE",
"391 504 OFFCURVE",
"276 504 CURVE SMOOTH",
"162 504 OFFCURVE",
"38 425 OFFCURVE",
"38 246 CURVE SMOOTH",
"38 67 OFFCURVE",
"162 -12 OFFCURVE",
"276 -12 CURVE SMOOTH"
);
},
{
closed = 1;
nodes = (
"205 62 OFFCURVE",
"128 118 OFFCURVE",
"128 246 CURVE SMOOTH",
"128 374 OFFCURVE",
"205 430 OFFCURVE",
"276 430 CURVE SMOOTH",
"348 430 OFFCURVE",
"424 374 OFFCURVE",
"424 246 CURVE SMOOTH",
"424 118 OFFCURVE",
"348 62 OFFCURVE",
"276 62 CURVE SMOOTH"
);
}
);
width = 552;
},
{
background = {
paths = (
{
closed = 1;
nodes = (
"423 -12 OFFCURVE",
"549 71 OFFCURVE",
"549 250 CURVE SMOOTH",
"549 429 OFFCURVE",
"423 510 OFFCURVE",
"287 510 CURVE SMOOTH",
"149 510 OFFCURVE",
"24 429 OFFCURVE",
"24 250 CURVE SMOOTH",
"24 71 OFFCURVE",
"149 -12 OFFCURVE",
"287 -12 CURVE SMOOTH"
);
},
{
closed = 1;
nodes = (
"225 106 OFFCURVE",
"179 146 OFFCURVE",
"179 250 CURVE SMOOTH",
"179 355 OFFCURVE",
"227 392 OFFCURVE",
"287 392 CURVE SMOOTH",
"346 392 OFFCURVE",
"394 355 OFFCURVE",
"394 250 CURVE SMOOTH",
"394 146 OFFCURVE",
"348 106 OFFCURVE",
"287 106 CURVE SMOOTH"
);
}
);
};
layerId = "61B80AC7-60CB-49DF-8181-735FACBD9F63";
paths = (
{
closed = 1;
nodes = (
"423 -12 OFFCURVE",
"549 71 OFFCURVE",
"549 250 CURVE SMOOTH",
"549 429 OFFCURVE",
"423 510 OFFCURVE",
"287 510 CURVE SMOOTH",
"149 510 OFFCURVE",
"24 429 OFFCURVE",
"24 250 CURVE SMOOTH",
"24 71 OFFCURVE",
"149 -12 OFFCURVE",
"287 -12 CURVE SMOOTH"
);
},
{
closed = 1;
nodes = (
"225 106 OFFCURVE",
"179 146 OFFCURVE",
"179 250 CURVE SMOOTH",
"179 355 OFFCURVE",
"227 392 OFFCURVE",
"287 392 CURVE SMOOTH",
"346 392 OFFCURVE",
"394 355 OFFCURVE",
"394 250 CURVE SMOOTH",
"394 146 OFFCURVE",
"348 106 OFFCURVE",
"287 106 CURVE SMOOTH"
);
}
);
width = 573;
}
);
leftKerningGroup = c;
rightKerningGroup = b;
unicode = 006F;
},
{
color = (153,254,255,255);
glyphname = p;
lastChange = "2021-04-13 17:47:49 +0000";
layers = (
{
background = {
paths = (
{
closed = 1;
nodes = (
"154 -161 LINE",
"154 75 LINE",
"184 22 OFFCURVE",
"237 -12 OFFCURVE",
"315 -12 CURVE SMOOTH",
"428 -12 OFFCURVE",
"528 83 OFFCURVE",
"528 246 CURVE SMOOTH",
"528 410 OFFCURVE",
"428 504 OFFCURVE",
"315 504 CURVE SMOOTH",
"237 504 OFFCURVE",
"184 470 OFFCURVE",
"154 418 CURVE",
"131 496 LINE",
"70 496 LINE",
"70 -161 LINE"
);
},
{
closed = 1;
nodes = (
"208 60 OFFCURVE",
"152 128 OFFCURVE",
"152 246 CURVE SMOOTH",
"152 364 OFFCURVE",
"208 432 OFFCURVE",
"293 432 CURVE SMOOTH",
"378 432 OFFCURVE",
"434 364 OFFCURVE",
"434 246 CURVE SMOOTH",
"434 128 OFFCURVE",
"378 60 OFFCURVE",
"293 60 CURVE SMOOTH"
);
}
);
};
layerId = "04EC68FF-C98D-4D46-AE83-08D67BD50805";
paths = (
{
closed = 1;
nodes = (
"154 -161 LINE",
"154 75 LINE",
"184 22 OFFCURVE",
"237 -12 OFFCURVE",
"315 -12 CURVE SMOOTH",
"428 -12 OFFCURVE",
"528 83 OFFCURVE",
"528 246 CURVE SMOOTH",
"528 410 OFFCURVE",
"428 504 OFFCURVE",
"315 504 CURVE SMOOTH",
"237 504 OFFCURVE",
"184 470 OFFCURVE",
"154 418 CURVE",
"131 496 LINE",
"70 496 LINE",
"70 -161 LINE"
);
},
{
closed = 1;
nodes = (
"208 60 OFFCURVE",
"152 128 OFFCURVE",
"152 246 CURVE SMOOTH",
"152 364 OFFCURVE",
"208 432 OFFCURVE",
"293 432 CURVE SMOOTH",
"378 432 OFFCURVE",
"434 364 OFFCURVE",
"434 246 CURVE SMOOTH",
"434 128 OFFCURVE",
"378 60 OFFCURVE",
"293 60 CURVE SMOOTH"
);
}
);
width = 566;
},
{
background = {
paths = (
{
closed = 1;
nodes = (
"202 -161 LINE",
"202 71 LINE",
"234 16 OFFCURVE",
"300 -12 OFFCURVE",
"353 -12 CURVE SMOOTH",
"481 -12 OFFCURVE",
"572 85 OFFCURVE",
"572 248 CURVE SMOOTH",
"572 409 OFFCURVE",
"481 510 OFFCURVE",
"353 510 CURVE SMOOTH",
"300 510 OFFCURVE",
"234 483 OFFCURVE",
"202 428 CURVE",
"182 496 LINE",
"50 496 LINE",
"50 -161 LINE"
);
},
{
closed = 1;
nodes = (
"245 106 OFFCURVE",
"195 149 OFFCURVE",
"195 251 CURVE SMOOTH",
"195 353 OFFCURVE",
"245 392 OFFCURVE",
"305 392 CURVE SMOOTH",
"364 392 OFFCURVE",
"414 339 OFFCURVE",
"414 248 CURVE SMOOTH",
"414 155 OFFCURVE",
"364 106 OFFCURVE",
"305 106 CURVE"
);
}
);
};
layerId = "61B80AC7-60CB-49DF-8181-735FACBD9F63";
paths = (
{
closed = 1;
nodes = (
"202 -161 LINE",
"202 71 LINE",
"234 16 OFFCURVE",
"300 -12 OFFCURVE",
"353 -12 CURVE SMOOTH",
"481 -12 OFFCURVE",
"572 85 OFFCURVE",
"572 248 CURVE SMOOTH",
"572 409 OFFCURVE",
"481 510 OFFCURVE",
"353 510 CURVE SMOOTH",
"300 510 OFFCURVE",
"234 483 OFFCURVE",
"202 428 CURVE",
"182 496 LINE",
"50 496 LINE",
"50 -161 LINE"
);
},
{
closed = 1;
nodes = (
"245 106 OFFCURVE",
"195 149 OFFCURVE",
"195 251 CURVE SMOOTH",
"195 353 OFFCURVE",
"245 392 OFFCURVE",
"305 392 CURVE SMOOTH",
"364 392 OFFCURVE",
"414 339 OFFCURVE",
"414 248 CURVE SMOOTH",
"414 155 OFFCURVE",
"364 106 OFFCURVE",
"305 106 CURVE"
);
}
);
width = 596;
}
);
rightKerningGroup = b;
rightMetricsKey = o;
unicode = 0070;
},
{
color = (153,254,255,255);
glyphname = q;
lastChange = "2021-04-13 17:47:49 +0000";
layers = (
{
background = {
paths = (
{
closed = 1;
nodes = (
"572 -173 OFFCURVE",
"602 -167 OFFCURVE",
"628 -159 CURVE",
"628 -81 LINE",
"604 -90 OFFCURVE",
"583 -94 OFFCURVE",
"567 -94 CURVE SMOOTH",
"516 -94 OFFCURVE",
"496 -60 OFFCURVE",
"496 -24 CURVE SMOOTH",
"496 496 LINE",
"435 496 LINE",
"412 418 LINE",
"382 470 OFFCURVE",
"329 504 OFFCURVE",
"250 504 CURVE SMOOTH",
"137 504 OFFCURVE",
"38 410 OFFCURVE",
"38 246 CURVE SMOOTH",
"38 83 OFFCURVE",
"137 -12 OFFCURVE",
"250 -12 CURVE SMOOTH",
"329 -12 OFFCURVE",
"382 22 OFFCURVE",
"412 75 CURVE",
"412 -27 LINE SMOOTH",
"412 -141 OFFCURVE",
"475 -173 OFFCURVE",
"543 -173 CURVE SMOOTH"
);
},
{
closed = 1;
nodes = (
"187 60 OFFCURVE",
"131 128 OFFCURVE",
"131 246 CURVE SMOOTH",
"131 364 OFFCURVE",
"187 432 OFFCURVE",
"273 432 CURVE SMOOTH",
"358 432 OFFCURVE",
"414 364 OFFCURVE",
"414 246 CURVE SMOOTH",
"414 128 OFFCURVE",
"358 60 OFFCURVE",
"273 60 CURVE SMOOTH"
);
}
);
};
layerId = "04EC68FF-C98D-4D46-AE83-08D67BD50805";
paths = (
{
closed = 1;
nodes = (
"572 -173 OFFCURVE",
"602 -167 OFFCURVE",
"628 -159 CURVE",
"628 -81 LINE",
"604 -90 OFFCURVE",
"583 -94 OFFCURVE",
"567 -94 CURVE SMOOTH",
"516 -94 OFFCURVE",
"496 -60 OFFCURVE",
"496 -24 CURVE SMOOTH",
"496 496 LINE",
"435 496 LINE",
"412 418 LINE",
"382 470 OFFCURVE",
"329 504 OFFCURVE",
"250 504 CURVE SMOOTH",
"137 504 OFFCURVE",
"38 410 OFFCURVE",
"38 246 CURVE SMOOTH",
"38 83 OFFCURVE",
"137 -12 OFFCURVE",
"250 -12 CURVE SMOOTH",
"329 -12 OFFCURVE",
"382 22 OFFCURVE",
"412 75 CURVE",
"412 -27 LINE SMOOTH",
"412 -141 OFFCURVE",
"475 -173 OFFCURVE",
"543 -173 CURVE SMOOTH"
);
},
{
closed = 1;
nodes = (
"187 60 OFFCURVE",
"131 128 OFFCURVE",
"131 246 CURVE SMOOTH",
"131 364 OFFCURVE",
"187 432 OFFCURVE",
"273 432 CURVE SMOOTH",
"358 432 OFFCURVE",
"414 364 OFFCURVE",
"414 246 CURVE SMOOTH",
"414 128 OFFCURVE",
"358 60 OFFCURVE",
"273 60 CURVE SMOOTH"
);
}
);
width = 576;
},
{
background = {
paths = (
{
closed = 1;
nodes = (
"674 -24 LINE",
"552 -53 OFFCURVE",
"546 -16 OFFCURVE",
"546 38 CURVE SMOOTH",
"546 496 LINE",
"414 496 LINE",
"394 428 LINE",
"362 483 OFFCURVE",
"297 510 OFFCURVE",
"243 510 CURVE SMOOTH",
"115 510 OFFCURVE",
"24 409 OFFCURVE",
"24 248 CURVE SMOOTH",
"24 85 OFFCURVE",
"115 -12 OFFCURVE",
"243 -12 CURVE SMOOTH",
"297 -12 OFFCURVE",
"362 16 OFFCURVE",
"394 70 CURVE",
"394 -10 LINE SMOOTH",
"394 -218 OFFCURVE",
"617 -174 OFFCURVE",
"674 -155 CURVE"
);
},
{
closed = 1;
nodes = (
"232 106 OFFCURVE",
"182 155 OFFCURVE",
"182 248 CURVE SMOOTH",
"182 339 OFFCURVE",
"232 392 OFFCURVE",
"292 392 CURVE SMOOTH",
"351 392 OFFCURVE",
"401 353 OFFCURVE",
"401 251 CURVE SMOOTH",
"401 149 OFFCURVE",
"351 106 OFFCURVE",
"292 106 CURVE"
);
}
);
};
layerId = "61B80AC7-60CB-49DF-8181-735FACBD9F63";
paths = (
{
closed = 1;
nodes = (
"674 -24 LINE",
"552 -53 OFFCURVE",
"546 -16 OFFCURVE",
"546 38 CURVE SMOOTH",
"546 496 LINE",
"414 496 LINE",
"394 428 LINE",
"362 483 OFFCURVE",
"297 510 OFFCURVE",
"243 510 CURVE SMOOTH",
"115 510 OFFCURVE",
"24 409 OFFCURVE",
"24 248 CURVE SMOOTH",
"24 85 OFFCURVE",
"115 -12 OFFCURVE",
"243 -12 CURVE SMOOTH",
"297 -12 OFFCURVE",
"362 16 OFFCURVE",
"394 70 CURVE",
"394 -10 LINE SMOOTH",
"394 -218 OFFCURVE",
"617 -174 OFFCURVE",
"674 -155 CURVE"
);
},
{
closed = 1;
nodes = (
"232 106 OFFCURVE",
"182 155 OFFCURVE",
"182 248 CURVE SMOOTH",
"182 339 OFFCURVE",
"232 392 OFFCURVE",
"292 392 CURVE SMOOTH",
"351 392 OFFCURVE",
"401 353 OFFCURVE",
"401 251 CURVE SMOOTH",
"401 149 OFFCURVE",
"351 106 OFFCURVE",
"292 106 CURVE"
);
}
);
width = 601;
}
);
leftKerningGroup = c;
leftMetricsKey = o;
rightKerningGroup = q;
unicode = 0071;
},
{
color = (153,254,255,255);
glyphname = r;
lastChange = "2021-04-13 17:47:49 +0000";
layers = (
{
background = {
paths = (
{
closed = 1;
nodes = (
"154 0 LINE",
"154 213 LINE SMOOTH",
"154 345 OFFCURVE",
"199 417 OFFCURVE",
"335 417 CURVE",
"335 504 LINE",
"252 504 OFFCURVE",
"193 464 OFFCURVE",
"158 404 CURVE",
"131 496 LINE",
"70 496 LINE",
"70 0 LINE"
);
}
);
};
layerId = "04EC68FF-C98D-4D46-AE83-08D67BD50805";
paths = (
{
closed = 1;
nodes = (
"154 0 LINE",
"154 213 LINE SMOOTH",
"154 345 OFFCURVE",
"199 417 OFFCURVE",
"335 417 CURVE",
"335 504 LINE",
"252 504 OFFCURVE",
"193 464 OFFCURVE",
"158 404 CURVE",
"131 496 LINE",
"70 496 LINE",
"70 0 LINE"
);
}
);
width = 340;
},
{
background = {
paths = (
{
closed = 1;
nodes = (
"202 0 LINE",
"202 250 LINE SMOOTH",
"202 329 OFFCURVE",
"242 361 OFFCURVE",
"316 361 CURVE SMOOTH",
"330 361 OFFCURVE",
"341 360 OFFCURVE",
"357 358 CURVE",
"357 510 LINE",
"281 514 OFFCURVE",
"228 485 OFFCURVE",
"197 405 CURVE",
"170 496 LINE",
"50 496 LINE",
"50 0 LINE"
);
}
);
};
layerId = "61B80AC7-60CB-49DF-8181-735FACBD9F63";
paths = (
{
closed = 1;
nodes = (
"202 0 LINE",
"202 250 LINE SMOOTH",
"202 329 OFFCURVE",
"242 361 OFFCURVE",
"316 361 CURVE SMOOTH",
"330 361 OFFCURVE",
"341 360 OFFCURVE",
"357 358 CURVE",
"357 510 LINE",
"281 514 OFFCURVE",
"228 485 OFFCURVE",
"197 405 CURVE",
"170 496 LINE",
"50 496 LINE",
"50 0 LINE"
);
}
);
width = 372;
}
);
leftMetricsKey = n;
unicode = 0072;
},
{
color = (153,254,255,255);
glyphname = s;
lastChange = "2021-04-13 17:47:49 +0000";
layers = (
{
background = {
paths = (
{
closed = 1;
nodes = (
"342 -12 OFFCURVE",
"441 42 OFFCURVE",
"441 136 CURVE SMOOTH",
"441 347 OFFCURVE",
"126 248 OFFCURVE",
"126 368 CURVE SMOOTH",
"126 411 OFFCURVE",
"175 434 OFFCURVE",
"226 434 CURVE SMOOTH",
"273 434 OFFCURVE",
"322 415 OFFCURVE",
"339 375 CURVE",
"418 404 LINE",
"388 473 OFFCURVE",
"310 505 OFFCURVE",
"232 505 CURVE SMOOTH",
"136 505 OFFCURVE",
"41 456 OFFCURVE",
"41 367 CURVE SMOOTH",
"41 169 OFFCURVE",
"356 269 OFFCURVE",
"356 133 CURVE SMOOTH",
"356 88 OFFCURVE",
"298 59 OFFCURVE",
"239 59 CURVE SMOOTH",
"184 59 OFFCURVE",
"127 83 OFFCURVE",
"112 142 CURVE",
"31 112 LINE",
"64 27 OFFCURVE",
"153 -12 OFFCURVE",
"239 -12 CURVE SMOOTH"
);
}
);
};
layerId = "04EC68FF-C98D-4D46-AE83-08D67BD50805";
paths = (
{
closed = 1;
nodes = (
"342 -12 OFFCURVE",
"441 42 OFFCURVE",
"441 136 CURVE SMOOTH",
"441 347 OFFCURVE",
"126 248 OFFCURVE",
"126 368 CURVE SMOOTH",
"126 411 OFFCURVE",
"175 434 OFFCURVE",
"226 434 CURVE SMOOTH",
"273 434 OFFCURVE",
"322 415 OFFCURVE",
"339 375 CURVE",
"418 404 LINE",
"388 473 OFFCURVE",
"310 505 OFFCURVE",
"232 505 CURVE SMOOTH",
"136 505 OFFCURVE",
"41 456 OFFCURVE",
"41 367 CURVE SMOOTH",
"41 169 OFFCURVE",
"356 269 OFFCURVE",
"356 133 CURVE SMOOTH",
"356 88 OFFCURVE",
"298 59 OFFCURVE",
"239 59 CURVE SMOOTH",
"184 59 OFFCURVE",
"127 83 OFFCURVE",
"112 142 CURVE",
"31 112 LINE",
"64 27 OFFCURVE",
"153 -12 OFFCURVE",
"239 -12 CURVE SMOOTH"
);
}
);
width = 471;
},
{
background = {
paths = (
{
closed = 1;
nodes = (
"397 -12 OFFCURVE",
"507 45 OFFCURVE",
"507 162 CURVE SMOOTH",
"507 245 OFFCURVE",
"451 280 OFFCURVE",
"331 302 CURVE SMOOTH",
"239 319 LINE SMOOTH",
"195 327 OFFCURVE",
"178 339 OFFCURVE",
"178 359 CURVE SMOOTH",
"178 385 OFFCURVE",
"206 399 OFFCURVE",
"260 399 CURVE SMOOTH",
"305 399 OFFCURVE",
"343 389 OFFCURVE",
"353 353 CURVE",
"481 400 LINE",
"444 478 OFFCURVE",
"356 510 OFFCURVE",
"261 510 CURVE SMOOTH",
"138 510 OFFCURVE",
"33 457 OFFCURVE",
"33 353 CURVE SMOOTH",
"33 270 OFFCURVE",
"99 221 OFFCURVE",
"195 205 CURVE SMOOTH",
"284 190 LINE SMOOTH",
"341 180 OFFCURVE",
"361 166 OFFCURVE",
"361 145 CURVE SMOOTH",
"361 114 OFFCURVE",
"316 99 OFFCURVE",
"267 99 CURVE SMOOTH",
"210 99 OFFCURVE",
"165 119 OFFCURVE",
"150 161 CURVE",
"21 114 LINE",
"59 31 OFFCURVE",
"148 -12 OFFCURVE",
"264 -12 CURVE SMOOTH"
);
}
);
};
layerId = "61B80AC7-60CB-49DF-8181-735FACBD9F63";
paths = (
{
closed = 1;
nodes = (
"397 -12 OFFCURVE",
"507 45 OFFCURVE",
"507 162 CURVE SMOOTH",
"507 245 OFFCURVE",
"451 280 OFFCURVE",
"331 302 CURVE SMOOTH",
"239 319 LINE SMOOTH",
"195 327 OFFCURVE",
"178 339 OFFCURVE",
"178 359 CURVE SMOOTH",
"178 385 OFFCURVE",
"206 399 OFFCURVE",
"260 399 CURVE SMOOTH",
"305 399 OFFCURVE",
"343 389 OFFCURVE",
"353 353 CURVE",
"481 400 LINE",
"444 478 OFFCURVE",
"356 510 OFFCURVE",
"261 510 CURVE SMOOTH",
"138 510 OFFCURVE",
"33 457 OFFCURVE",
"33 353 CURVE SMOOTH",
"33 270 OFFCURVE",
"99 221 OFFCURVE",
"195 205 CURVE SMOOTH",
"284 190 LINE SMOOTH",
"341 180 OFFCURVE",
"361 166 OFFCURVE",
"361 145 CURVE SMOOTH",
"361 114 OFFCURVE",
"316 99 OFFCURVE",
"267 99 CURVE SMOOTH",
"210 99 OFFCURVE",
"165 119 OFFCURVE",
"150 161 CURVE",
"21 114 LINE",
"59 31 OFFCURVE",
"148 -12 OFFCURVE",
"264 -12 CURVE SMOOTH"
);
}
);
width = 534;
}
);
leftKerningGroup = s_2;
rightKerningGroup = s;
unicode = 0073;
},
{
color = (153,254,255,255);
glyphname = t;
lastChange = "2021-04-13 17:47:49 +0000";
layers = (
{
background = {
paths = (
{
closed = 1;
nodes = (
"284 0 LINE",
"284 74 LINE",
"239 74 LINE SMOOTH",
"191 74 OFFCURVE",
"188 87 OFFCURVE",
"188 138 CURVE SMOOTH",
"188 429 LINE",
"284 429 LINE",
"284 496 LINE",
"188 496 LINE",
"188 621 LINE",
"104 621 LINE",
"104 496 LINE",
"20 496 LINE",
"20 429 LINE",
"104 429 LINE",
"104 124 LINE SMOOTH",
"104 21 OFFCURVE",
"126 0 OFFCURVE",
"221 0 CURVE SMOOTH"
);
}
);
};
layerId = "04EC68FF-C98D-4D46-AE83-08D67BD50805";
paths = (
{
closed = 1;
nodes = (
"284 0 LINE",
"284 74 LINE",
"239 74 LINE SMOOTH",
"191 74 OFFCURVE",
"188 87 OFFCURVE",
"188 138 CURVE SMOOTH",
"188 429 LINE",
"284 429 LINE",
"284 496 LINE",
"188 496 LINE",
"188 621 LINE",
"104 621 LINE",
"104 496 LINE",
"20 496 LINE",
"20 429 LINE",
"104 429 LINE",
"104 124 LINE SMOOTH",
"104 21 OFFCURVE",
"126 0 OFFCURVE",
"221 0 CURVE SMOOTH"
);
}
);
width = 324;
},
{
background = {
paths = (
{
closed = 1;
nodes = (
"355 0 LINE",
"355 124 LINE",
"311 124 LINE SMOOTH",
"262 124 OFFCURVE",
"247 133 OFFCURVE",
"247 180 CURVE SMOOTH",
"247 380 LINE",
"355 380 LINE",
"355 496 LINE",
"247 496 LINE",
"247 620 LINE",
"95 620 LINE",
"95 496 LINE",
"13 496 LINE",
"13 380 LINE",
"95 380 LINE",
"95 140 LINE SMOOTH",
"95 23 OFFCURVE",
"137 0 OFFCURVE",
"259 0 CURVE SMOOTH"
);
}
);
};
layerId = "61B80AC7-60CB-49DF-8181-735FACBD9F63";
paths = (
{
closed = 1;
nodes = (
"355 0 LINE",
"355 124 LINE",
"311 124 LINE SMOOTH",
"262 124 OFFCURVE",
"247 133 OFFCURVE",
"247 180 CURVE SMOOTH",
"247 380 LINE",
"355 380 LINE",
"355 496 LINE",
"247 496 LINE",
"247 620 LINE",
"95 620 LINE",
"95 496 LINE",
"13 496 LINE",
"13 380 LINE",
"95 380 LINE",
"95 140 LINE SMOOTH",
"95 23 OFFCURVE",
"137 0 OFFCURVE",
"259 0 CURVE SMOOTH"
);
}
);
width = 379;
}
);
leftKerningGroup = t;
rightKerningGroup = t1;
unicode = 0074;
},
{
color = (153,254,255,255);
glyphname = u;
lastChange = "2021-04-13 17:47:49 +0000";
layers = (
{
background = {
paths = (
{
closed = 1;
nodes = (
"309 -12 OFFCURVE",
"354 24 OFFCURVE",
"382 72 CURVE",
"403 0 LINE",
"466 0 LINE",
"466 497 LINE",
"382 497 LINE",
"382 224 LINE SMOOTH",
"382 118 OFFCURVE",
"335 62 OFFCURVE",
"256 62 CURVE SMOOTH",
"165 62 OFFCURVE",
"152 128 OFFCURVE",
"152 205 CURVE SMOOTH",
"152 497 LINE",
"68 497 LINE",
"68 180 LINE SMOOTH",
"68 67 OFFCURVE",
"111 -12 OFFCURVE",
"227 -12 CURVE SMOOTH"
);
}
);
};
layerId = "04EC68FF-C98D-4D46-AE83-08D67BD50805";
paths = (
{
closed = 1;
nodes = (
"309 -12 OFFCURVE",
"354 24 OFFCURVE",
"382 72 CURVE",
"403 0 LINE",
"466 0 LINE",
"466 497 LINE",
"382 497 LINE",
"382 224 LINE SMOOTH",
"382 118 OFFCURVE",
"335 62 OFFCURVE",
"256 62 CURVE SMOOTH",
"165 62 OFFCURVE",
"152 128 OFFCURVE",
"152 205 CURVE SMOOTH",
"152 497 LINE",
"68 497 LINE",
"68 180 LINE SMOOTH",
"68 67 OFFCURVE",
"111 -12 OFFCURVE",
"227 -12 CURVE SMOOTH"
);
}
);
width = 536;
},
{
background = {
paths = (
{
closed = 1;
nodes = (
"298 -12 OFFCURVE",
"337 21 OFFCURVE",
"366 70 CURVE",
"387 0 LINE",
"519 0 LINE",
"519 496 LINE",
"366 496 LINE",
"366 235 LINE SMOOTH",
"366 143 OFFCURVE",
"342 106 OFFCURVE",
"278 106 CURVE SMOOTH",
"204 106 OFFCURVE",
"202 165 OFFCURVE",
"202 236 CURVE SMOOTH",
"202 496 LINE",
"50 496 LINE",
"50 198 LINE SMOOTH",
"50 63 OFFCURVE",
"90 -12 OFFCURVE",
"222 -12 CURVE SMOOTH"
);
}
);
};
layerId = "61B80AC7-60CB-49DF-8181-735FACBD9F63";
paths = (
{
closed = 1;
nodes = (
"298 -12 OFFCURVE",
"337 21 OFFCURVE",
"366 70 CURVE",
"387 0 LINE",
"519 0 LINE",
"519 496 LINE",
"366 496 LINE",
"366 235 LINE SMOOTH",
"366 143 OFFCURVE",
"342 106 OFFCURVE",
"278 106 CURVE SMOOTH",
"204 106 OFFCURVE",
"202 165 OFFCURVE",
"202 236 CURVE SMOOTH",
"202 496 LINE",
"50 496 LINE",
"50 198 LINE SMOOTH",
"50 63 OFFCURVE",
"90 -12 OFFCURVE",
"222 -12 CURVE SMOOTH"
);
}
);
width = 570;
}
);
leftKerningGroup = u;
rightKerningGroup = u1;
unicode = 0075;
},
{
color = (153,254,255,255);
glyphname = v;
lastChange = "2021-04-13 17:47:49 +0000";
layers = (
{
background = {
paths = (
{
closed = 1;
nodes = (
"264 0 LINE",
"441 496 LINE",
"350 496 LINE",
"221 110 LINE",
"91 496 LINE",
"0 496 LINE",
"177 0 LINE"
);
}
);
};
layerId = "04EC68FF-C98D-4D46-AE83-08D67BD50805";
paths = (
{
closed = 1;
nodes = (
"264 0 LINE",
"441 496 LINE",
"350 496 LINE",
"221 110 LINE",
"91 496 LINE",
"0 496 LINE",
"177 0 LINE"
);
}
);
width = 441;
},
{
background = {
paths = (
{
closed = 1;
nodes = (
"348 0 LINE",
"526 496 LINE",
"369 496 LINE",
"263 158 LINE",
"157 496 LINE",
"0 496 LINE",
"177 0 LINE"
);
}
);
};
layerId = "61B80AC7-60CB-49DF-8181-735FACBD9F63";
paths = (
{
closed = 1;
nodes = (
"348 0 LINE",
"526 496 LINE",
"369 496 LINE",
"263 158 LINE",
"157 496 LINE",
"0 496 LINE",
"177 0 LINE"
);
}
);
width = 526;
}
);
leftKerningGroup = y;
rightKerningGroup = y_2;
unicode = 0076;
},
{
color = (153,254,255,255);
glyphname = w;
lastChange = "2021-04-13 17:47:49 +0000";
layers = (
{
background = {
paths = (
{
closed = 1;
nodes = (
"219 0 LINE",
"327 399 LINE",
"435 0 LINE",
"512 0 LINE",
"654 496 LINE",
"564 496 LINE",
"469 129 LINE",
"371 496 LINE",
"284 496 LINE",
"185 129 LINE",
"90 496 LINE",
"0 496 LINE",
"143 0 LINE"
);
}
);
};
layerId = "04EC68FF-C98D-4D46-AE83-08D67BD50805";
paths = (
{
closed = 1;
nodes = (
"219 0 LINE",
"327 399 LINE",
"435 0 LINE",
"512 0 LINE",
"654 496 LINE",
"564 496 LINE",
"469 129 LINE",
"371 496 LINE",
"284 496 LINE",
"185 129 LINE",
"90 496 LINE",
"0 496 LINE",
"143 0 LINE"
);
}
);
width = 654;
},
{
background = {
paths = (
{
closed = 1;
nodes = (
"290 0 LINE",
"361 356 LINE",
"433 0 LINE",
"599 0 LINE",
"723 496 LINE",
"572 496 LINE",
"497 160 LINE",
"433 496 LINE",
"289 496 LINE",
"225 160 LINE",
"150 496 LINE",
"0 496 LINE",
"124 0 LINE"
);
}
);
};
layerId = "61B80AC7-60CB-49DF-8181-735FACBD9F63";
paths = (
{
closed = 1;
nodes = (
"290 0 LINE",
"361 356 LINE",
"433 0 LINE",
"599 0 LINE",
"723 496 LINE",
"572 496 LINE",
"497 160 LINE",
"433 496 LINE",
"289 496 LINE",
"225 160 LINE",
"150 496 LINE",
"0 496 LINE",
"124 0 LINE"
);
}
);
width = 723;
}
);
leftMetricsKey = v;
rightMetricsKey = v;
unicode = 0077;
},
{
color = (153,254,255,255);
glyphname = x;
lastChange = "2021-04-13 17:47:49 +0000";
layers = (
{
background = {
paths = (
{
closed = 1;
nodes = (
"99 0 LINE",
"230 185 LINE",
"362 0 LINE",
"461 0 LINE",
"280 255 LINE",
"452 496 LINE",
"353 496 LINE",
"230 324 LINE",
"108 496 LINE",
"9 496 LINE",
"181 255 LINE",
"0 0 LINE"
);
}
);
};
layerId = "04EC68FF-C98D-4D46-AE83-08D67BD50805";
paths = (
{
closed = 1;
nodes = (
"99 0 LINE",
"230 185 LINE",
"362 0 LINE",
"461 0 LINE",
"280 255 LINE",
"452 496 LINE",
"353 496 LINE",
"230 324 LINE",
"108 496 LINE",
"9 496 LINE",
"181 255 LINE",
"0 0 LINE"
);
}
);
width = 461;
},
{
background = {
paths = (
{
closed = 1;
nodes = (
"166 0 LINE",
"267 143 LINE",
"367 0 LINE",
"533 0 LINE",
"349 259 LINE",
"518 496 LINE",
"352 496 LINE",
"267 375 LINE",
"181 496 LINE",
"15 496 LINE",
"184 259 LINE",
"0 0 LINE"
);
}
);
};
layerId = "61B80AC7-60CB-49DF-8181-735FACBD9F63";
paths = (
{
closed = 1;
nodes = (
"166 0 LINE",
"267 143 LINE",
"367 0 LINE",
"533 0 LINE",
"349 259 LINE",
"518 496 LINE",
"352 496 LINE",
"267 375 LINE",
"181 496 LINE",
"15 496 LINE",
"184 259 LINE",
"0 0 LINE"
);
}
);
width = 533;
}
);
leftMetricsKey = v;
rightMetricsKey = v;
unicode = 0078;
},
{
color = (153,254,255,255);
glyphname = y;
lastChange = "2021-04-13 17:47:49 +0000";
layers = (
{
background = {
paths = (
{
closed = 1;
nodes = (
"80 -161 LINE SMOOTH",
"191 -161 OFFCURVE",
"217 -129 OFFCURVE",
"253 -22 CURVE SMOOTH",
"429 495 LINE",
"337 495 LINE",
"215 113 LINE",
"93 495 LINE",
"0 495 LINE",
"179 -1 LINE",
"156 -77 OFFCURVE",
"143 -87 OFFCURVE",
"71 -87 CURVE SMOOTH",
"37 -87 LINE",
"37 -161 LINE"
);
}
);
};
layerId = "04EC68FF-C98D-4D46-AE83-08D67BD50805";
paths = (
{
closed = 1;
nodes = (
"80 -161 LINE SMOOTH",
"191 -161 OFFCURVE",
"217 -129 OFFCURVE",
"253 -22 CURVE SMOOTH",
"429 495 LINE",
"337 495 LINE",
"215 113 LINE",
"93 495 LINE",
"0 495 LINE",
"179 -1 LINE",
"156 -77 OFFCURVE",
"143 -87 OFFCURVE",
"71 -87 CURVE SMOOTH",
"37 -87 LINE",
"37 -161 LINE"
);
}
);
width = 429;
},
{
background = {
paths = (
{
closed = 1;
nodes = (
"114 -161 LINE SMOOTH",
"243 -161 OFFCURVE",
"280 -126 OFFCURVE",
"328 0 CURVE",
"518 496 LINE",
"355 496 LINE",
"260 186 LINE",
"163 496 LINE",
"0 496 LINE",
"190 3 LINE",
"185 -10 LINE SMOOTH",
"170 -48 OFFCURVE",
"159 -51 OFFCURVE",
"95 -51 CURVE SMOOTH",
"65 -51 LINE",
"65 -161 LINE"
);
}
);
};
layerId = "61B80AC7-60CB-49DF-8181-735FACBD9F63";
paths = (
{
closed = 1;
nodes = (
"114 -161 LINE SMOOTH",
"243 -161 OFFCURVE",
"280 -126 OFFCURVE",
"328 0 CURVE",
"518 496 LINE",
"355 496 LINE",
"260 186 LINE",
"163 496 LINE",
"0 496 LINE",
"190 3 LINE",
"185 -10 LINE SMOOTH",
"170 -48 OFFCURVE",
"159 -51 OFFCURVE",
"95 -51 CURVE SMOOTH",
"65 -51 LINE",
"65 -161 LINE"
);
}
);
width = 518;
}
);
leftKerningGroup = y;
leftMetricsKey = v;
rightKerningGroup = y_2;
rightMetricsKey = v;
unicode = 0079;
},
{
color = (153,254,255,255);
glyphname = z;
lastChange = "2021-04-13 17:47:49 +0000";
layers = (
{
background = {
paths = (
{
closed = 1;
nodes = (
"430 0 LINE",
"430 74 LINE",
"135 74 LINE",
"420 422 LINE",
"420 496 LINE",
"49 496 LINE",
"49 422 LINE",
"325 422 LINE",
"40 74 LINE",
"40 0 LINE"
);
}
);
};
layerId = "04EC68FF-C98D-4D46-AE83-08D67BD50805";
paths = (
{
closed = 1;
nodes = (
"430 0 LINE",
"430 74 LINE",
"135 74 LINE",
"420 422 LINE",
"420 496 LINE",
"49 496 LINE",
"49 422 LINE",
"325 422 LINE",
"40 74 LINE",
"40 0 LINE"
);
}
);
width = 460;
},
{
background = {
paths = (
{
closed = 1;
nodes = (
"496 0 LINE",
"496 121 LINE",
"226 121 LINE",
"482 375 LINE",
"482 496 LINE",
"44 496 LINE",
"44 375 LINE",
"287 375 LINE",
"30 121 LINE",
"30 0 LINE"
);
}
);
};
layerId = "61B80AC7-60CB-49DF-8181-735FACBD9F63";
paths = (
{
closed = 1;
nodes = (
"496 0 LINE",
"496 121 LINE",
"226 121 LINE",
"482 375 LINE",
"482 496 LINE",
"44 496 LINE",
"44 375 LINE",
"287 375 LINE",
"30 121 LINE",
"30 0 LINE"
);
}
);
width = 516;
}
);
leftKerningGroup = z;
rightKerningGroup = z_2;
unicode = 007A;
},
{
glyphname = circumflex;
lastChange = "2021-04-13 17:47:49 +0000";
layers = (
{
background = {
paths = (
{
closed = 1;
nodes = (
"147 575 LINE",
"214 636 LINE",
"282 575 LINE",
"376 575 LINE",
"264 676 LINE SMOOTH",
"250 689 OFFCURVE",
"232 695 OFFCURVE",
"215 695 CURVE SMOOTH",
"197 695 OFFCURVE",
"179 689 OFFCURVE",
"165 676 CURVE SMOOTH",
"53 575 LINE"
);
}
);
};
layerId = "04EC68FF-C98D-4D46-AE83-08D67BD50805";
paths = (
{
closed = 1;
nodes = (
"147 575 LINE",
"214 636 LINE",
"282 575 LINE",
"376 575 LINE",
"264 676 LINE SMOOTH",
"250 689 OFFCURVE",
"232 695 OFFCURVE",
"215 695 CURVE SMOOTH",
"197 695 OFFCURVE",
"179 689 OFFCURVE",
"165 676 CURVE SMOOTH",
"53 575 LINE"
);
}
);
width = 429;
},
{
background = {
paths = (
{
closed = 1;
nodes = (
"166 574 LINE",
"234 635 LINE",
"302 574 LINE",
"430 574 LINE",
"284 706 LINE SMOOTH",
"270 718 OFFCURVE",
"253 726 OFFCURVE",
"234 726 CURVE SMOOTH",
"215 726 OFFCURVE",
"197 718 OFFCURVE",
"184 706 CURVE SMOOTH",
"37 574 LINE"
);
}
);
};
layerId = "61B80AC7-60CB-49DF-8181-735FACBD9F63";
paths = (
{
closed = 1;
nodes = (
"166 574 LINE",
"234 635 LINE",
"302 574 LINE",
"430 574 LINE",
"284 706 LINE SMOOTH",
"270 718 OFFCURVE",
"253 726 OFFCURVE",
"234 726 CURVE SMOOTH",
"215 726 OFFCURVE",
"197 718 OFFCURVE",
"184 706 CURVE SMOOTH",
"37 574 LINE"
);
}
);
width = 467;
}
);
unicode = 02C6;
},
{
glyphname = caron;
lastChange = "2021-04-13 17:47:49 +0000";
layers = (
{
background = {
paths = (
{
closed = 1;
nodes = (
"232 569 OFFCURVE",
"250 575 OFFCURVE",
"264 588 CURVE SMOOTH",
"376 689 LINE",
"282 689 LINE",
"214 628 LINE",
"147 689 LINE",
"53 689 LINE",
"165 588 LINE SMOOTH",
"179 575 OFFCURVE",
"197 569 OFFCURVE",
"215 569 CURVE SMOOTH"
);
}
);
};
layerId = "04EC68FF-C98D-4D46-AE83-08D67BD50805";
paths = (
{
closed = 1;
nodes = (
"232 569 OFFCURVE",
"250 575 OFFCURVE",
"264 588 CURVE SMOOTH",
"376 689 LINE",
"282 689 LINE",
"214 628 LINE",
"147 689 LINE",
"53 689 LINE",
"165 588 LINE SMOOTH",
"179 575 OFFCURVE",
"197 569 OFFCURVE",
"215 569 CURVE SMOOTH"
);
}
);
width = 429;
},
{
background = {
paths = (
{
closed = 1;
nodes = (
"253 568 OFFCURVE",
"270 575 OFFCURVE",
"284 587 CURVE SMOOTH",
"430 720 LINE",
"302 720 LINE",
"234 659 LINE",
"166 720 LINE",
"37 720 LINE",
"184 587 LINE SMOOTH",
"197 575 OFFCURVE",
"215 568 OFFCURVE",
"234 568 CURVE SMOOTH"
);
}
);
};
layerId = "61B80AC7-60CB-49DF-8181-735FACBD9F63";
paths = (
{
closed = 1;
nodes = (
"253 568 OFFCURVE",
"270 575 OFFCURVE",
"284 587 CURVE SMOOTH",
"430 720 LINE",
"302 720 LINE",
"234 659 LINE",
"166 720 LINE",
"37 720 LINE",
"184 587 LINE SMOOTH",
"197 575 OFFCURVE",
"215 568 OFFCURVE",
"234 568 CURVE SMOOTH"
);
}
);
width = 467;
}
);
unicode = 02C7;
},
{
glyphname = breve;
lastChange = "2021-04-13 17:47:49 +0000";
layers = (
{
background = {
paths = (
{
closed = 1;
nodes = (
"272 569 OFFCURVE",
"333 621 OFFCURVE",
"347 689 CURVE",
"278 689 LINE",
"265 658 OFFCURVE",
"235 636 OFFCURVE",
"200 636 CURVE SMOOTH",
"164 636 OFFCURVE",
"134 658 OFFCURVE",
"122 689 CURVE",
"53 689 LINE",
"67 621 OFFCURVE",
"127 569 OFFCURVE",
"200 569 CURVE SMOOTH"
);
}
);
};
layerId = "04EC68FF-C98D-4D46-AE83-08D67BD50805";
paths = (
{
closed = 1;
nodes = (
"272 569 OFFCURVE",
"333 621 OFFCURVE",
"347 689 CURVE",
"278 689 LINE",
"265 658 OFFCURVE",
"235 636 OFFCURVE",
"200 636 CURVE SMOOTH",
"164 636 OFFCURVE",
"134 658 OFFCURVE",
"122 689 CURVE",
"53 689 LINE",
"67 621 OFFCURVE",
"127 569 OFFCURVE",
"200 569 CURVE SMOOTH"
);
}
);
width = 399;
},
{
background = {
paths = (
{
closed = 1;
nodes = (
"272 569 OFFCURVE",
"332 621 OFFCURVE",
"344 689 CURVE",
"259 689 LINE",
"254 668 OFFCURVE",
"230 646 OFFCURVE",
"200 646 CURVE SMOOTH",
"170 646 OFFCURVE",
"147 668 OFFCURVE",
"142 689 CURVE",
"57 689 LINE",
"69 621 OFFCURVE",
"129 569 OFFCURVE",
"200 569 CURVE SMOOTH"
);
}
);
};
layerId = "61B80AC7-60CB-49DF-8181-735FACBD9F63";
paths = (
{
closed = 1;
nodes = (
"272 569 OFFCURVE",
"332 621 OFFCURVE",
"344 689 CURVE",
"259 689 LINE",
"254 668 OFFCURVE",
"230 646 OFFCURVE",
"200 646 CURVE SMOOTH",
"170 646 OFFCURVE",
"147 668 OFFCURVE",
"142 689 CURVE",
"57 689 LINE",
"69 621 OFFCURVE",
"129 569 OFFCURVE",
"200 569 CURVE SMOOTH"
);
}
);
width = 373;
}
);
unicode = 02D8;
},
{
glyphname = dotaccent;
lastChange = "2021-04-13 17:47:49 +0000";
layers = (
{
background = {
paths = (
{
closed = 1;
nodes = (
"137 590 OFFCURVE",
"161 614 OFFCURVE",
"161 644 CURVE SMOOTH",
"161 674 OFFCURVE",
"137 698 OFFCURVE",
"107 698 CURVE SMOOTH",
"77 698 OFFCURVE",
"53 674 OFFCURVE",
"53 644 CURVE SMOOTH",
"53 614 OFFCURVE",
"77 590 OFFCURVE",
"107 590 CURVE SMOOTH"
);
}
);
};
layerId = "04EC68FF-C98D-4D46-AE83-08D67BD50805";
paths = (
{
closed = 1;
nodes = (
"137 590 OFFCURVE",
"161 614 OFFCURVE",
"161 644 CURVE SMOOTH",
"161 674 OFFCURVE",
"137 698 OFFCURVE",
"107 698 CURVE SMOOTH",
"77 698 OFFCURVE",
"53 674 OFFCURVE",
"53 644 CURVE SMOOTH",
"53 614 OFFCURVE",
"77 590 OFFCURVE",
"107 590 CURVE SMOOTH"
);
}
);
width = 214;
},
{
background = {
paths = (
{
closed = 1;
nodes = (
"140 578 OFFCURVE",
"171 609 OFFCURVE",
"171 648 CURVE SMOOTH",
"171 687 OFFCURVE",
"140 719 OFFCURVE",
"101 719 CURVE SMOOTH",
"62 719 OFFCURVE",
"30 687 OFFCURVE",
"30 648 CURVE SMOOTH",
"30 609 OFFCURVE",
"62 578 OFFCURVE",
"101 578 CURVE SMOOTH"
);
}
);
};
layerId = "61B80AC7-60CB-49DF-8181-735FACBD9F63";
paths = (
{
closed = 1;
nodes = (
"140 578 OFFCURVE",
"171 609 OFFCURVE",
"171 648 CURVE SMOOTH",
"171 687 OFFCURVE",
"140 719 OFFCURVE",
"101 719 CURVE SMOOTH",
"62 719 OFFCURVE",
"30 687 OFFCURVE",
"30 648 CURVE SMOOTH",
"30 609 OFFCURVE",
"62 578 OFFCURVE",
"101 578 CURVE SMOOTH"
);
}
);
width = 201;
}
);
unicode = 02D9;
},
{
glyphname = ring;
lastChange = "2021-04-13 17:47:49 +0000";
layers = (
{
background = {
paths = (
{
closed = 1;
nodes = (
"187 559 OFFCURVE",
"233 609 OFFCURVE",
"233 668 CURVE SMOOTH",
"233 727 OFFCURVE",
"187 777 OFFCURVE",
"126 777 CURVE SMOOTH",
"64 777 OFFCURVE",
"15 727 OFFCURVE",
"15 668 CURVE SMOOTH",
"15 609 OFFCURVE",
"64 559 OFFCURVE",
"126 559 CURVE SMOOTH"
);
},
{
closed = 1;
nodes = (
"95 617 OFFCURVE",
"72 640 OFFCURVE",
"72 668 CURVE SMOOTH",
"72 696 OFFCURVE",
"95 719 OFFCURVE",
"124 719 CURVE SMOOTH",
"153 719 OFFCURVE",
"176 696 OFFCURVE",
"176 668 CURVE SMOOTH",
"176 640 OFFCURVE",
"153 617 OFFCURVE",
"124 617 CURVE SMOOTH"
);
}
);
};
layerId = "04EC68FF-C98D-4D46-AE83-08D67BD50805";
paths = (
{
closed = 1;
nodes = (
"187 559 OFFCURVE",
"233 609 OFFCURVE",
"233 668 CURVE SMOOTH",
"233 727 OFFCURVE",
"187 777 OFFCURVE",
"126 777 CURVE SMOOTH",
"64 777 OFFCURVE",
"15 727 OFFCURVE",
"15 668 CURVE SMOOTH",
"15 609 OFFCURVE",
"64 559 OFFCURVE",
"126 559 CURVE SMOOTH"
);
},
{
closed = 1;
nodes = (
"95 617 OFFCURVE",
"72 640 OFFCURVE",
"72 668 CURVE SMOOTH",
"72 696 OFFCURVE",
"95 719 OFFCURVE",
"124 719 CURVE SMOOTH",
"153 719 OFFCURVE",
"176 696 OFFCURVE",
"176 668 CURVE SMOOTH",
"176 640 OFFCURVE",
"153 617 OFFCURVE",
"124 617 CURVE SMOOTH"
);
}
);
width = 253;
},
{
background = {
paths = (
{
closed = 1;
nodes = (
"220 535 OFFCURVE",
"280 595 OFFCURVE",
"280 668 CURVE SMOOTH",
"280 741 OFFCURVE",
"220 800 OFFCURVE",
"147 800 CURVE SMOOTH",
"74 800 OFFCURVE",
"15 741 OFFCURVE",
"15 668 CURVE SMOOTH",
"15 595 OFFCURVE",
"74 535 OFFCURVE",
"147 535 CURVE SMOOTH"
);
},
{
closed = 1;
nodes = (
"121 621 OFFCURVE",
"100 642 OFFCURVE",
"100 668 CURVE SMOOTH",
"100 694 OFFCURVE",
"121 715 OFFCURVE",
"147 715 CURVE SMOOTH",
"173 715 OFFCURVE",
"194 694 OFFCURVE",
"194 668 CURVE SMOOTH",
"194 642 OFFCURVE",
"173 621 OFFCURVE",
"147 621 CURVE SMOOTH"
);
}
);
};
layerId = "61B80AC7-60CB-49DF-8181-735FACBD9F63";
paths = (
{
closed = 1;
nodes = (
"220 535 OFFCURVE",
"280 595 OFFCURVE",
"280 668 CURVE SMOOTH",
"280 741 OFFCURVE",
"220 800 OFFCURVE",
"147 800 CURVE SMOOTH",
"74 800 OFFCURVE",
"15 741 OFFCURVE",
"15 668 CURVE SMOOTH",
"15 595 OFFCURVE",
"74 535 OFFCURVE",
"147 535 CURVE SMOOTH"
);
},
{
closed = 1;
nodes = (
"121 621 OFFCURVE",
"100 642 OFFCURVE",
"100 668 CURVE SMOOTH",
"100 694 OFFCURVE",
"121 715 OFFCURVE",
"147 715 CURVE SMOOTH",
"173 715 OFFCURVE",
"194 694 OFFCURVE",
"194 668 CURVE SMOOTH",
"194 642 OFFCURVE",
"173 621 OFFCURVE",
"147 621 CURVE SMOOTH"
);
}
);
width = 295;
}
);
unicode = 02DA;
},
{
glyphname = ogonek;
lastChange = "2021-04-13 17:47:49 +0000";
layers = (
{
background = {
paths = (
{
closed = 1;
nodes = (
"166 -173 OFFCURVE",
"187 -169 OFFCURVE",
"210 -161 CURVE",
"210 -107 LINE",
"197 -113 OFFCURVE",
"184 -115 OFFCURVE",
"172 -115 CURVE SMOOTH",
"144 -115 OFFCURVE",
"123 -102 OFFCURVE",
"123 -75 CURVE SMOOTH",
"123 -50 OFFCURVE",
"142 -25 OFFCURVE",
"210 0 CURVE",
"133 0 LINE",
"84 -12 OFFCURVE",
"53 -50 OFFCURVE",
"53 -91 CURVE SMOOTH",
"53 -134 OFFCURVE",
"87 -173 OFFCURVE",
"147 -173 CURVE SMOOTH"
);
}
);
};
layerId = "04EC68FF-C98D-4D46-AE83-08D67BD50805";
paths = (
{
closed = 1;
nodes = (
"166 -173 OFFCURVE",
"187 -169 OFFCURVE",
"210 -161 CURVE",
"210 -107 LINE",
"197 -113 OFFCURVE",
"184 -115 OFFCURVE",
"172 -115 CURVE SMOOTH",
"144 -115 OFFCURVE",
"123 -102 OFFCURVE",
"123 -75 CURVE SMOOTH",
"123 -50 OFFCURVE",
"142 -25 OFFCURVE",
"210 0 CURVE",
"133 0 LINE",
"84 -12 OFFCURVE",
"53 -50 OFFCURVE",
"53 -91 CURVE SMOOTH",
"53 -134 OFFCURVE",
"87 -173 OFFCURVE",
"147 -173 CURVE SMOOTH"
);
}
);
width = 263;
},
{
background = {
paths = (
{
closed = 1;
nodes = (
"204 -174 OFFCURVE",
"243 -169 OFFCURVE",
"258 -164 CURVE",
"258 -89 LINE",
"250 -91 OFFCURVE",
"229 -98 OFFCURVE",
"209 -98 CURVE SMOOTH",
"187 -98 OFFCURVE",
"163 -92 OFFCURVE",
"163 -68 CURVE SMOOTH",
"163 -44 OFFCURVE",
"212 -23 OFFCURVE",
"258 0 CURVE",
"117 0 LINE",
"78 -12 OFFCURVE",
"37 -39 OFFCURVE",
"37 -85 CURVE SMOOTH",
"37 -123 OFFCURVE",
"71 -174 OFFCURVE",
"179 -174 CURVE SMOOTH"
);
}
);
};
layerId = "61B80AC7-60CB-49DF-8181-735FACBD9F63";
paths = (
{
closed = 1;
nodes = (
"204 -174 OFFCURVE",
"243 -169 OFFCURVE",
"258 -164 CURVE",
"258 -89 LINE",
"250 -91 OFFCURVE",
"229 -98 OFFCURVE",
"209 -98 CURVE SMOOTH",
"187 -98 OFFCURVE",
"163 -92 OFFCURVE",
"163 -68 CURVE SMOOTH",
"163 -44 OFFCURVE",
"212 -23 OFFCURVE",
"258 0 CURVE",
"117 0 LINE",
"78 -12 OFFCURVE",
"37 -39 OFFCURVE",
"37 -85 CURVE SMOOTH",
"37 -123 OFFCURVE",
"71 -174 OFFCURVE",
"179 -174 CURVE SMOOTH"
);
}
);
width = 295;
}
);
unicode = 02DB;
},
{
glyphname = quoteleft;
lastChange = "2021-04-13 17:47:49 +0000";
layers = (
{
background = {
paths = (
{
closed = 1;
nodes = (
"153 418 OFFCURVE",
"182 446 OFFCURVE",
"182 482 CURVE SMOOTH",
"182 514 OFFCURVE",
"159 541 OFFCURVE",
"128 546 CURVE",
"175 668 LINE",
"120 668 LINE",
"58 507 LINE SMOOTH",
"55 499 OFFCURVE",
"53 490 OFFCURVE",
"53 482 CURVE SMOOTH",
"53 448 OFFCURVE",
"82 418 OFFCURVE",
"118 418 CURVE SMOOTH"
);
}
);
};
layerId = "04EC68FF-C98D-4D46-AE83-08D67BD50805";
paths = (
{
closed = 1;
nodes = (
"153 418 OFFCURVE",
"182 446 OFFCURVE",
"182 482 CURVE SMOOTH",
"182 514 OFFCURVE",
"159 541 OFFCURVE",
"128 546 CURVE",
"175 668 LINE",
"120 668 LINE",
"58 507 LINE SMOOTH",
"55 499 OFFCURVE",
"53 490 OFFCURVE",
"53 482 CURVE SMOOTH",
"53 448 OFFCURVE",
"82 418 OFFCURVE",
"118 418 CURVE SMOOTH"
);
}
);
width = 235;
},
{
background = {
paths = (
{
closed = 1;
nodes = (
"192 339 OFFCURVE",
"236 383 OFFCURVE",
"236 437 CURVE SMOOTH",
"236 483 OFFCURVE",
"204 521 OFFCURVE",
"161 531 CURVE",
"214 668 LINE",
"124 668 LINE",
"48 472 LINE SMOOTH",
"44 461 OFFCURVE",
"41 449 OFFCURVE",
"41 437 CURVE SMOOTH",
"41 383 OFFCURVE",
"85 339 OFFCURVE",
"139 339 CURVE SMOOTH"
);
}
);
};
layerId = "61B80AC7-60CB-49DF-8181-735FACBD9F63";
paths = (
{
closed = 1;
nodes = (
"192 339 OFFCURVE",
"236 383 OFFCURVE",
"236 437 CURVE SMOOTH",
"236 483 OFFCURVE",
"204 521 OFFCURVE",
"161 531 CURVE",
"214 668 LINE",
"124 668 LINE",
"48 472 LINE SMOOTH",
"44 461 OFFCURVE",
"41 449 OFFCURVE",
"41 437 CURVE SMOOTH",
"41 383 OFFCURVE",
"85 339 OFFCURVE",
"139 339 CURVE SMOOTH"
);
}
);
width = 277;
}
);
leftKerningGroup = quoteleft;
rightKerningGroup = quoteleft_2;
unicode = 2018;
},
{
glyphname = quoteright;
lastChange = "2021-04-13 17:47:49 +0000";
layers = (
{
background = {
paths = (
{
closed = 1;
nodes = (
"115 429 LINE",
"177 591 LINE SMOOTH",
"180 599 OFFCURVE",
"182 607 OFFCURVE",
"182 616 CURVE SMOOTH",
"182 650 OFFCURVE",
"153 680 OFFCURVE",
"117 680 CURVE SMOOTH",
"82 680 OFFCURVE",
"53 651 OFFCURVE",
"53 615 CURVE SMOOTH",
"53 583 OFFCURVE",
"76 557 OFFCURVE",
"107 552 CURVE",
"60 429 LINE"
);
}
);
};
layerId = "04EC68FF-C98D-4D46-AE83-08D67BD50805";
paths = (
{
closed = 1;
nodes = (
"115 429 LINE",
"177 591 LINE SMOOTH",
"180 599 OFFCURVE",
"182 607 OFFCURVE",
"182 616 CURVE SMOOTH",
"182 650 OFFCURVE",
"153 680 OFFCURVE",
"117 680 CURVE SMOOTH",
"82 680 OFFCURVE",
"53 651 OFFCURVE",
"53 615 CURVE SMOOTH",
"53 583 OFFCURVE",
"76 557 OFFCURVE",
"107 552 CURVE",
"60 429 LINE"
);
}
);
width = 235;
},
{
background = {
paths = (
{
closed = 1;
nodes = (
"153 351 LINE",
"230 547 LINE SMOOTH",
"234 558 OFFCURVE",
"236 570 OFFCURVE",
"236 582 CURVE SMOOTH",
"236 636 OFFCURVE",
"192 680 OFFCURVE",
"139 680 CURVE SMOOTH",
"85 680 OFFCURVE",
"41 636 OFFCURVE",
"41 582 CURVE SMOOTH",
"41 536 OFFCURVE",
"73 498 OFFCURVE",
"116 487 CURVE",
"63 351 LINE"
);
}
);
};
layerId = "61B80AC7-60CB-49DF-8181-735FACBD9F63";
paths = (
{
closed = 1;
nodes = (
"153 351 LINE",
"230 547 LINE SMOOTH",
"234 558 OFFCURVE",
"236 570 OFFCURVE",
"236 582 CURVE SMOOTH",
"236 636 OFFCURVE",
"192 680 OFFCURVE",
"139 680 CURVE SMOOTH",
"85 680 OFFCURVE",
"41 636 OFFCURVE",
"41 582 CURVE SMOOTH",
"41 536 OFFCURVE",
"73 498 OFFCURVE",
"116 487 CURVE",
"63 351 LINE"
);
}
);
width = 277;
}
);
leftKerningGroup = quoteright;
rightKerningGroup = quoteright_2;
unicode = 2019;
},
{
glyphname = quotesinglbase;
lastChange = "2021-04-13 17:47:49 +0000";
layers = (
{
background = {
paths = (
{
closed = 1;
nodes = (
"115 -134 LINE",
"177 28 LINE SMOOTH",
"180 36 OFFCURVE",
"182 44 OFFCURVE",
"182 53 CURVE SMOOTH",
"182 87 OFFCURVE",
"153 117 OFFCURVE",
"117 117 CURVE SMOOTH",
"82 117 OFFCURVE",
"53 88 OFFCURVE",
"53 52 CURVE SMOOTH",
"53 20 OFFCURVE",
"76 -6 OFFCURVE",
"107 -11 CURVE",
"60 -134 LINE"
);
}
);
};
layerId = "04EC68FF-C98D-4D46-AE83-08D67BD50805";
paths = (
{
closed = 1;
nodes = (
"115 -134 LINE",
"177 28 LINE SMOOTH",
"180 36 OFFCURVE",
"182 44 OFFCURVE",
"182 53 CURVE SMOOTH",
"182 87 OFFCURVE",
"153 117 OFFCURVE",
"117 117 CURVE SMOOTH",
"82 117 OFFCURVE",
"53 88 OFFCURVE",
"53 52 CURVE SMOOTH",
"53 20 OFFCURVE",
"76 -6 OFFCURVE",
"107 -11 CURVE",
"60 -134 LINE"
);
}
);
width = 235;
},
{
background = {
paths = (
{
closed = 1;
nodes = (
"153 -146 LINE",
"230 51 LINE SMOOTH",
"234 62 OFFCURVE",
"236 74 OFFCURVE",
"236 86 CURVE SMOOTH",
"236 140 OFFCURVE",
"192 184 OFFCURVE",
"139 184 CURVE SMOOTH",
"85 184 OFFCURVE",
"41 140 OFFCURVE",
"41 86 CURVE SMOOTH",
"41 40 OFFCURVE",
"73 1 OFFCURVE",
"116 -9 CURVE",
"63 -146 LINE"
);
}
);
};
layerId = "61B80AC7-60CB-49DF-8181-735FACBD9F63";
paths = (
{
closed = 1;
nodes = (
"153 -146 LINE",
"230 51 LINE SMOOTH",
"234 62 OFFCURVE",
"236 74 OFFCURVE",
"236 86 CURVE SMOOTH",
"236 140 OFFCURVE",
"192 184 OFFCURVE",
"139 184 CURVE SMOOTH",
"85 184 OFFCURVE",
"41 140 OFFCURVE",
"41 86 CURVE SMOOTH",
"41 40 OFFCURVE",
"73 1 OFFCURVE",
"116 -9 CURVE",
"63 -146 LINE"
);
}
);
width = 277;
}
);
leftKerningGroup = period;
rightKerningGroup = period_2;
unicode = 201A;
},
{
glyphname = quotedblleft;
lastChange = "2021-04-13 17:47:49 +0000";
layers = (
{
background = {
paths = (
{
closed = 1;
nodes = (
"316 418 OFFCURVE",
"345 446 OFFCURVE",
"345 482 CURVE SMOOTH",
"345 514 OFFCURVE",
"322 541 OFFCURVE",
"292 546 CURVE",
"338 668 LINE",
"283 668 LINE",
"221 507 LINE SMOOTH",
"218 499 OFFCURVE",
"216 490 OFFCURVE",
"216 482 CURVE SMOOTH",
"216 448 OFFCURVE",
"245 418 OFFCURVE",
"281 418 CURVE SMOOTH"
);
},
{
closed = 1;
nodes = (
"153 418 OFFCURVE",
"182 446 OFFCURVE",
"182 482 CURVE SMOOTH",
"182 514 OFFCURVE",
"159 541 OFFCURVE",
"128 546 CURVE",
"175 668 LINE",
"120 668 LINE",
"58 507 LINE SMOOTH",
"55 499 OFFCURVE",
"53 490 OFFCURVE",
"53 482 CURVE SMOOTH",
"53 448 OFFCURVE",
"82 418 OFFCURVE",
"118 418 CURVE SMOOTH"
);
}
);
};
layerId = "04EC68FF-C98D-4D46-AE83-08D67BD50805";
paths = (
{
closed = 1;
nodes = (
"316 418 OFFCURVE",
"345 446 OFFCURVE",
"345 482 CURVE SMOOTH",
"345 514 OFFCURVE",
"322 541 OFFCURVE",
"292 546 CURVE",
"338 668 LINE",
"283 668 LINE",
"221 507 LINE SMOOTH",
"218 499 OFFCURVE",
"216 490 OFFCURVE",
"216 482 CURVE SMOOTH",
"216 448 OFFCURVE",
"245 418 OFFCURVE",
"281 418 CURVE SMOOTH"
);
},
{
closed = 1;
nodes = (
"153 418 OFFCURVE",
"182 446 OFFCURVE",
"182 482 CURVE SMOOTH",
"182 514 OFFCURVE",
"159 541 OFFCURVE",
"128 546 CURVE",
"175 668 LINE",
"120 668 LINE",
"58 507 LINE SMOOTH",
"55 499 OFFCURVE",
"53 490 OFFCURVE",
"53 482 CURVE SMOOTH",
"53 448 OFFCURVE",
"82 418 OFFCURVE",
"118 418 CURVE SMOOTH"
);
}
);
width = 398;
},
{
background = {
paths = (
{
closed = 1;
nodes = (
"192 339 OFFCURVE",
"236 383 OFFCURVE",
"236 437 CURVE SMOOTH",
"236 483 OFFCURVE",
"204 521 OFFCURVE",
"161 531 CURVE",
"214 668 LINE",
"124 668 LINE",
"48 472 LINE SMOOTH",
"44 461 OFFCURVE",
"41 449 OFFCURVE",
"41 437 CURVE SMOOTH",
"41 383 OFFCURVE",
"85 339 OFFCURVE",
"139 339 CURVE SMOOTH"
);
},
{
closed = 1;
nodes = (
"414 339 OFFCURVE",
"457 383 OFFCURVE",
"457 437 CURVE SMOOTH",
"457 483 OFFCURVE",
"425 521 OFFCURVE",
"382 531 CURVE",
"436 668 LINE",
"345 668 LINE",
"270 472 LINE SMOOTH",
"266 461 OFFCURVE",
"263 449 OFFCURVE",
"263 437 CURVE SMOOTH",
"263 383 OFFCURVE",
"307 339 OFFCURVE",
"360 339 CURVE SMOOTH"
);
}
);
};
layerId = "61B80AC7-60CB-49DF-8181-735FACBD9F63";
paths = (
{
closed = 1;
nodes = (
"192 339 OFFCURVE",
"236 383 OFFCURVE",
"236 437 CURVE SMOOTH",
"236 483 OFFCURVE",
"204 521 OFFCURVE",
"161 531 CURVE",
"214 668 LINE",
"124 668 LINE",
"48 472 LINE SMOOTH",
"44 461 OFFCURVE",
"41 449 OFFCURVE",
"41 437 CURVE SMOOTH",
"41 383 OFFCURVE",
"85 339 OFFCURVE",
"139 339 CURVE SMOOTH"
);
},
{
closed = 1;
nodes = (
"414 339 OFFCURVE",
"457 383 OFFCURVE",
"457 437 CURVE SMOOTH",
"457 483 OFFCURVE",
"425 521 OFFCURVE",
"382 531 CURVE",
"436 668 LINE",
"345 668 LINE",
"270 472 LINE SMOOTH",
"266 461 OFFCURVE",
"263 449 OFFCURVE",
"263 437 CURVE SMOOTH",
"263 383 OFFCURVE",
"307 339 OFFCURVE",
"360 339 CURVE SMOOTH"
);
}
);
width = 498;
}
);
leftKerningGroup = quoteleft;
rightKerningGroup = quoteleft_2;
unicode = 201C;
},
{
glyphname = quotedblright;
lastChange = "2021-04-13 17:47:49 +0000";
layers = (
{
background = {
paths = (
{
closed = 1;
nodes = (
"279 429 LINE",
"340 591 LINE SMOOTH",
"343 599 OFFCURVE",
"345 608 OFFCURVE",
"345 616 CURVE SMOOTH",
"345 650 OFFCURVE",
"317 680 OFFCURVE",
"281 680 CURVE SMOOTH",
"245 680 OFFCURVE",
"216 651 OFFCURVE",
"216 615 CURVE SMOOTH",
"216 583 OFFCURVE",
"239 557 OFFCURVE",
"270 552 CURVE",
"223 429 LINE"
);
},
{
closed = 1;
nodes = (
"115 429 LINE",
"177 591 LINE SMOOTH",
"180 599 OFFCURVE",
"182 607 OFFCURVE",
"182 616 CURVE SMOOTH",
"182 650 OFFCURVE",
"153 680 OFFCURVE",
"117 680 CURVE SMOOTH",
"82 680 OFFCURVE",
"53 651 OFFCURVE",
"53 615 CURVE SMOOTH",
"53 583 OFFCURVE",
"76 557 OFFCURVE",
"107 552 CURVE",
"60 429 LINE"
);
}
);
};
layerId = "04EC68FF-C98D-4D46-AE83-08D67BD50805";
paths = (
{
closed = 1;
nodes = (
"279 429 LINE",
"340 591 LINE SMOOTH",
"343 599 OFFCURVE",
"345 608 OFFCURVE",
"345 616 CURVE SMOOTH",
"345 650 OFFCURVE",
"317 680 OFFCURVE",
"281 680 CURVE SMOOTH",
"245 680 OFFCURVE",
"216 651 OFFCURVE",
"216 615 CURVE SMOOTH",
"216 583 OFFCURVE",
"239 557 OFFCURVE",
"270 552 CURVE",
"223 429 LINE"
);
},
{
closed = 1;
nodes = (
"115 429 LINE",
"177 591 LINE SMOOTH",
"180 599 OFFCURVE",
"182 607 OFFCURVE",
"182 616 CURVE SMOOTH",
"182 650 OFFCURVE",
"153 680 OFFCURVE",
"117 680 CURVE SMOOTH",
"82 680 OFFCURVE",
"53 651 OFFCURVE",
"53 615 CURVE SMOOTH",
"53 583 OFFCURVE",
"76 557 OFFCURVE",
"107 552 CURVE",
"60 429 LINE"
);
}
);
width = 398;
},
{
background = {
paths = (
{
closed = 1;
nodes = (
"153 351 LINE",
"230 547 LINE SMOOTH",
"234 558 OFFCURVE",
"236 570 OFFCURVE",
"236 582 CURVE",
"236 636 OFFCURVE",
"192 680 OFFCURVE",
"139 680 CURVE SMOOTH",
"85 680 OFFCURVE",
"41 636 OFFCURVE",
"41 582 CURVE SMOOTH",
"41 536 OFFCURVE",
"73 498 OFFCURVE",
"116 487 CURVE",
"63 351 LINE"
);
},
{
closed = 1;
nodes = (
"374 351 LINE",
"451 547 LINE SMOOTH",
"455 558 OFFCURVE",
"457 570 OFFCURVE",
"457 582 CURVE SMOOTH",
"457 636 OFFCURVE",
"414 680 OFFCURVE",
"360 680 CURVE SMOOTH",
"307 680 OFFCURVE",
"263 636 OFFCURVE",
"263 582 CURVE SMOOTH",
"263 536 OFFCURVE",
"295 498 OFFCURVE",
"338 487 CURVE",
"285 351 LINE"
);
}
);
};
layerId = "61B80AC7-60CB-49DF-8181-735FACBD9F63";
paths = (
{
closed = 1;
nodes = (
"153 351 LINE",
"230 547 LINE SMOOTH",
"234 558 OFFCURVE",
"236 570 OFFCURVE",
"236 582 CURVE",
"236 636 OFFCURVE",
"192 680 OFFCURVE",
"139 680 CURVE SMOOTH",
"85 680 OFFCURVE",
"41 636 OFFCURVE",
"41 582 CURVE SMOOTH",
"41 536 OFFCURVE",
"73 498 OFFCURVE",
"116 487 CURVE",
"63 351 LINE"
);
},
{
closed = 1;
nodes = (
"374 351 LINE",
"451 547 LINE SMOOTH",
"455 558 OFFCURVE",
"457 570 OFFCURVE",
"457 582 CURVE SMOOTH",
"457 636 OFFCURVE",
"414 680 OFFCURVE",
"360 680 CURVE SMOOTH",
"307 680 OFFCURVE",
"263 636 OFFCURVE",
"263 582 CURVE SMOOTH",
"263 536 OFFCURVE",
"295 498 OFFCURVE",
"338 487 CURVE",
"285 351 LINE"
);
}
);
width = 498;
}
);
leftKerningGroup = quoteright;
rightKerningGroup = quoteright_2;
unicode = 201D;
},
{
glyphname = quotedblbase;
lastChange = "2021-04-13 17:47:49 +0000";
layers = (
{
background = {
paths = (
{
closed = 1;
nodes = (
"279 -134 LINE",
"340 28 LINE SMOOTH",
"343 36 OFFCURVE",
"345 45 OFFCURVE",
"345 53 CURVE SMOOTH",
"345 87 OFFCURVE",
"317 117 OFFCURVE",
"281 117 CURVE SMOOTH",
"245 117 OFFCURVE",
"216 88 OFFCURVE",
"216 52 CURVE SMOOTH",
"216 20 OFFCURVE",
"239 -6 OFFCURVE",
"270 -11 CURVE",
"223 -134 LINE"
);
},
{
closed = 1;
nodes = (
"115 -134 LINE",
"177 28 LINE SMOOTH",
"180 36 OFFCURVE",
"182 44 OFFCURVE",
"182 53 CURVE SMOOTH",
"182 87 OFFCURVE",
"153 117 OFFCURVE",
"117 117 CURVE SMOOTH",
"82 117 OFFCURVE",
"53 88 OFFCURVE",
"53 52 CURVE SMOOTH",
"53 20 OFFCURVE",
"76 -6 OFFCURVE",
"107 -11 CURVE",
"60 -134 LINE"
);
}
);
};
layerId = "04EC68FF-C98D-4D46-AE83-08D67BD50805";
paths = (
{
closed = 1;
nodes = (
"279 -134 LINE",
"340 28 LINE SMOOTH",
"343 36 OFFCURVE",
"345 45 OFFCURVE",
"345 53 CURVE SMOOTH",
"345 87 OFFCURVE",
"317 117 OFFCURVE",
"281 117 CURVE SMOOTH",
"245 117 OFFCURVE",
"216 88 OFFCURVE",
"216 52 CURVE SMOOTH",
"216 20 OFFCURVE",
"239 -6 OFFCURVE",
"270 -11 CURVE",
"223 -134 LINE"
);
},
{
closed = 1;
nodes = (
"115 -134 LINE",
"177 28 LINE SMOOTH",
"180 36 OFFCURVE",
"182 44 OFFCURVE",
"182 53 CURVE SMOOTH",
"182 87 OFFCURVE",
"153 117 OFFCURVE",
"117 117 CURVE SMOOTH",
"82 117 OFFCURVE",
"53 88 OFFCURVE",
"53 52 CURVE SMOOTH",
"53 20 OFFCURVE",
"76 -6 OFFCURVE",
"107 -11 CURVE",
"60 -134 LINE"
);
}
);
width = 398;
},
{
background = {
paths = (
{
closed = 1;
nodes = (
"153 -146 LINE",
"230 51 LINE SMOOTH",
"234 62 OFFCURVE",
"236 74 OFFCURVE",
"236 86 CURVE",
"236 140 OFFCURVE",
"192 184 OFFCURVE",
"139 184 CURVE SMOOTH",
"85 184 OFFCURVE",
"41 140 OFFCURVE",
"41 86 CURVE SMOOTH",
"41 40 OFFCURVE",
"73 1 OFFCURVE",
"116 -9 CURVE",
"63 -146 LINE"
);
},
{
closed = 1;
nodes = (
"374 -146 LINE",
"451 51 LINE SMOOTH",
"455 62 OFFCURVE",
"457 74 OFFCURVE",
"457 86 CURVE SMOOTH",
"457 140 OFFCURVE",
"414 184 OFFCURVE",
"360 184 CURVE SMOOTH",
"307 184 OFFCURVE",
"263 140 OFFCURVE",
"263 86 CURVE SMOOTH",
"263 40 OFFCURVE",
"295 1 OFFCURVE",
"338 -9 CURVE",
"285 -146 LINE"
);
}
);
};
layerId = "61B80AC7-60CB-49DF-8181-735FACBD9F63";
paths = (
{
closed = 1;
nodes = (
"153 -146 LINE",
"230 51 LINE SMOOTH",
"234 62 OFFCURVE",
"236 74 OFFCURVE",
"236 86 CURVE",
"236 140 OFFCURVE",
"192 184 OFFCURVE",
"139 184 CURVE SMOOTH",
"85 184 OFFCURVE",
"41 140 OFFCURVE",
"41 86 CURVE SMOOTH",
"41 40 OFFCURVE",
"73 1 OFFCURVE",
"116 -9 CURVE",
"63 -146 LINE"
);
},
{
closed = 1;
nodes = (
"374 -146 LINE",
"451 51 LINE SMOOTH",
"455 62 OFFCURVE",
"457 74 OFFCURVE",
"457 86 CURVE SMOOTH",
"457 140 OFFCURVE",
"414 184 OFFCURVE",
"360 184 CURVE SMOOTH",
"307 184 OFFCURVE",
"263 140 OFFCURVE",
"263 86 CURVE SMOOTH",
"263 40 OFFCURVE",
"295 1 OFFCURVE",
"338 -9 CURVE",
"285 -146 LINE"
);
}
);
width = 498;
}
);
leftKerningGroup = period;
rightKerningGroup = period_2;
unicode = 201E;
},
{
glyphname = dagger;
lastChange = "2021-04-13 17:47:49 +0000";
layers = (
{
background = {
paths = (
{
closed = 1;
nodes = (
"311 0 LINE",
"311 416 LINE",
"501 416 LINE",
"501 496 LINE",
"311 496 LINE",
"311 668 LINE",
"230 668 LINE",
"230 496 LINE",
"40 496 LINE",
"40 416 LINE",
"230 416 LINE",
"230 0 LINE"
);
}
);
};
layerId = "04EC68FF-C98D-4D46-AE83-08D67BD50805";
paths = (
{
closed = 1;
nodes = (
"311 0 LINE",
"311 416 LINE",
"501 416 LINE",
"501 496 LINE",
"311 496 LINE",
"311 668 LINE",
"230 668 LINE",
"230 496 LINE",
"40 496 LINE",
"40 416 LINE",
"230 416 LINE",
"230 0 LINE"
);
}
);
width = 541;
},
{
background = {
paths = (
{
closed = 1;
nodes = (
"369 0 LINE",
"369 380 LINE",
"553 380 LINE",
"553 496 LINE",
"369 496 LINE",
"369 668 LINE",
"225 668 LINE",
"225 496 LINE",
"41 496 LINE",
"41 380 LINE",
"225 380 LINE",
"225 0 LINE"
);
}
);
};
layerId = "61B80AC7-60CB-49DF-8181-735FACBD9F63";
paths = (
{
closed = 1;
nodes = (
"369 0 LINE",
"369 380 LINE",
"553 380 LINE",
"553 496 LINE",
"369 496 LINE",
"369 668 LINE",
"225 668 LINE",
"225 496 LINE",
"41 496 LINE",
"41 380 LINE",
"225 380 LINE",
"225 0 LINE"
);
}
);
width = 594;
}
);
unicode = 2020;
},
{
glyphname = daggerdbl;
lastChange = "2021-04-13 17:47:49 +0000";
layers = (
{
background = {
paths = (
{
closed = 1;
nodes = (
"311 0 LINE",
"311 172 LINE",
"501 172 LINE",
"501 251 LINE",
"311 251 LINE",
"311 416 LINE",
"501 416 LINE",
"501 496 LINE",
"311 496 LINE",
"311 668 LINE",
"230 668 LINE",
"230 496 LINE",
"40 496 LINE",
"40 416 LINE",
"230 416 LINE",
"230 251 LINE",
"40 251 LINE",
"40 172 LINE",
"230 172 LINE",
"230 0 LINE"
);
}
);
};
layerId = "04EC68FF-C98D-4D46-AE83-08D67BD50805";
paths = (
{
closed = 1;
nodes = (
"311 0 LINE",
"311 172 LINE",
"501 172 LINE",
"501 251 LINE",
"311 251 LINE",
"311 416 LINE",
"501 416 LINE",
"501 496 LINE",
"311 496 LINE",
"311 668 LINE",
"230 668 LINE",
"230 496 LINE",
"40 496 LINE",
"40 416 LINE",
"230 416 LINE",
"230 251 LINE",
"40 251 LINE",
"40 172 LINE",
"230 172 LINE",
"230 0 LINE"
);
}
);
width = 541;
},
{
background = {
paths = (
{
closed = 1;
nodes = (
"369 0 LINE",
"369 173 LINE",
"553 173 LINE",
"553 288 LINE",
"369 288 LINE",
"369 380 LINE",
"553 380 LINE",
"553 496 LINE",
"369 496 LINE",
"369 668 LINE",
"225 668 LINE",
"225 496 LINE",
"41 496 LINE",
"41 380 LINE",
"225 380 LINE",
"225 288 LINE",
"41 288 LINE",
"41 173 LINE",
"225 173 LINE",
"225 0 LINE"
);
}
);
};
layerId = "61B80AC7-60CB-49DF-8181-735FACBD9F63";
paths = (
{
closed = 1;
nodes = (
"369 0 LINE",
"369 173 LINE",
"553 173 LINE",
"553 288 LINE",
"369 288 LINE",
"369 380 LINE",
"553 380 LINE",
"553 496 LINE",
"369 496 LINE",
"369 668 LINE",
"225 668 LINE",
"225 496 LINE",
"41 496 LINE",
"41 380 LINE",
"225 380 LINE",
"225 288 LINE",
"41 288 LINE",
"41 173 LINE",
"225 173 LINE",
"225 0 LINE"
);
}
);
width = 594;
}
);
unicode = 2021;
},
{
glyphname = bullet;
lastChange = "2021-04-13 17:47:49 +0000";
layers = (
{
background = {
paths = (
{
closed = 1;
nodes = (
"311 88 OFFCURVE",
"385 163 OFFCURVE",
"385 254 CURVE SMOOTH",
"385 346 OFFCURVE",
"311 420 OFFCURVE",
"219 420 CURVE SMOOTH",
"127 420 OFFCURVE",
"53 346 OFFCURVE",
"53 254 CURVE SMOOTH",
"53 163 OFFCURVE",
"127 88 OFFCURVE",
"219 88 CURVE SMOOTH"
);
}
);
};
layerId = "04EC68FF-C98D-4D46-AE83-08D67BD50805";
paths = (
{
closed = 1;
nodes = (
"311 88 OFFCURVE",
"385 163 OFFCURVE",
"385 254 CURVE SMOOTH",
"385 346 OFFCURVE",
"311 420 OFFCURVE",
"219 420 CURVE SMOOTH",
"127 420 OFFCURVE",
"53 346 OFFCURVE",
"53 254 CURVE SMOOTH",
"53 163 OFFCURVE",
"127 88 OFFCURVE",
"219 88 CURVE SMOOTH"
);
}
);
width = 438;
},
{
background = {
paths = (
{
closed = 1;
nodes = (
"311 88 OFFCURVE",
"385 163 OFFCURVE",
"385 254 CURVE SMOOTH",
"385 346 OFFCURVE",
"311 420 OFFCURVE",
"219 420 CURVE SMOOTH",
"127 420 OFFCURVE",
"53 346 OFFCURVE",
"53 254 CURVE SMOOTH",
"53 163 OFFCURVE",
"127 88 OFFCURVE",
"219 88 CURVE SMOOTH"
);
}
);
};
layerId = "61B80AC7-60CB-49DF-8181-735FACBD9F63";
paths = (
{
closed = 1;
nodes = (
"311 88 OFFCURVE",
"385 163 OFFCURVE",
"385 254 CURVE SMOOTH",
"385 346 OFFCURVE",
"311 420 OFFCURVE",
"219 420 CURVE SMOOTH",
"127 420 OFFCURVE",
"53 346 OFFCURVE",
"53 254 CURVE SMOOTH",
"53 163 OFFCURVE",
"127 88 OFFCURVE",
"219 88 CURVE SMOOTH"
);
}
);
width = 438;
}
);
unicode = 2022;
},
{
glyphname = ellipsis;
lastChange = "2021-04-13 17:47:49 +0000";
layers = (
{
background = {
paths = (
{
closed = 1;
nodes = (
"614 -12 OFFCURVE",
"643 17 OFFCURVE",
"643 52 CURVE SMOOTH",
"643 88 OFFCURVE",
"614 117 OFFCURVE",
"579 117 CURVE SMOOTH",
"543 117 OFFCURVE",
"514 88 OFFCURVE",
"514 52 CURVE SMOOTH",
"514 17 OFFCURVE",
"543 -12 OFFCURVE",
"579 -12 CURVE SMOOTH"
);
},
{
closed = 1;
nodes = (
"153 -12 OFFCURVE",
"182 17 OFFCURVE",
"182 52 CURVE SMOOTH",
"182 88 OFFCURVE",
"153 117 OFFCURVE",
"117 117 CURVE SMOOTH",
"82 117 OFFCURVE",
"53 88 OFFCURVE",
"53 52 CURVE SMOOTH",
"53 17 OFFCURVE",
"82 -12 OFFCURVE",
"117 -12 CURVE SMOOTH"
);
},
{
closed = 1;
nodes = (
"384 -12 OFFCURVE",
"413 17 OFFCURVE",
"413 52 CURVE SMOOTH",
"413 88 OFFCURVE",
"384 117 OFFCURVE",
"348 117 CURVE SMOOTH",
"312 117 OFFCURVE",
"284 88 OFFCURVE",
"284 52 CURVE SMOOTH",
"284 17 OFFCURVE",
"312 -12 OFFCURVE",
"348 -12 CURVE SMOOTH"
);
}
);
};
layerId = "04EC68FF-C98D-4D46-AE83-08D67BD50805";
paths = (
{
closed = 1;
nodes = (
"614 -12 OFFCURVE",
"643 17 OFFCURVE",
"643 52 CURVE SMOOTH",
"643 88 OFFCURVE",
"614 117 OFFCURVE",
"579 117 CURVE SMOOTH",
"543 117 OFFCURVE",
"514 88 OFFCURVE",
"514 52 CURVE SMOOTH",
"514 17 OFFCURVE",
"543 -12 OFFCURVE",
"579 -12 CURVE SMOOTH"
);
},
{
closed = 1;
nodes = (
"153 -12 OFFCURVE",
"182 17 OFFCURVE",
"182 52 CURVE SMOOTH",
"182 88 OFFCURVE",
"153 117 OFFCURVE",
"117 117 CURVE SMOOTH",
"82 117 OFFCURVE",
"53 88 OFFCURVE",
"53 52 CURVE SMOOTH",
"53 17 OFFCURVE",
"82 -12 OFFCURVE",
"117 -12 CURVE SMOOTH"
);
},
{
closed = 1;
nodes = (
"384 -12 OFFCURVE",
"413 17 OFFCURVE",
"413 52 CURVE SMOOTH",
"413 88 OFFCURVE",
"384 117 OFFCURVE",
"348 117 CURVE SMOOTH",
"312 117 OFFCURVE",
"284 88 OFFCURVE",
"284 52 CURVE SMOOTH",
"284 17 OFFCURVE",
"312 -12 OFFCURVE",
"348 -12 CURVE SMOOTH"
);
}
);
width = 696;
},
{
background = {
paths = (
{
closed = 1;
nodes = (
"719 -12 OFFCURVE",
"762 32 OFFCURVE",
"762 86 CURVE SMOOTH",
"762 140 OFFCURVE",
"719 184 OFFCURVE",
"665 184 CURVE SMOOTH",
"611 184 OFFCURVE",
"567 140 OFFCURVE",
"567 86 CURVE SMOOTH",
"567 32 OFFCURVE",
"611 -12 OFFCURVE",
"665 -12 CURVE SMOOTH"
);
},
{
closed = 1;
nodes = (
"192 -12 OFFCURVE",
"236 32 OFFCURVE",
"236 86 CURVE SMOOTH",
"236 140 OFFCURVE",
"192 184 OFFCURVE",
"139 184 CURVE SMOOTH",
"85 184 OFFCURVE",
"41 140 OFFCURVE",
"41 86 CURVE SMOOTH",
"41 32 OFFCURVE",
"85 -12 OFFCURVE",
"139 -12 CURVE SMOOTH"
);
},
{
closed = 1;
nodes = (
"455 -12 OFFCURVE",
"499 32 OFFCURVE",
"499 86 CURVE SMOOTH",
"499 140 OFFCURVE",
"455 184 OFFCURVE",
"401 184 CURVE SMOOTH",
"347 184 OFFCURVE",
"305 140 OFFCURVE",
"305 86 CURVE SMOOTH",
"305 32 OFFCURVE",
"347 -12 OFFCURVE",
"401 -12 CURVE SMOOTH"
);
}
);
};
layerId = "61B80AC7-60CB-49DF-8181-735FACBD9F63";
paths = (
{
closed = 1;
nodes = (
"719 -12 OFFCURVE",
"762 32 OFFCURVE",
"762 86 CURVE SMOOTH",
"762 140 OFFCURVE",
"719 184 OFFCURVE",
"665 184 CURVE SMOOTH",
"611 184 OFFCURVE",
"567 140 OFFCURVE",
"567 86 CURVE SMOOTH",
"567 32 OFFCURVE",
"611 -12 OFFCURVE",
"665 -12 CURVE SMOOTH"
);
},
{
closed = 1;
nodes = (
"192 -12 OFFCURVE",
"236 32 OFFCURVE",
"236 86 CURVE SMOOTH",
"236 140 OFFCURVE",
"192 184 OFFCURVE",
"139 184 CURVE SMOOTH",
"85 184 OFFCURVE",
"41 140 OFFCURVE",
"41 86 CURVE SMOOTH",
"41 32 OFFCURVE",
"85 -12 OFFCURVE",
"139 -12 CURVE SMOOTH"
);
},
{
closed = 1;
nodes = (
"455 -12 OFFCURVE",
"499 32 OFFCURVE",
"499 86 CURVE SMOOTH",
"499 140 OFFCURVE",
"455 184 OFFCURVE",
"401 184 CURVE SMOOTH",
"347 184 OFFCURVE",
"305 140 OFFCURVE",
"305 86 CURVE SMOOTH",
"305 32 OFFCURVE",
"347 -12 OFFCURVE",
"401 -12 CURVE SMOOTH"
);
}
);
width = 803;
}
);
leftKerningGroup = period;
rightKerningGroup = period_2;
unicode = 2026;
},
{
glyphname = perthousand;
lastChange = "2021-04-13 17:47:49 +0000";
layers = (
{
background = {
paths = (
{
closed = 1;
nodes = (
"274 0 LINE",
"742 668 LINE",
"654 668 LINE",
"186 0 LINE"
);
},
{
closed = 1;
nodes = (
"320 316 OFFCURVE",
"401 398 OFFCURVE",
"401 498 CURVE SMOOTH",
"401 598 OFFCURVE",
"320 680 OFFCURVE",
"220 680 CURVE SMOOTH",
"119 680 OFFCURVE",
"38 598 OFFCURVE",
"38 498 CURVE SMOOTH",
"38 398 OFFCURVE",
"119 316 OFFCURVE",
"220 316 CURVE SMOOTH"
);
},
{
closed = 1;
nodes = (
"161 391 OFFCURVE",
"112 439 OFFCURVE",
"112 498 CURVE SMOOTH",
"112 557 OFFCURVE",
"161 605 OFFCURVE",
"220 605 CURVE SMOOTH",
"279 605 OFFCURVE",
"327 557 OFFCURVE",
"327 498 CURVE SMOOTH",
"327 439 OFFCURVE",
"279 391 OFFCURVE",
"220 391 CURVE SMOOTH"
);
},
{
closed = 1;
nodes = (
"808 -12 OFFCURVE",
"889 69 OFFCURVE",
"889 169 CURVE SMOOTH",
"889 270 OFFCURVE",
"808 351 OFFCURVE",
"708 351 CURVE SMOOTH",
"607 351 OFFCURVE",
"526 270 OFFCURVE",
"526 169 CURVE SMOOTH",
"526 69 OFFCURVE",
"607 -12 OFFCURVE",
"708 -12 CURVE SMOOTH"
);
},
{
closed = 1;
nodes = (
"648 62 OFFCURVE",
"600 110 OFFCURVE",
"600 169 CURVE SMOOTH",
"600 229 OFFCURVE",
"648 277 OFFCURVE",
"708 277 CURVE SMOOTH",
"767 277 OFFCURVE",
"815 229 OFFCURVE",
"815 169 CURVE SMOOTH",
"815 110 OFFCURVE",
"767 62 OFFCURVE",
"708 62 CURVE SMOOTH"
);
},
{
closed = 1;
nodes = (
"1209 -12 OFFCURVE",
"1290 69 OFFCURVE",
"1290 169 CURVE SMOOTH",
"1290 270 OFFCURVE",
"1209 351 OFFCURVE",
"1109 351 CURVE SMOOTH",
"1008 351 OFFCURVE",
"927 270 OFFCURVE",
"927 169 CURVE SMOOTH",
"927 69 OFFCURVE",
"1008 -12 OFFCURVE",
"1109 -12 CURVE SMOOTH"
);
},
{
closed = 1;
nodes = (
"1049 62 OFFCURVE",
"1001 110 OFFCURVE",
"1001 169 CURVE SMOOTH",
"1001 229 OFFCURVE",
"1049 277 OFFCURVE",
"1109 277 CURVE SMOOTH",
"1168 277 OFFCURVE",
"1216 229 OFFCURVE",
"1216 169 CURVE SMOOTH",
"1216 110 OFFCURVE",
"1168 62 OFFCURVE",
"1109 62 CURVE SMOOTH"
);
}
);
};
layerId = "04EC68FF-C98D-4D46-AE83-08D67BD50805";
paths = (
{
closed = 1;
nodes = (
"274 0 LINE",
"742 668 LINE",
"654 668 LINE",
"186 0 LINE"
);
},
{
closed = 1;
nodes = (
"320 316 OFFCURVE",
"401 398 OFFCURVE",
"401 498 CURVE SMOOTH",
"401 598 OFFCURVE",
"320 680 OFFCURVE",
"220 680 CURVE SMOOTH",
"119 680 OFFCURVE",
"38 598 OFFCURVE",
"38 498 CURVE SMOOTH",
"38 398 OFFCURVE",
"119 316 OFFCURVE",
"220 316 CURVE SMOOTH"
);
},
{
closed = 1;
nodes = (
"161 391 OFFCURVE",
"112 439 OFFCURVE",
"112 498 CURVE SMOOTH",
"112 557 OFFCURVE",
"161 605 OFFCURVE",
"220 605 CURVE SMOOTH",
"279 605 OFFCURVE",
"327 557 OFFCURVE",
"327 498 CURVE SMOOTH",
"327 439 OFFCURVE",
"279 391 OFFCURVE",
"220 391 CURVE SMOOTH"
);
},
{
closed = 1;
nodes = (
"808 -12 OFFCURVE",
"889 69 OFFCURVE",
"889 169 CURVE SMOOTH",
"889 270 OFFCURVE",
"808 351 OFFCURVE",
"708 351 CURVE SMOOTH",
"607 351 OFFCURVE",
"526 270 OFFCURVE",
"526 169 CURVE SMOOTH",
"526 69 OFFCURVE",
"607 -12 OFFCURVE",
"708 -12 CURVE SMOOTH"
);
},
{
closed = 1;
nodes = (
"648 62 OFFCURVE",
"600 110 OFFCURVE",
"600 169 CURVE SMOOTH",
"600 229 OFFCURVE",
"648 277 OFFCURVE",
"708 277 CURVE SMOOTH",
"767 277 OFFCURVE",
"815 229 OFFCURVE",
"815 169 CURVE SMOOTH",
"815 110 OFFCURVE",
"767 62 OFFCURVE",
"708 62 CURVE SMOOTH"
);
},
{
closed = 1;
nodes = (
"1209 -12 OFFCURVE",
"1290 69 OFFCURVE",
"1290 169 CURVE SMOOTH",
"1290 270 OFFCURVE",
"1209 351 OFFCURVE",
"1109 351 CURVE SMOOTH",
"1008 351 OFFCURVE",
"927 270 OFFCURVE",
"927 169 CURVE SMOOTH",
"927 69 OFFCURVE",
"1008 -12 OFFCURVE",
"1109 -12 CURVE SMOOTH"
);
},
{
closed = 1;
nodes = (
"1049 62 OFFCURVE",
"1001 110 OFFCURVE",
"1001 169 CURVE SMOOTH",
"1001 229 OFFCURVE",
"1049 277 OFFCURVE",
"1109 277 CURVE SMOOTH",
"1168 277 OFFCURVE",
"1216 229 OFFCURVE",
"1216 169 CURVE SMOOTH",
"1216 110 OFFCURVE",
"1168 62 OFFCURVE",
"1109 62 CURVE SMOOTH"
);
}
);
width = 1328;
},
{
background = {
paths = (
{
closed = 1;
nodes = (
"318 0 LINE",
"786 668 LINE",
"659 668 LINE",
"192 0 LINE"
);
},
{
closed = 1;
nodes = (
"329 286 OFFCURVE",
"418 374 OFFCURVE",
"418 483 CURVE SMOOTH",
"418 592 OFFCURVE",
"329 680 OFFCURVE",
"221 680 CURVE SMOOTH",
"112 680 OFFCURVE",
"24 592 OFFCURVE",
"24 483 CURVE SMOOTH",
"24 374 OFFCURVE",
"112 286 OFFCURVE",
"221 286 CURVE SMOOTH"
);
},
{
closed = 1;
nodes = (
"178 404 OFFCURVE",
"143 439 OFFCURVE",
"143 483 CURVE SMOOTH",
"143 526 OFFCURVE",
"178 561 OFFCURVE",
"221 561 CURVE SMOOTH",
"265 561 OFFCURVE",
"300 526 OFFCURVE",
"300 483 CURVE SMOOTH",
"300 439 OFFCURVE",
"265 404 OFFCURVE",
"221 404 CURVE SMOOTH"
);
},
{
closed = 1;
nodes = (
"865 -12 OFFCURVE",
"953 77 OFFCURVE",
"953 186 CURVE SMOOTH",
"953 295 OFFCURVE",
"865 382 OFFCURVE",
"756 382 CURVE SMOOTH",
"647 382 OFFCURVE",
"559 295 OFFCURVE",
"559 186 CURVE SMOOTH",
"559 77 OFFCURVE",
"647 -12 OFFCURVE",
"756 -12 CURVE SMOOTH"
);
},
{
closed = 1;
nodes = (
"713 107 OFFCURVE",
"677 142 OFFCURVE",
"677 186 CURVE SMOOTH",
"677 229 OFFCURVE",
"713 264 OFFCURVE",
"756 264 CURVE SMOOTH",
"799 264 OFFCURVE",
"835 229 OFFCURVE",
"835 186 CURVE SMOOTH",
"835 142 OFFCURVE",
"799 107 OFFCURVE",
"756 107 CURVE SMOOTH"
);
},
{
closed = 1;
nodes = (
"1294 -12 OFFCURVE",
"1382 77 OFFCURVE",
"1382 186 CURVE",
"1382 295 OFFCURVE",
"1294 382 OFFCURVE",
"1185 382 CURVE SMOOTH",
"1076 382 OFFCURVE",
"988 295 OFFCURVE",
"988 186 CURVE SMOOTH",
"988 77 OFFCURVE",
"1076 -12 OFFCURVE",
"1185 -12 CURVE SMOOTH"
);
},
{
closed = 1;
nodes = (
"1141 107 OFFCURVE",
"1106 142 OFFCURVE",
"1106 186 CURVE SMOOTH",
"1106 229 OFFCURVE",
"1141 264 OFFCURVE",
"1185 264 CURVE SMOOTH",
"1228 264 OFFCURVE",
"1263 229 OFFCURVE",
"1263 186 CURVE SMOOTH",
"1263 142 OFFCURVE",
"1228 107 OFFCURVE",
"1185 107 CURVE SMOOTH"
);
}
);
};
layerId = "61B80AC7-60CB-49DF-8181-735FACBD9F63";
paths = (
{
closed = 1;
nodes = (
"318 0 LINE",
"786 668 LINE",
"659 668 LINE",
"192 0 LINE"
);
},
{
closed = 1;
nodes = (
"329 286 OFFCURVE",
"418 374 OFFCURVE",
"418 483 CURVE SMOOTH",
"418 592 OFFCURVE",
"329 680 OFFCURVE",
"221 680 CURVE SMOOTH",
"112 680 OFFCURVE",
"24 592 OFFCURVE",
"24 483 CURVE SMOOTH",
"24 374 OFFCURVE",
"112 286 OFFCURVE",
"221 286 CURVE SMOOTH"
);
},
{
closed = 1;
nodes = (
"178 404 OFFCURVE",
"143 439 OFFCURVE",
"143 483 CURVE SMOOTH",
"143 526 OFFCURVE",
"178 561 OFFCURVE",
"221 561 CURVE SMOOTH",
"265 561 OFFCURVE",
"300 526 OFFCURVE",
"300 483 CURVE SMOOTH",
"300 439 OFFCURVE",
"265 404 OFFCURVE",
"221 404 CURVE SMOOTH"
);
},
{
closed = 1;
nodes = (
"865 -12 OFFCURVE",
"953 77 OFFCURVE",
"953 186 CURVE SMOOTH",
"953 295 OFFCURVE",
"865 382 OFFCURVE",
"756 382 CURVE SMOOTH",
"647 382 OFFCURVE",
"559 295 OFFCURVE",
"559 186 CURVE SMOOTH",
"559 77 OFFCURVE",
"647 -12 OFFCURVE",
"756 -12 CURVE SMOOTH"
);
},
{
closed = 1;
nodes = (
"713 107 OFFCURVE",
"677 142 OFFCURVE",
"677 186 CURVE SMOOTH",
"677 229 OFFCURVE",
"713 264 OFFCURVE",
"756 264 CURVE SMOOTH",
"799 264 OFFCURVE",
"835 229 OFFCURVE",
"835 186 CURVE SMOOTH",
"835 142 OFFCURVE",
"799 107 OFFCURVE",
"756 107 CURVE SMOOTH"
);
},
{
closed = 1;
nodes = (
"1294 -12 OFFCURVE",
"1382 77 OFFCURVE",
"1382 186 CURVE",
"1382 295 OFFCURVE",
"1294 382 OFFCURVE",
"1185 382 CURVE SMOOTH",
"1076 382 OFFCURVE",
"988 295 OFFCURVE",
"988 186 CURVE SMOOTH",
"988 77 OFFCURVE",
"1076 -12 OFFCURVE",
"1185 -12 CURVE SMOOTH"
);
},
{
closed = 1;
nodes = (
"1141 107 OFFCURVE",
"1106 142 OFFCURVE",
"1106 186 CURVE SMOOTH",
"1106 229 OFFCURVE",
"1141 264 OFFCURVE",
"1185 264 CURVE SMOOTH",
"1228 264 OFFCURVE",
"1263 229 OFFCURVE",
"1263 186 CURVE SMOOTH",
"1263 142 OFFCURVE",
"1228 107 OFFCURVE",
"1185 107 CURVE SMOOTH"
);
}
);
width = 1406;
}
);
leftKerningGroup = percent;
leftMetricsKey = o;
rightMetricsKey = o;
unicode = 2030;
},
{
glyphname = guilsinglleft;
lastChange = "2021-04-13 17:47:49 +0000";
layers = (
{
background = {
paths = (
{
closed = 1;
nodes = (
"300 40 LINE",
"151 250 LINE",
"300 461 LINE",
"201 461 LINE",
"53 250 LINE",
"201 40 LINE"
);
}
);
};
layerId = "04EC68FF-C98D-4D46-AE83-08D67BD50805";
paths = (
{
closed = 1;
nodes = (
"300 40 LINE",
"151 250 LINE",
"300 461 LINE",
"201 461 LINE",
"53 250 LINE",
"201 40 LINE"
);
}
);
width = 353;
},
{
background = {
paths = (
{
closed = 1;
nodes = (
"363 40 LINE",
"214 250 LINE",
"362 461 LINE",
"189 461 LINE",
"41 250 LINE",
"189 40 LINE"
);
}
);
};
layerId = "61B80AC7-60CB-49DF-8181-735FACBD9F63";
paths = (
{
closed = 1;
nodes = (
"363 40 LINE",
"214 250 LINE",
"362 461 LINE",
"189 461 LINE",
"41 250 LINE",
"189 40 LINE"
);
}
);
width = 404;
}
);
leftKerningGroup = guilsinglleft;
rightKerningGroup = guilsinglleft_2;
unicode = 2039;
},
{
glyphname = guilsinglright;
lastChange = "2021-04-13 17:47:49 +0000";
layers = (
{
background = {
paths = (
{
closed = 1;
nodes = (
"153 40 LINE",
"300 250 LINE",
"153 461 LINE",
"53 461 LINE",
"202 250 LINE",
"53 40 LINE"
);
}
);
};
layerId = "04EC68FF-C98D-4D46-AE83-08D67BD50805";
paths = (
{
closed = 1;
nodes = (
"153 40 LINE",
"300 250 LINE",
"153 461 LINE",
"53 461 LINE",
"202 250 LINE",
"53 40 LINE"
);
}
);
width = 353;
},
{
background = {
paths = (
{
closed = 1;
nodes = (
"216 40 LINE",
"363 249 LINE",
"216 460 LINE",
"42 460 LINE",
"191 249 LINE",
"41 40 LINE"
);
}
);
};
layerId = "61B80AC7-60CB-49DF-8181-735FACBD9F63";
paths = (
{
closed = 1;
nodes = (
"216 40 LINE",
"363 249 LINE",
"216 460 LINE",
"42 460 LINE",
"191 249 LINE",
"41 40 LINE"
);
}
);
width = 404;
}
);
leftKerningGroup = guilsinglright;
rightKerningGroup = guilsinglright_2;
unicode = 203A;
},
{
color = (153,254,255,255);
glyphname = fraction;
lastChange = "2021-04-13 17:47:49 +0000";
layers = (
{
background = {
paths = (
{
closed = 1;
nodes = (
"103 0 LINE",
"571 668 LINE",
"483 668 LINE",
"15 0 LINE"
);
}
);
};
layerId = "04EC68FF-C98D-4D46-AE83-08D67BD50805";
paths = (
{
closed = 1;
nodes = (
"103 0 LINE",
"571 668 LINE",
"483 668 LINE",
"15 0 LINE"
);
}
);
width = 586;
},
{
background = {
paths = (
{
closed = 1;
nodes = (
"142 0 LINE",
"609 668 LINE",
"483 668 LINE",
"15 0 LINE"
);
}
);
};
layerId = "61B80AC7-60CB-49DF-8181-735FACBD9F63";
paths = (
{
closed = 1;
nodes = (
"142 0 LINE",
"609 668 LINE",
"483 668 LINE",
"15 0 LINE"
);
}
);
width = 624;
}
);
unicode = 2044;
},
{
glyphname = ordfeminine;
lastChange = "2021-04-13 17:47:49 +0000";
layers = (
{
background = {
paths = (
{
closed = 1;
nodes = (
"188 397 OFFCURVE",
"231 409 OFFCURVE",
"248 442 CURVE",
"260 403 LINE",
"318 403 LINE",
"312 433 OFFCURVE",
"307 460 OFFCURVE",
"307 491 CURVE SMOOTH",
"307 573 LINE SMOOTH",
"307 665 OFFCURVE",
"252 692 OFFCURVE",
"189 692 CURVE SMOOTH",
"126 692 OFFCURVE",
"83 665 OFFCURVE",
"68 625 CURVE",
"129 607 LINE",
"135 632 OFFCURVE",
"157 643 OFFCURVE",
"186 643 CURVE SMOOTH",
"237 643 OFFCURVE",
"239 610 OFFCURVE",
"239 578 CURVE",
"141 570 OFFCURVE",
"53 552 OFFCURVE",
"53 478 CURVE SMOOTH",
"53 430 OFFCURVE",
"91 397 OFFCURVE",
"152 397 CURVE SMOOTH"
);
},
{
closed = 1;
nodes = (
"142 448 OFFCURVE",
"123 460 OFFCURVE",
"123 483 CURVE SMOOTH",
"123 510 OFFCURVE",
"150 520 OFFCURVE",
"239 530 CURVE",
"239 519 LINE SMOOTH",
"239 479 OFFCURVE",
"219 448 OFFCURVE",
"172 448 CURVE SMOOTH"
);
}
);
};
layerId = "04EC68FF-C98D-4D46-AE83-08D67BD50805";
paths = (
{
closed = 1;
nodes = (
"188 397 OFFCURVE",
"231 409 OFFCURVE",
"248 442 CURVE",
"260 403 LINE",
"318 403 LINE",
"312 433 OFFCURVE",
"307 460 OFFCURVE",
"307 491 CURVE SMOOTH",
"307 573 LINE SMOOTH",
"307 665 OFFCURVE",
"252 692 OFFCURVE",
"189 692 CURVE SMOOTH",
"126 692 OFFCURVE",
"83 665 OFFCURVE",
"68 625 CURVE",
"129 607 LINE",
"135 632 OFFCURVE",
"157 643 OFFCURVE",
"186 643 CURVE SMOOTH",
"237 643 OFFCURVE",
"239 610 OFFCURVE",
"239 578 CURVE",
"141 570 OFFCURVE",
"53 552 OFFCURVE",
"53 478 CURVE SMOOTH",
"53 430 OFFCURVE",
"91 397 OFFCURVE",
"152 397 CURVE SMOOTH"
);
},
{
closed = 1;
nodes = (
"142 448 OFFCURVE",
"123 460 OFFCURVE",
"123 483 CURVE SMOOTH",
"123 510 OFFCURVE",
"150 520 OFFCURVE",
"239 530 CURVE",
"239 519 LINE SMOOTH",
"239 479 OFFCURVE",
"219 448 OFFCURVE",
"172 448 CURVE SMOOTH"
);
}
);
width = 371;
},
{
background = {
paths = (
{
closed = 1;
nodes = (
"208 395 OFFCURVE",
"235 412 OFFCURVE",
"249 435 CURVE",
"258 403 LINE",
"342 403 LINE",
"337 444 OFFCURVE",
"337 483 OFFCURVE",
"337 518 CURVE",
"337 578 LINE",
"338 658 OFFCURVE",
"295 691 OFFCURVE",
"210 691 CURVE SMOOTH",
"140 691 OFFCURVE",
"92 671 OFFCURVE",
"72 630 CURVE",
"159 599 LINE",
"163 618 OFFCURVE",
"180 623 OFFCURVE",
"198 623 CURVE SMOOTH",
"225 623 OFFCURVE",
"238 614 OFFCURVE",
"238 594 CURVE SMOOTH",
"238 588 LINE",
"203 584 LINE SMOOTH",
"160 579 OFFCURVE",
"107 572 OFFCURVE",
"79 550 CURVE SMOOTH",
"63 538 OFFCURVE",
"53 518 OFFCURVE",
"53 491 CURVE SMOOTH",
"53 440 OFFCURVE",
"91 395 OFFCURVE",
"160 395 CURVE SMOOTH"
);
},
{
closed = 1;
nodes = (
"167 467 OFFCURVE",
"157 480 OFFCURVE",
"157 495 CURVE SMOOTH",
"157 509 OFFCURVE",
"167 520 OFFCURVE",
"203 523 CURVE SMOOTH",
"240 526 LINE",
"240 509 LINE",
"240 482 OFFCURVE",
"218 467 OFFCURVE",
"190 467 CURVE SMOOTH"
);
}
);
};
layerId = "61B80AC7-60CB-49DF-8181-735FACBD9F63";
paths = (
{
closed = 1;
nodes = (
"208 395 OFFCURVE",
"235 412 OFFCURVE",
"249 435 CURVE",
"258 403 LINE",
"342 403 LINE",
"337 444 OFFCURVE",
"337 483 OFFCURVE",
"337 518 CURVE",
"337 578 LINE",
"338 658 OFFCURVE",
"295 691 OFFCURVE",
"210 691 CURVE SMOOTH",
"140 691 OFFCURVE",
"92 671 OFFCURVE",
"72 630 CURVE",
"159 599 LINE",
"163 618 OFFCURVE",
"180 623 OFFCURVE",
"198 623 CURVE SMOOTH",
"225 623 OFFCURVE",
"238 614 OFFCURVE",
"238 594 CURVE SMOOTH",
"238 588 LINE",
"203 584 LINE SMOOTH",
"160 579 OFFCURVE",
"107 572 OFFCURVE",
"79 550 CURVE SMOOTH",
"63 538 OFFCURVE",
"53 518 OFFCURVE",
"53 491 CURVE SMOOTH",
"53 440 OFFCURVE",
"91 395 OFFCURVE",
"160 395 CURVE SMOOTH"
);
},
{
closed = 1;
nodes = (
"167 467 OFFCURVE",
"157 480 OFFCURVE",
"157 495 CURVE SMOOTH",
"157 509 OFFCURVE",
"167 520 OFFCURVE",
"203 523 CURVE SMOOTH",
"240 526 LINE",
"240 509 LINE",
"240 482 OFFCURVE",
"218 467 OFFCURVE",
"190 467 CURVE SMOOTH"
);
}
);
width = 395;
}
);
unicode = 00AA;
},
{
glyphname = guillemotleft;
lastChange = "2021-04-13 17:47:49 +0000";
layers = (
{
background = {
paths = (
{
closed = 1;
nodes = (
"509 40 LINE",
"359 251 LINE",
"509 461 LINE",
"409 461 LINE",
"262 251 LINE",
"409 40 LINE"
);
},
{
closed = 1;
nodes = (
"300 40 LINE",
"151 251 LINE",
"300 461 LINE",
"201 461 LINE",
"53 251 LINE",
"201 40 LINE"
);
}
);
};
layerId = "04EC68FF-C98D-4D46-AE83-08D67BD50805";
paths = (
{
closed = 1;
nodes = (
"509 40 LINE",
"359 251 LINE",
"509 461 LINE",
"409 461 LINE",
"262 251 LINE",
"409 40 LINE"
);
},
{
closed = 1;
nodes = (
"300 40 LINE",
"151 251 LINE",
"300 461 LINE",
"201 461 LINE",
"53 251 LINE",
"201 40 LINE"
);
}
);
width = 562;
},
{
background = {
paths = (
{
closed = 1;
nodes = (
"616 40 LINE",
"466 251 LINE",
"615 461 LINE",
"440 461 LINE",
"294 251 LINE",
"440 40 LINE"
);
},
{
closed = 1;
nodes = (
"375 40 LINE",
"226 251 LINE",
"374 461 LINE",
"201 461 LINE",
"53 251 LINE",
"201 40 LINE"
);
}
);
};
layerId = "61B80AC7-60CB-49DF-8181-735FACBD9F63";
paths = (
{
closed = 1;
nodes = (
"616 40 LINE",
"466 251 LINE",
"615 461 LINE",
"440 461 LINE",
"294 251 LINE",
"440 40 LINE"
);
},
{
closed = 1;
nodes = (
"375 40 LINE",
"226 251 LINE",
"374 461 LINE",
"201 461 LINE",
"53 251 LINE",
"201 40 LINE"
);
}
);
width = 669;
}
);
leftKerningGroup = guilsinglleft;
rightKerningGroup = guilsinglleft_2;
unicode = 00AB;
},
{
glyphname = logicalnot;
lastChange = "2021-04-13 17:47:49 +0000";
layers = (
{
background = {
paths = (
{
closed = 1;
nodes = (
"549 90 LINE",
"549 396 LINE",
"53 396 LINE",
"53 317 LINE",
"468 317 LINE",
"468 90 LINE"
);
}
);
};
layerId = "04EC68FF-C98D-4D46-AE83-08D67BD50805";
paths = (
{
closed = 1;
nodes = (
"549 90 LINE",
"549 396 LINE",
"53 396 LINE",
"53 317 LINE",
"468 317 LINE",
"468 90 LINE"
);
}
);
width = 602;
},
{
background = {
paths = (
{
closed = 1;
nodes = (
"565 56 LINE",
"565 422 LINE",
"53 422 LINE",
"53 295 LINE",
"437 295 LINE",
"437 56 LINE"
);
}
);
};
layerId = "61B80AC7-60CB-49DF-8181-735FACBD9F63";
paths = (
{
closed = 1;
nodes = (
"565 56 LINE",
"565 422 LINE",
"53 422 LINE",
"53 295 LINE",
"437 295 LINE",
"437 56 LINE"
);
}
);
width = 618;
}
);
unicode = 00AC;
},
{
glyphname = registered;
lastChange = "2021-04-13 17:47:49 +0000";
layers = (
{
background = {
paths = (
{
closed = 1;
nodes = (
"590 -12 OFFCURVE",
"745 143 OFFCURVE",
"745 333 CURVE SMOOTH",
"745 525 OFFCURVE",
"590 680 OFFCURVE",
"399 680 CURVE SMOOTH",
"208 680 OFFCURVE",
"53 525 OFFCURVE",
"53 333 CURVE SMOOTH",
"53 143 OFFCURVE",
"208 -12 OFFCURVE",
"399 -12 CURVE SMOOTH"
);
},
{
closed = 1;
nodes = (
"242 49 OFFCURVE",
"115 177 OFFCURVE",
"115 333 CURVE SMOOTH",
"115 490 OFFCURVE",
"242 619 OFFCURVE",
"399 619 CURVE SMOOTH",
"556 619 OFFCURVE",
"683 490 OFFCURVE",
"683 333 CURVE SMOOTH",
"683 177 OFFCURVE",
"556 49 OFFCURVE",
"399 49 CURVE SMOOTH"
);
},
{
closed = 1;
nodes = (
"340 162 LINE",
"340 301 LINE",
"382 301 LINE",
"484 162 LINE",
"570 162 LINE",
"462 311 LINE",
"538 332 OFFCURVE",
"550 383 OFFCURVE",
"550 414 CURVE SMOOTH",
"550 511 OFFCURVE",
"485 530 OFFCURVE",
"376 530 CURVE SMOOTH",
"264 530 LINE",
"264 162 LINE"
);
},
{
closed = 1;
nodes = (
"340 469 LINE",
"388 469 LINE SMOOTH",
"439 469 OFFCURVE",
"474 458 OFFCURVE",
"474 413 CURVE SMOOTH",
"474 378 OFFCURVE",
"450 359 OFFCURVE",
"393 359 CURVE SMOOTH",
"340 359 LINE"
);
}
);
};
layerId = "04EC68FF-C98D-4D46-AE83-08D67BD50805";
paths = (
{
closed = 1;
nodes = (
"590 -12 OFFCURVE",
"745 143 OFFCURVE",
"745 333 CURVE SMOOTH",
"745 525 OFFCURVE",
"590 680 OFFCURVE",
"399 680 CURVE SMOOTH",
"208 680 OFFCURVE",
"53 525 OFFCURVE",
"53 333 CURVE SMOOTH",
"53 143 OFFCURVE",
"208 -12 OFFCURVE",
"399 -12 CURVE SMOOTH"
);
},
{
closed = 1;
nodes = (
"242 49 OFFCURVE",
"115 177 OFFCURVE",
"115 333 CURVE SMOOTH",
"115 490 OFFCURVE",
"242 619 OFFCURVE",
"399 619 CURVE SMOOTH",
"556 619 OFFCURVE",
"683 490 OFFCURVE",
"683 333 CURVE SMOOTH",
"683 177 OFFCURVE",
"556 49 OFFCURVE",
"399 49 CURVE SMOOTH"
);
},
{
closed = 1;
nodes = (
"340 162 LINE",
"340 301 LINE",
"382 301 LINE",
"484 162 LINE",
"570 162 LINE",
"462 311 LINE",
"538 332 OFFCURVE",
"550 383 OFFCURVE",
"550 414 CURVE SMOOTH",
"550 511 OFFCURVE",
"485 530 OFFCURVE",
"376 530 CURVE SMOOTH",
"264 530 LINE",
"264 162 LINE"
);
},
{
closed = 1;
nodes = (
"340 469 LINE",
"388 469 LINE SMOOTH",
"439 469 OFFCURVE",
"474 458 OFFCURVE",
"474 413 CURVE SMOOTH",
"474 378 OFFCURVE",
"450 359 OFFCURVE",
"393 359 CURVE SMOOTH",
"340 359 LINE"
);
}
);
width = 798;
},
{
background = {
paths = (
{
closed = 1;
nodes = (
"590 -12 OFFCURVE",
"745 143 OFFCURVE",
"745 334 CURVE SMOOTH",
"745 524 OFFCURVE",
"590 679 OFFCURVE",
"398 679 CURVE SMOOTH",
"208 679 OFFCURVE",
"53 524 OFFCURVE",
"53 334 CURVE SMOOTH",
"53 143 OFFCURVE",
"208 -12 OFFCURVE",
"398 -12 CURVE SMOOTH"
);
},
{
closed = 1;
nodes = (
"247 57 OFFCURVE",
"123 181 OFFCURVE",
"123 334 CURVE SMOOTH",
"123 486 OFFCURVE",
"247 610 OFFCURVE",
"398 610 CURVE SMOOTH",
"551 610 OFFCURVE",
"675 486 OFFCURVE",
"675 334 CURVE SMOOTH",
"675 181 OFFCURVE",
"551 57 OFFCURVE",
"398 57 CURVE SMOOTH"
);
},
{
closed = 1;
nodes = (
"338 161 LINE",
"338 300 LINE",
"370 300 LINE",
"471 161 LINE",
"579 161 LINE",
"472 310 LINE",
"541 329 OFFCURVE",
"559 373 OFFCURVE",
"559 415 CURVE SMOOTH",
"559 507 OFFCURVE",
"487 529 OFFCURVE",
"392 529 CURVE SMOOTH",
"241 529 LINE",
"241 161 LINE"
);
},
{
closed = 1;
nodes = (
"338 453 LINE",
"390 453 LINE SMOOTH",
"428 453 OFFCURVE",
"458 446 OFFCURVE",
"458 414 CURVE SMOOTH",
"458 382 OFFCURVE",
"428 375 OFFCURVE",
"390 375 CURVE",
"338 375 LINE"
);
}
);
};
layerId = "61B80AC7-60CB-49DF-8181-735FACBD9F63";
paths = (
{
closed = 1;
nodes = (
"590 -12 OFFCURVE",
"745 143 OFFCURVE",
"745 334 CURVE SMOOTH",
"745 524 OFFCURVE",
"590 679 OFFCURVE",
"398 679 CURVE SMOOTH",
"208 679 OFFCURVE",
"53 524 OFFCURVE",
"53 334 CURVE SMOOTH",
"53 143 OFFCURVE",
"208 -12 OFFCURVE",
"398 -12 CURVE SMOOTH"
);
},
{
closed = 1;
nodes = (
"247 57 OFFCURVE",
"123 181 OFFCURVE",
"123 334 CURVE SMOOTH",
"123 486 OFFCURVE",
"247 610 OFFCURVE",
"398 610 CURVE SMOOTH",
"551 610 OFFCURVE",
"675 486 OFFCURVE",
"675 334 CURVE SMOOTH",
"675 181 OFFCURVE",
"551 57 OFFCURVE",
"398 57 CURVE SMOOTH"
);
},
{
closed = 1;
nodes = (
"338 161 LINE",
"338 300 LINE",
"370 300 LINE",
"471 161 LINE",
"579 161 LINE",
"472 310 LINE",
"541 329 OFFCURVE",
"559 373 OFFCURVE",
"559 415 CURVE SMOOTH",
"559 507 OFFCURVE",
"487 529 OFFCURVE",
"392 529 CURVE SMOOTH",
"241 529 LINE",
"241 161 LINE"
);
},
{
closed = 1;
nodes = (
"338 453 LINE",
"390 453 LINE SMOOTH",
"428 453 OFFCURVE",
"458 446 OFFCURVE",
"458 414 CURVE SMOOTH",
"458 382 OFFCURVE",
"428 375 OFFCURVE",
"390 375 CURVE",
"338 375 LINE"
);
}
);
width = 798;
}
);
unicode = 00AE;
},
{
glyphname = macron;
lastChange = "2021-04-13 17:47:49 +0000";
layers = (
{
background = {
paths = (
{
closed = 1;
nodes = (
"329 601 LINE",
"329 668 LINE",
"53 668 LINE",
"53 601 LINE"
);
}
);
};
layerId = "04EC68FF-C98D-4D46-AE83-08D67BD50805";
paths = (
{
closed = 1;
nodes = (
"329 601 LINE",
"329 668 LINE",
"53 668 LINE",
"53 601 LINE"
);
}
);
width = 382;
},
{
background = {
paths = (
{
closed = 1;
nodes = (
"352 570 LINE",
"352 668 LINE",
"53 668 LINE",
"53 570 LINE"
);
}
);
};
layerId = "61B80AC7-60CB-49DF-8181-735FACBD9F63";
paths = (
{
closed = 1;
nodes = (
"352 570 LINE",
"352 668 LINE",
"53 668 LINE",
"53 570 LINE"
);
}
);
width = 405;
}
);
unicode = 00AF;
},
{
glyphname = degree;
lastChange = "2021-04-13 17:47:49 +0000";
layers = (
{
background = {
paths = (
{
closed = 1;
nodes = (
"251 408 OFFCURVE",
"312 469 OFFCURVE",
"312 544 CURVE SMOOTH",
"312 619 OFFCURVE",
"251 680 OFFCURVE",
"176 680 CURVE SMOOTH",
"101 680 OFFCURVE",
"40 619 OFFCURVE",
"40 544 CURVE SMOOTH",
"40 469 OFFCURVE",
"101 408 OFFCURVE",
"176 408 CURVE SMOOTH"
);
},
{
closed = 1;
nodes = (
"136 471 OFFCURVE",
"103 504 OFFCURVE",
"103 544 CURVE SMOOTH",
"103 585 OFFCURVE",
"136 617 OFFCURVE",
"176 617 CURVE SMOOTH",
"217 617 OFFCURVE",
"249 585 OFFCURVE",
"249 544 CURVE SMOOTH",
"249 504 OFFCURVE",
"217 471 OFFCURVE",
"176 471 CURVE SMOOTH"
);
}
);
};
layerId = "04EC68FF-C98D-4D46-AE83-08D67BD50805";
paths = (
{
closed = 1;
nodes = (
"251 408 OFFCURVE",
"312 469 OFFCURVE",
"312 544 CURVE SMOOTH",
"312 619 OFFCURVE",
"251 680 OFFCURVE",
"176 680 CURVE SMOOTH",
"101 680 OFFCURVE",
"40 619 OFFCURVE",
"40 544 CURVE SMOOTH",
"40 469 OFFCURVE",
"101 408 OFFCURVE",
"176 408 CURVE SMOOTH"
);
},
{
closed = 1;
nodes = (
"136 471 OFFCURVE",
"103 504 OFFCURVE",
"103 544 CURVE SMOOTH",
"103 585 OFFCURVE",
"136 617 OFFCURVE",
"176 617 CURVE SMOOTH",
"217 617 OFFCURVE",
"249 585 OFFCURVE",
"249 544 CURVE SMOOTH",
"249 504 OFFCURVE",
"217 471 OFFCURVE",
"176 471 CURVE SMOOTH"
);
}
);
width = 352;
},
{
background = {
paths = (
{
closed = 1;
nodes = (
"292 354 OFFCURVE",
"364 427 OFFCURVE",
"364 517 CURVE SMOOTH",
"364 606 OFFCURVE",
"292 679 OFFCURVE",
"202 679 CURVE SMOOTH",
"113 679 OFFCURVE",
"40 606 OFFCURVE",
"40 517 CURVE SMOOTH",
"40 427 OFFCURVE",
"113 354 OFFCURVE",
"202 354 CURVE SMOOTH"
);
},
{
closed = 1;
nodes = (
"162 444 OFFCURVE",
"129 477 OFFCURVE",
"129 517 CURVE SMOOTH",
"129 557 OFFCURVE",
"162 590 OFFCURVE",
"202 590 CURVE SMOOTH",
"243 590 OFFCURVE",
"275 557 OFFCURVE",
"275 517 CURVE SMOOTH",
"275 477 OFFCURVE",
"243 444 OFFCURVE",
"202 444 CURVE SMOOTH"
);
}
);
};
layerId = "61B80AC7-60CB-49DF-8181-735FACBD9F63";
paths = (
{
closed = 1;
nodes = (
"292 354 OFFCURVE",
"364 427 OFFCURVE",
"364 517 CURVE SMOOTH",
"364 606 OFFCURVE",
"292 679 OFFCURVE",
"202 679 CURVE SMOOTH",
"113 679 OFFCURVE",
"40 606 OFFCURVE",
"40 517 CURVE SMOOTH",
"40 427 OFFCURVE",
"113 354 OFFCURVE",
"202 354 CURVE SMOOTH"
);
},
{
closed = 1;
nodes = (
"162 444 OFFCURVE",
"129 477 OFFCURVE",
"129 517 CURVE SMOOTH",
"129 557 OFFCURVE",
"162 590 OFFCURVE",
"202 590 CURVE SMOOTH",
"243 590 OFFCURVE",
"275 557 OFFCURVE",
"275 517 CURVE SMOOTH",
"275 477 OFFCURVE",
"243 444 OFFCURVE",
"202 444 CURVE SMOOTH"
);
}
);
width = 404;
}
);
unicode = 00B0;
},
{
glyphname = plusminus;
lastChange = "2021-04-13 17:47:49 +0000";
layers = (
{
background = {
paths = (
{
closed = 1;
nodes = (
"329 124 LINE",
"329 270 LINE",
"526 270 LINE",
"526 349 LINE",
"329 349 LINE",
"329 496 LINE",
"250 496 LINE",
"250 349 LINE",
"53 349 LINE",
"53 270 LINE",
"250 270 LINE",
"250 124 LINE"
);
},
{
closed = 1;
nodes = (
"526 0 LINE",
"526 79 LINE",
"53 79 LINE",
"53 0 LINE"
);
}
);
};
layerId = "04EC68FF-C98D-4D46-AE83-08D67BD50805";
paths = (
{
closed = 1;
nodes = (
"329 124 LINE",
"329 270 LINE",
"526 270 LINE",
"526 349 LINE",
"329 349 LINE",
"329 496 LINE",
"250 496 LINE",
"250 349 LINE",
"53 349 LINE",
"53 270 LINE",
"250 270 LINE",
"250 124 LINE"
);
},
{
closed = 1;
nodes = (
"526 0 LINE",
"526 79 LINE",
"53 79 LINE",
"53 0 LINE"
);
}
);
width = 579;
},
{
background = {
paths = (
{
closed = 1;
nodes = (
"373 180 LINE",
"373 283 LINE",
"565 283 LINE",
"565 391 LINE",
"373 391 LINE",
"373 495 LINE",
"245 495 LINE",
"245 391 LINE",
"53 391 LINE",
"53 283 LINE",
"245 283 LINE",
"245 180 LINE"
);
},
{
closed = 1;
nodes = (
"565 0 LINE",
"565 128 LINE",
"53 128 LINE",
"53 0 LINE"
);
}
);
};
layerId = "61B80AC7-60CB-49DF-8181-735FACBD9F63";
paths = (
{
closed = 1;
nodes = (
"373 180 LINE",
"373 283 LINE",
"565 283 LINE",
"565 391 LINE",
"373 391 LINE",
"373 495 LINE",
"245 495 LINE",
"245 391 LINE",
"53 391 LINE",
"53 283 LINE",
"245 283 LINE",
"245 180 LINE"
);
},
{
closed = 1;
nodes = (
"565 0 LINE",
"565 128 LINE",
"53 128 LINE",
"53 0 LINE"
);
}
);
width = 618;
}
);
unicode = 00B1;
},
{
glyphname = twosuperior;
lastChange = "2021-04-13 17:47:49 +0000";
layers = (
{
background = {
paths = (
{
closed = 1;
nodes = (
"329 403 LINE",
"329 461 LINE",
"134 461 LINE",
"251 541 OFFCURVE",
"320 612 OFFCURVE",
"320 686 CURVE SMOOTH",
"320 750 OFFCURVE",
"266 786 OFFCURVE",
"196 786 CURVE SMOOTH",
"127 786 OFFCURVE",
"79 751 OFFCURVE",
"65 695 CURVE",
"129 677 LINE",
"134 720 OFFCURVE",
"163 736 OFFCURVE",
"193 736 CURVE SMOOTH",
"227 736 OFFCURVE",
"250 717 OFFCURVE",
"250 682 CURVE SMOOTH",
"250 620 OFFCURVE",
"176 555 OFFCURVE",
"53 458 CURVE",
"53 403 LINE"
);
}
);
};
layerId = "04EC68FF-C98D-4D46-AE83-08D67BD50805";
paths = (
{
closed = 1;
nodes = (
"329 403 LINE",
"329 461 LINE",
"134 461 LINE",
"251 541 OFFCURVE",
"320 612 OFFCURVE",
"320 686 CURVE SMOOTH",
"320 750 OFFCURVE",
"266 786 OFFCURVE",
"196 786 CURVE SMOOTH",
"127 786 OFFCURVE",
"79 751 OFFCURVE",
"65 695 CURVE",
"129 677 LINE",
"134 720 OFFCURVE",
"163 736 OFFCURVE",
"193 736 CURVE SMOOTH",
"227 736 OFFCURVE",
"250 717 OFFCURVE",
"250 682 CURVE SMOOTH",
"250 620 OFFCURVE",
"176 555 OFFCURVE",
"53 458 CURVE",
"53 403 LINE"
);
}
);
width = 382;
},
{
background = {
paths = (
{
closed = 1;
nodes = (
"353 403 LINE",
"353 490 LINE",
"195 490 LINE",
"292 555 OFFCURVE",
"354 603 OFFCURVE",
"354 677 CURVE",
"354 751 OFFCURVE",
"293 785 OFFCURVE",
"213 785 CURVE SMOOTH",
"138 785 OFFCURVE",
"85 755 OFFCURVE",
"64 699 CURVE",
"155 666 LINE",
"160 691 OFFCURVE",
"179 709 OFFCURVE",
"208 709 CURVE SMOOTH",
"232 709 OFFCURVE",
"251 697 OFFCURVE",
"251 673 CURVE SMOOTH",
"251 619 OFFCURVE",
"159 556 OFFCURVE",
"89 509 CURVE SMOOTH",
"53 484 LINE",
"53 403 LINE"
);
}
);
};
layerId = "61B80AC7-60CB-49DF-8181-735FACBD9F63";
paths = (
{
closed = 1;
nodes = (
"353 403 LINE",
"353 490 LINE",
"195 490 LINE",
"292 555 OFFCURVE",
"354 603 OFFCURVE",
"354 677 CURVE",
"354 751 OFFCURVE",
"293 785 OFFCURVE",
"213 785 CURVE SMOOTH",
"138 785 OFFCURVE",
"85 755 OFFCURVE",
"64 699 CURVE",
"155 666 LINE",
"160 691 OFFCURVE",
"179 709 OFFCURVE",
"208 709 CURVE SMOOTH",
"232 709 OFFCURVE",
"251 697 OFFCURVE",
"251 673 CURVE SMOOTH",
"251 619 OFFCURVE",
"159 556 OFFCURVE",
"89 509 CURVE SMOOTH",
"53 484 LINE",
"53 403 LINE"
);
}
);
width = 407;
}
);
unicode = 00B2;
},
{
glyphname = threesuperior;
lastChange = "2021-04-13 17:47:49 +0000";
layers = (
{
background = {
paths = (
{
closed = 1;
nodes = (
"263 397 OFFCURVE",
"330 434 OFFCURVE",
"330 511 CURVE SMOOTH",
"330 549 OFFCURVE",
"309 586 OFFCURVE",
"268 602 CURVE",
"298 618 OFFCURVE",
"321 649 OFFCURVE",
"321 685 CURVE SMOOTH",
"321 756 OFFCURVE",
"256 786 OFFCURVE",
"194 786 CURVE SMOOTH",
"124 786 OFFCURVE",
"75 754 OFFCURVE",
"58 701 CURVE",
"119 683 LINE",
"129 717 OFFCURVE",
"152 736 OFFCURVE",
"190 736 CURVE SMOOTH",
"222 736 OFFCURVE",
"252 720 OFFCURVE",
"252 683 CURVE SMOOTH",
"252 621 OFFCURVE",
"178 626 OFFCURVE",
"151 626 CURVE",
"151 572 LINE",
"184 572 OFFCURVE",
"261 578 OFFCURVE",
"261 509 CURVE SMOOTH",
"261 471 OFFCURVE",
"229 448 OFFCURVE",
"188 448 CURVE SMOOTH",
"147 448 OFFCURVE",
"125 473 OFFCURVE",
"115 504 CURVE",
"53 486 LINE",
"70 435 OFFCURVE",
"116 397 OFFCURVE",
"187 397 CURVE SMOOTH"
);
}
);
};
layerId = "04EC68FF-C98D-4D46-AE83-08D67BD50805";
paths = (
{
closed = 1;
nodes = (
"263 397 OFFCURVE",
"330 434 OFFCURVE",
"330 511 CURVE SMOOTH",
"330 549 OFFCURVE",
"309 586 OFFCURVE",
"268 602 CURVE",
"298 618 OFFCURVE",
"321 649 OFFCURVE",
"321 685 CURVE SMOOTH",
"321 756 OFFCURVE",
"256 786 OFFCURVE",
"194 786 CURVE SMOOTH",
"124 786 OFFCURVE",
"75 754 OFFCURVE",
"58 701 CURVE",
"119 683 LINE",
"129 717 OFFCURVE",
"152 736 OFFCURVE",
"190 736 CURVE SMOOTH",
"222 736 OFFCURVE",
"252 720 OFFCURVE",
"252 683 CURVE SMOOTH",
"252 621 OFFCURVE",
"178 626 OFFCURVE",
"151 626 CURVE",
"151 572 LINE",
"184 572 OFFCURVE",
"261 578 OFFCURVE",
"261 509 CURVE SMOOTH",
"261 471 OFFCURVE",
"229 448 OFFCURVE",
"188 448 CURVE SMOOTH",
"147 448 OFFCURVE",
"125 473 OFFCURVE",
"115 504 CURVE",
"53 486 LINE",
"70 435 OFFCURVE",
"116 397 OFFCURVE",
"187 397 CURVE SMOOTH"
);
}
);
width = 383;
},
{
background = {
paths = (
{
closed = 1;
nodes = (
"287 395 OFFCURVE",
"360 436 OFFCURVE",
"360 510 CURVE",
"360 554 OFFCURVE",
"337 587 OFFCURVE",
"301 600 CURVE",
"327 613 OFFCURVE",
"350 643 OFFCURVE",
"350 683 CURVE SMOOTH",
"350 748 OFFCURVE",
"289 785 OFFCURVE",
"205 785 CURVE SMOOTH",
"134 785 OFFCURVE",
"81 759 OFFCURVE",
"58 708 CURVE",
"147 675 LINE",
"155 698 OFFCURVE",
"177 709 OFFCURVE",
"201 709 CURVE SMOOTH",
"224 709 OFFCURVE",
"247 699 OFFCURVE",
"247 674 CURVE SMOOTH",
"247 649 OFFCURVE",
"224 636 OFFCURVE",
"182 636 CURVE SMOOTH",
"167 636 LINE",
"167 552 LINE",
"182 552 LINE SMOOTH",
"230 552 OFFCURVE",
"255 541 OFFCURVE",
"255 512 CURVE SMOOTH",
"255 489 OFFCURVE",
"239 472 OFFCURVE",
"205 472 CURVE SMOOTH",
"177 472 OFFCURVE",
"153 485 OFFCURVE",
"144 511 CURVE",
"53 478 LINE",
"77 425 OFFCURVE",
"130 395 OFFCURVE",
"203 395 CURVE SMOOTH"
);
}
);
};
layerId = "61B80AC7-60CB-49DF-8181-735FACBD9F63";
paths = (
{
closed = 1;
nodes = (
"287 395 OFFCURVE",
"360 436 OFFCURVE",
"360 510 CURVE",
"360 554 OFFCURVE",
"337 587 OFFCURVE",
"301 600 CURVE",
"327 613 OFFCURVE",
"350 643 OFFCURVE",
"350 683 CURVE SMOOTH",
"350 748 OFFCURVE",
"289 785 OFFCURVE",
"205 785 CURVE SMOOTH",
"134 785 OFFCURVE",
"81 759 OFFCURVE",
"58 708 CURVE",
"147 675 LINE",
"155 698 OFFCURVE",
"177 709 OFFCURVE",
"201 709 CURVE SMOOTH",
"224 709 OFFCURVE",
"247 699 OFFCURVE",
"247 674 CURVE SMOOTH",
"247 649 OFFCURVE",
"224 636 OFFCURVE",
"182 636 CURVE SMOOTH",
"167 636 LINE",
"167 552 LINE",
"182 552 LINE SMOOTH",
"230 552 OFFCURVE",
"255 541 OFFCURVE",
"255 512 CURVE SMOOTH",
"255 489 OFFCURVE",
"239 472 OFFCURVE",
"205 472 CURVE SMOOTH",
"177 472 OFFCURVE",
"153 485 OFFCURVE",
"144 511 CURVE",
"53 478 LINE",
"77 425 OFFCURVE",
"130 395 OFFCURVE",
"203 395 CURVE SMOOTH"
);
}
);
width = 413;
}
);
unicode = 00B3;
},
